<svg width="23" height="23" viewBox="0 0 23 23" fill="none" xmlns="http://www.w3.org/2000/svg">
<path d="M17.0625 2.21338V4.04671M6.0625 2.21338V4.04671" stroke="#898989" stroke-width="1.5" stroke-linecap="round" stroke-linejoin="round"/>
<path d="M9.72917 15.9635L9.72916 12.6152C9.72916 12.4394 9.60382 12.2969 9.4492 12.2969H8.8125M13.0563 15.9635L14.298 12.6169C14.3561 12.4605 14.2326 12.2969 14.0565 12.2969H12.4792" stroke="#898989" stroke-width="1.5" stroke-linecap="round"/>
<path d="M2.85449 11.6029C2.85449 7.60866 2.85449 5.61156 4.00227 4.37072C5.15004 3.12988 6.99736 3.12988 10.692 3.12988H12.4337C16.1283 3.12988 17.9756 3.12988 19.1234 4.37072C20.2712 5.61156 20.2712 7.60866 20.2712 11.6029V12.0736C20.2712 16.0678 20.2712 18.0649 19.1234 19.3057C17.9756 20.5465 16.1283 20.5465 12.4337 20.5465H10.692C6.99736 20.5465 5.15004 20.5465 4.00227 19.3057C2.85449 18.0649 2.85449 16.0678 2.85449 12.0736V11.6029Z" stroke="#898989" stroke-width="1.5" stroke-linecap="round" stroke-linejoin="round"/>
<path d="M6.0625 7.71338H17.0625" stroke="#898989" stroke-width="1.5" stroke-linecap="round" stroke-linejoin="round"/>
</svg>
