<svg width="23" height="23" viewBox="0 0 23 23" fill="none" xmlns="http://www.w3.org/2000/svg">
<path d="M19.3174 10.4629V9.54622C19.3174 6.08926 19.3174 4.36077 18.1803 3.28683C17.0432 2.21289 15.213 2.21289 11.5527 2.21289L10.5821 2.21289C6.92177 2.21289 5.09161 2.21289 3.9545 3.28683C2.81738 4.36077 2.81738 6.08926 2.81738 9.54622L2.81738 13.2129C2.81738 16.6699 2.81738 18.3983 3.9545 19.4723C5.09161 20.5462 6.92177 20.5462 10.5821 20.5462H11.0674" stroke="#898989" stroke-width="1.5" stroke-linecap="round"/>
<path d="M7.40039 6.7959H14.7337" stroke="#898989" stroke-width="1.5" stroke-linecap="round"/>
<path d="M7.40039 11.3799H11.9837" stroke="#898989" stroke-width="1.5" stroke-linecap="round"/>
<path d="M19.3174 19.306L19.3174 15.9629C19.3174 14.6526 18.0862 13.2129 16.5674 13.2129C15.0486 13.2129 13.8174 14.6526 13.8174 15.9629L13.8174 19.1712C13.8174 19.8859 14.489 20.5462 15.3174 20.5462C16.1458 20.5462 16.8174 19.8859 16.8174 19.1712L16.8174 16.6639" stroke="#898989" stroke-width="1.5" stroke-linecap="round"/>
</svg>
