<svg width="149" height="149" viewBox="0 0 149 149" fill="none" xmlns="http://www.w3.org/2000/svg">
<path d="M116.717 79.8783L95.0772 71.6942C93.5819 71.1286 92.8279 69.4581 93.3936 67.9625L104.721 38.0104C105.287 36.5149 106.957 35.7612 108.453 36.3265L122.177 41.5169L128.659 56.4841L120.449 78.1944C119.883 79.69 118.212 80.4437 116.717 79.8783Z" fill="#F5F5F5"/>
<path d="M122.177 41.5171L118.989 49.947C118.463 51.3378 119.164 52.8916 120.554 53.4177L128.659 56.4844L122.177 41.5171Z" fill="#EBEBEB"/>
<path d="M118.819 50.7285C118.819 50.7285 117.94 52.7326 120.013 54.285C120.091 54.3433 120.173 54.3959 120.257 54.4456C121.243 55.0351 127.742 58.9093 127.803 58.7492C127.868 58.5761 128.659 56.4839 128.659 56.4839L120.554 53.4185C120.554 53.4185 118.556 52.5841 118.819 50.7285Z" fill="#E0E0E0"/>
<path d="M117.304 48.9164C117.263 49.0247 114.989 48.265 112.225 47.2194C109.46 46.1737 107.252 45.2382 107.293 45.1299C107.334 45.0216 109.608 45.7813 112.373 46.8269C115.137 47.8725 117.345 48.808 117.304 48.9164Z" fill="#E0E0E0"/>
<path d="M121.967 56.1279C121.926 56.2362 118.204 54.929 113.655 53.2086C109.104 51.4875 105.449 50.0047 105.49 49.8964C105.531 49.7881 109.253 51.095 113.804 52.8161C118.353 54.5366 122.008 56.0196 121.967 56.1279Z" fill="#E0E0E0"/>
<path d="M121.946 60.6691C121.905 60.7774 117.851 59.3443 112.892 57.4691C107.931 55.593 103.944 53.985 103.985 53.8764C104.026 53.7681 108.08 55.2008 113.04 57.0769C117.999 58.9521 121.987 60.5608 121.946 60.6691Z" fill="#E0E0E0"/>
<path d="M120.526 64.4239C120.485 64.5323 116.431 63.0995 111.472 61.224C106.511 59.3479 102.524 57.7396 102.565 57.6312C102.606 57.5229 106.66 58.9557 111.62 60.8318C116.579 62.7073 120.567 64.3159 120.526 64.4239Z" fill="#E0E0E0"/>
<path d="M119.106 68.1788C119.065 68.2871 115.011 66.8544 110.051 64.9789C105.091 63.1027 101.104 61.4944 101.145 61.3861C101.186 61.2778 105.239 62.7106 110.2 64.5867C115.159 66.4622 119.147 68.0708 119.106 68.1788Z" fill="#E0E0E0"/>
<path d="M117.686 71.9342C117.645 72.0425 113.591 70.6095 108.632 68.7342C103.671 66.8581 99.6839 65.2498 99.7249 65.1415C99.766 65.0332 103.819 66.4656 108.78 68.3421C113.739 70.2173 117.727 71.8259 117.686 71.9342Z" fill="#E0E0E0"/>
<path d="M60.1246 93.231L31.5969 103.221C30.6099 103.566 29.5298 103.046 29.1843 102.059L14.8708 61.1849C14.5253 60.1979 15.0451 59.1178 16.0321 58.7723L44.5598 48.7826C45.5468 48.4372 46.627 48.957 46.9724 49.9437L61.2857 90.8181C61.6314 91.8051 61.1113 92.8855 60.1246 93.231Z" fill="#EBEBEB"/>
<path d="M44.9268 51.3231L17.3303 60.9868L31.5176 101.501L59.114 91.8372L44.9268 51.3231Z" fill="#E0E0E0"/>
<path d="M44.4329 51.1312L16.8364 60.7949L30.7527 100.535L58.3492 90.8716L44.4329 51.1312Z" fill="#FAFAFA"/>
<path d="M58.3492 90.8727C58.2326 90.5407 52.629 74.5864 44.3958 51.1449L44.4461 51.169C36.0766 54.1012 26.7124 57.3815 16.8539 60.8353L16.8506 60.8364L16.8771 60.7811C22.0788 75.7088 26.9204 89.4942 30.7854 100.525L30.7407 100.503C47.5267 94.6482 58.0785 90.9674 58.3492 90.8727C58.0791 90.9677 47.5356 94.6738 30.7639 100.569L30.7309 100.581L30.7193 100.548C26.8546 89.5183 22.0237 75.7317 16.7953 60.81L16.781 60.7689L16.8221 60.7546L16.8253 60.7534C26.6847 57.3023 36.0498 54.0244 44.4202 51.0946L44.4577 51.0815L44.4707 51.1187C52.6596 74.5757 58.2335 90.5407 58.3492 90.8727Z" fill="#E0E0E0"/>
<path d="M48.5601 94.3005C48.5601 94.3005 54.7059 89.1176 55.7708 83.7192C55.7708 83.7192 54.0646 86.394 50.5171 86.8826C50.5171 86.8826 50.3939 92.5502 48.5601 94.3005Z" fill="#E0E0E0"/>
<path d="M27.451 73.0239L25.9977 73.5328C25.4674 73.7184 24.8872 73.439 24.7015 72.9088L24.1927 71.4555C24.007 70.9252 24.2864 70.345 24.8167 70.159L26.27 69.6502C26.8002 69.4645 27.3804 69.7439 27.5661 70.2742L28.0749 71.7275C28.2606 72.258 27.9812 72.8383 27.451 73.0239Z" fill="#EBEBEB"/>
<path d="M26.0926 72.1522C26.0917 72.1525 26.0908 72.1528 26.0899 72.1531C26.0676 72.1603 26.0435 72.1573 26.0233 72.1457L25.3579 71.7597C25.3181 71.7368 25.3047 71.6856 25.3276 71.6458C25.3508 71.6062 25.4017 71.5925 25.4415 71.6154L26.0283 71.9555L26.7312 70.4523C26.7505 70.4106 26.8002 70.3928 26.8419 70.4121C26.8835 70.4314 26.9017 70.4811 26.882 70.5228L26.1408 72.1085C26.131 72.1293 26.1137 72.1448 26.0926 72.1522Z" fill="white"/>
<path d="M45.1499 63.5003C45.1579 63.5229 41.5738 64.7986 37.1458 66.3491C32.7164 67.9003 29.1204 69.1388 29.1123 69.1162C29.1043 69.0935 32.6875 67.8182 37.117 66.267C41.545 64.7164 45.1419 63.4777 45.1499 63.5003Z" fill="#E0E0E0"/>
<path d="M36.7333 69.2175C36.7354 69.2232 36.6426 69.2616 36.4733 69.3264C36.2897 69.3946 36.0472 69.4844 35.7538 69.593C35.145 69.8144 34.302 70.115 33.3691 70.4414C32.436 70.7681 31.5897 71.0594 30.9759 71.2659C30.6789 71.3638 30.4334 71.4451 30.2474 71.5064C30.0748 71.5614 29.9784 71.5891 29.9764 71.5834C29.9743 71.5778 30.0671 71.5394 30.2361 71.4745C30.4197 71.4064 30.6622 71.3165 30.9556 71.2079C31.5644 70.9865 32.4074 70.686 33.3406 70.3593C34.2734 70.0325 35.1197 69.7415 35.7335 69.5347C36.0305 69.4368 36.2763 69.3556 36.4623 69.2943C36.6349 69.2395 36.7313 69.2119 36.7333 69.2175Z" fill="#E0E0E0"/>
<path d="M45.5326 64.5936C45.5407 64.6162 41.9565 65.8918 37.5288 67.4424C33.0994 68.9936 29.5034 70.232 29.4956 70.2094C29.4876 70.1868 33.0708 68.9115 37.5003 67.3606C41.928 65.81 45.5249 64.5712 45.5326 64.5936Z" fill="#E0E0E0"/>
<path d="M29.5243 78.9455L28.071 79.4543C27.5407 79.64 26.9605 79.3606 26.7745 78.8304L26.2657 77.3771C26.08 76.8468 26.3594 76.2666 26.8897 76.0809L28.3429 75.5721C28.8732 75.3864 29.4534 75.6658 29.6391 76.1961L30.1479 77.6493C30.3339 78.1793 30.0545 78.7598 29.5243 78.9455Z" fill="#EBEBEB"/>
<path d="M28.1659 78.0736C28.165 78.0739 28.1641 78.0742 28.1632 78.0745C28.1409 78.0816 28.1168 78.0787 28.0966 78.0671L27.4309 77.6811C27.3911 77.6582 27.3777 77.607 27.4006 77.5672C27.4238 77.5276 27.4747 77.5136 27.5145 77.5368L28.1013 77.8769L28.8042 76.3736C28.8235 76.332 28.8732 76.3141 28.9149 76.3335C28.9565 76.3528 28.9747 76.4025 28.955 76.4442L28.2135 78.0299C28.2043 78.0507 28.187 78.0662 28.1659 78.0736Z" fill="white"/>
<path d="M47.2231 69.4217C47.2311 69.4443 43.647 70.7199 39.219 72.2705C34.7896 73.8217 31.1935 75.0602 31.1858 75.0375C31.1778 75.0149 34.761 73.7396 39.1905 72.1884C43.6185 70.6381 47.2151 69.3991 47.2231 69.4217Z" fill="#E0E0E0"/>
<path d="M38.8066 75.1389C38.8087 75.1446 38.7158 75.1829 38.5468 75.2478C38.3632 75.316 38.1207 75.4058 37.8273 75.5144C37.2185 75.7358 36.3755 76.0363 35.4427 76.3628C34.5095 76.6895 33.6633 76.9808 33.0494 77.1873C32.7524 77.2852 32.5069 77.3664 32.3207 77.4277C32.1481 77.4828 32.0517 77.5105 32.0496 77.5048C32.0475 77.4992 32.1404 77.4608 32.3094 77.3959C32.493 77.3278 32.7355 77.2379 33.0289 77.1293C33.6377 76.9079 34.4807 76.6074 35.4138 76.2806C36.3467 75.9539 37.1929 75.6629 37.8068 75.4561C38.1038 75.3582 38.3492 75.277 38.5355 75.2157C38.7084 75.1609 38.8048 75.1333 38.8066 75.1389Z" fill="#E0E0E0"/>
<path d="M47.6062 70.5154C47.6142 70.5381 44.0301 71.8137 39.6021 73.3643C35.1726 74.9155 31.5766 76.1539 31.5689 76.1313C31.5608 76.1087 35.144 74.8333 39.5735 73.2825C44.0012 71.7319 47.5981 70.4928 47.6062 70.5154Z" fill="#E0E0E0"/>
<path d="M31.5979 84.8669L30.1447 85.3757C29.6144 85.5614 29.0342 85.282 28.8485 84.7518L28.3397 83.2985C28.154 82.7682 28.4334 82.188 28.9636 82.0023L30.4169 81.4935C30.9472 81.3078 31.5274 81.5872 31.7131 82.1174L32.2219 83.5707C32.4073 84.101 32.1282 84.6812 31.5979 84.8669Z" fill="#EBEBEB"/>
<path d="M30.2393 83.9954C30.2384 83.9957 30.2376 83.996 30.2367 83.9963C30.2143 84.0035 30.1902 84.0005 30.17 83.9889L29.5047 83.603C29.4648 83.58 29.4514 83.5289 29.4743 83.489C29.4975 83.4494 29.5484 83.4357 29.5883 83.4586L30.1751 83.7988L30.8779 82.2955C30.8975 82.2541 30.9469 82.236 30.9886 82.2553C31.0303 82.2746 31.0484 82.3243 31.0288 82.366L30.2872 83.9517C30.2777 83.9722 30.2605 83.988 30.2393 83.9954Z" fill="white"/>
<path d="M49.2966 75.3431C49.3046 75.3657 45.7205 76.6413 41.2925 78.1919C36.863 79.7431 33.267 80.9815 33.2593 80.9589C33.2513 80.9363 36.8345 79.661 41.264 78.1101C45.6919 76.5592 49.2885 75.3205 49.2966 75.3431Z" fill="#E0E0E0"/>
<path d="M40.8801 81.0597C40.8822 81.0654 40.7893 81.1038 40.62 81.1686C40.4364 81.2368 40.1939 81.3266 39.9005 81.4353C39.2917 81.6566 38.4487 81.9572 37.5159 82.2836C36.5827 82.6103 35.7365 82.9016 35.1226 83.1081C34.8256 83.206 34.5801 83.2873 34.3942 83.3486C34.2216 83.4036 34.1252 83.4313 34.1231 83.4256C34.121 83.42 34.2138 83.3816 34.3829 83.3167C34.5664 83.2486 34.809 83.1587 35.1024 83.0501C35.7112 82.8287 36.5541 82.5282 37.4873 82.2015C38.4201 81.8748 39.2664 81.5837 39.8803 81.3769C40.1772 81.279 40.4227 81.1978 40.609 81.1365C40.7819 81.0821 40.8783 81.0544 40.8801 81.0597Z" fill="#E0E0E0"/>
<path d="M49.6794 76.4363C49.6874 76.459 46.1033 77.7346 41.6753 79.2852C37.2459 80.8364 33.6498 82.0748 33.6421 82.0522C33.6341 82.0296 37.2173 80.7542 41.6468 79.2033C46.0748 77.6528 49.6714 76.4137 49.6794 76.4363Z" fill="#E0E0E0"/>
<path d="M33.6714 90.7883L32.2181 91.2971C31.6879 91.4828 31.1076 91.2034 30.922 90.6731L30.4131 89.2199C30.2275 88.6896 30.5069 88.1094 31.0371 87.9237L32.4904 87.4149C33.0207 87.2292 33.6009 87.5086 33.7866 88.0388L34.2954 89.4921C34.4811 90.0224 34.2017 90.6026 33.6714 90.7883Z" fill="#EBEBEB"/>
<path d="M32.3131 89.9164C32.3122 89.9167 32.3113 89.917 32.3104 89.9173C32.2881 89.9241 32.264 89.9214 32.2437 89.9098L31.5784 89.5239C31.5385 89.5007 31.5251 89.4498 31.548 89.4099C31.571 89.3701 31.6221 89.3567 31.662 89.3796L32.2488 89.7197L32.9516 88.2164C32.971 88.1748 33.021 88.1569 33.0623 88.1763C33.104 88.1959 33.1221 88.2453 33.1025 88.2869L32.361 89.8726C32.3515 89.8935 32.3339 89.909 32.3131 89.9164Z" fill="white"/>
<path d="M51.37 81.2645C51.3781 81.2871 47.7939 82.5627 43.3663 84.1133C38.9368 85.6645 35.3408 86.9029 35.333 86.8803C35.325 86.8577 38.9082 85.5824 43.3377 84.0315C47.7654 82.4809 51.3623 81.2419 51.37 81.2645Z" fill="#E0E0E0"/>
<path d="M42.9539 86.9817C42.9559 86.9873 42.8631 87.0257 42.6938 87.0906C42.5102 87.1587 42.2677 87.2486 41.9743 87.3572C41.3655 87.5786 40.5225 87.8791 39.5896 88.2055C38.6565 88.5323 37.8102 88.8236 37.1964 89.0301C36.8994 89.128 36.6539 89.2092 36.4676 89.2705C36.2951 89.3256 36.1987 89.3532 36.1966 89.3476C36.1945 89.3419 36.2873 89.3035 36.4563 89.2387C36.6399 89.1705 36.8824 89.0807 37.1758 88.9721C37.7846 88.7507 38.6276 88.4501 39.5608 88.1234C40.4936 87.7967 41.3399 87.5057 41.9538 87.2989C42.2507 87.201 42.4962 87.1197 42.6825 87.0584C42.8554 87.0037 42.9518 86.976 42.9539 86.9817Z" fill="#E0E0E0"/>
<path d="M51.7529 82.3582C51.7609 82.3808 48.1768 83.6565 43.7488 85.2071C39.3193 86.7582 35.7233 87.9967 35.7156 87.9741C35.7076 87.9514 39.2908 86.6761 43.7202 85.1252C48.1482 83.5743 51.7449 82.3356 51.7529 82.3582Z" fill="#E0E0E0"/>
<path d="M19.9619 56.9241L20.6903 59.0043C21.1132 60.2115 22.4343 60.8474 23.6415 60.4246L38.9058 55.0795C40.113 54.6567 40.7489 53.3355 40.326 52.1286L39.5991 50.0522L19.9619 56.9241Z" fill="#E0E0E0"/>
<path d="M29.9834 54.1041C28.8533 54.4998 27.6122 53.9023 27.2164 52.7725C26.8207 51.6424 27.4182 50.4012 28.5483 50.0055C29.6784 49.6097 30.9196 50.2072 31.3153 51.3374C31.7111 52.4672 31.1136 53.7083 29.9834 54.1041ZM28.8235 50.7913C28.127 51.0353 27.7586 51.8007 28.0026 52.4973C28.2466 53.1938 29.0116 53.5622 29.7085 53.3182C30.4051 53.0742 30.7735 52.3092 30.5295 51.6126C30.2852 50.9157 29.5201 50.5473 28.8235 50.7913Z" fill="#E0E0E0"/>
<path d="M42.1844 59.5003C42.1984 59.5399 38.1736 60.9852 33.1961 62.7283C28.217 64.472 24.1705 65.853 24.1568 65.8134C24.1428 65.7738 28.1667 64.3288 33.1461 62.5851C38.1233 60.842 42.1705 59.4608 42.1844 59.5003Z" fill="#E0E0E0"/>
<path d="M37.0295 60.2406C37.0434 60.2802 35.2715 60.9366 33.0725 61.7064C30.8729 62.4768 29.079 63.0689 29.0653 63.0294C29.0513 62.9898 30.823 62.3337 33.0225 61.5633C35.2215 60.7932 37.0158 60.2011 37.0295 60.2406Z" fill="#E0E0E0"/>
<path d="M116.332 120.536C117.401 119.984 118.659 119.913 119.846 120.109C120.483 120.214 121.147 120.405 121.581 120.884C122.015 121.362 122.097 122.205 121.599 122.616C121.303 122.861 120.889 122.898 120.505 122.894C119.576 122.883 118.545 122.72 117.803 123.278C117.38 123.597 117.098 124.127 116.592 124.284C116.097 124.438 115.538 124.146 115.276 123.698C115.013 123.251 115.004 122.693 115.127 122.189C115.127 122.189 115.255 121.091 116.332 120.536Z" fill="#FF725E"/>
<path d="M113.883 115.809C114.537 116.743 115.807 116.434 116.396 115.864C116.985 115.294 117.234 114.469 117.46 113.681C117.978 111.882 118.5 109.995 118.115 108.163C118 107.615 117.795 107.069 117.41 106.663C117.026 106.256 116.433 106.015 115.892 106.158C115.252 106.327 114.854 106.954 114.566 107.551C113.721 109.305 113.273 111.249 113.266 113.196C113.263 114.105 113.37 115.059 113.883 115.809Z" fill="#FF725E"/>
<path d="M112.089 117.149C112.798 116.307 112.933 115.078 112.617 114.023C112.302 112.969 111.588 112.071 110.766 111.338C109.802 110.479 108.669 109.811 107.452 109.382C106.972 109.214 106.467 109.081 105.961 109.129C105.455 109.177 104.946 109.436 104.71 109.886C104.361 110.551 104.696 111.358 105.057 112.017C105.695 113.177 106.423 114.286 107.234 115.332C107.887 116.173 108.634 117.003 109.629 117.383C110.623 117.764 111.656 117.719 112.183 117.029" fill="#FF725E"/>
<path d="M113.839 129.889C113.852 129.889 113.872 129.738 113.899 129.465C113.929 129.156 113.966 128.768 114.011 128.307C114.065 127.82 114.136 127.241 114.272 126.61C114.407 125.98 114.618 125.298 114.889 124.606C115.17 123.918 115.512 123.293 115.912 122.793C116.309 122.29 116.772 121.927 117.206 121.717C117.639 121.503 118.027 121.417 118.295 121.378C118.566 121.35 118.717 121.329 118.717 121.317C118.717 121.305 118.566 121.303 118.288 121.311C118.012 121.329 117.608 121.399 117.152 121.606C116.694 121.809 116.204 122.178 115.787 122.691C115.367 123.201 115.012 123.84 114.726 124.541C114.451 125.245 114.243 125.934 114.114 126.577C113.985 127.219 113.927 127.805 113.888 128.296C113.851 128.788 113.838 129.186 113.831 129.461C113.824 129.736 113.827 129.888 113.839 129.889Z" fill="#263238"/>
<path d="M113.919 128.998C113.925 128.998 113.929 128.93 113.93 128.801C113.93 128.653 113.929 128.467 113.929 128.238C113.927 127.75 113.928 127.043 113.954 126.17C113.997 124.425 114.147 122.546 114.438 119.898C114.713 117.408 115.082 114.51 115.471 112.626C115.554 112.197 115.638 111.811 115.718 111.474C115.793 111.135 115.857 110.843 115.92 110.607C115.973 110.385 116.017 110.204 116.051 110.06C116.079 109.935 116.091 109.868 116.086 109.866C116.08 109.864 116.056 109.928 116.017 110.051C115.974 110.192 115.92 110.371 115.854 110.59C115.781 110.824 115.707 111.114 115.622 111.451C115.534 111.787 115.441 112.172 115.35 112.6C114.964 114.307 114.557 116.693 114.264 119.348C113.973 122.002 113.842 124.418 113.83 126.168C113.82 127.043 113.838 127.751 113.861 128.24C113.875 128.469 113.886 128.655 113.895 128.802C113.905 128.931 113.913 128.998 113.919 128.998Z" fill="#263238"/>
<path d="M113.931 124.337C113.943 124.337 113.941 124.128 113.927 123.749C113.905 123.371 113.853 122.825 113.747 122.157C113.634 121.49 113.476 120.697 113.228 119.836C113.121 119.443 112.869 118.5 112.258 117.09C111.453 115.181 110.36 113.62 109.408 112.653C109.185 112.397 108.937 112.212 108.738 112.03C108.635 111.943 108.544 111.856 108.452 111.788C108.359 111.723 108.272 111.664 108.192 111.609C107.879 111.394 107.703 111.282 107.697 111.292C107.669 111.33 108.398 111.759 109.319 112.739C110.236 113.716 111.299 115.266 112.097 117.16C112.543 118.187 112.853 119.103 113.073 119.88C113.328 120.733 113.497 121.517 113.624 122.178C113.746 122.84 113.816 123.381 113.858 123.755C113.894 124.13 113.919 124.338 113.931 124.337Z" fill="#263238"/>
<path d="M109.426 132.559L109.893 138.956H118.112L118.579 132.559H109.426Z" fill="#263238"/>
<path d="M119.56 130.037H108.632V132.559H119.56V130.037Z" fill="#263238"/>
<path d="M108.632 138.712V139.411H109.145H119.379V138.712H108.632Z" fill="#455A64"/>
<path d="M109.649 140.641L109.145 139.411H118.988L118.401 140.641H109.649Z" fill="#455A64"/>
<path d="M118.427 134.65C118.428 134.651 118.415 134.671 118.388 134.708C118.355 134.751 118.315 134.805 118.265 134.871C118.149 135.02 117.988 135.226 117.786 135.484L117.765 135.511L117.745 135.482C117.443 135.066 117.041 134.51 116.568 133.855H116.636C116.286 134.351 115.896 134.903 115.478 135.495L115.441 135.547L115.401 135.498C114.973 134.99 114.509 134.437 114.027 133.864L114.106 133.863C114.082 133.893 114.057 133.926 114.031 133.958C113.605 134.492 113.192 135.009 112.802 135.498L112.761 135.549L112.723 135.495C112.307 134.905 111.917 134.354 111.565 133.856L111.632 133.859C111.061 134.51 110.577 135.062 110.205 135.485L110.18 135.514L110.16 135.482C109.972 135.165 109.822 134.913 109.713 134.731C109.667 134.649 109.629 134.583 109.599 134.531C109.574 134.485 109.562 134.461 109.564 134.459C109.566 134.458 109.582 134.48 109.612 134.523C109.645 134.573 109.687 134.637 109.738 134.715C109.852 134.894 110.01 135.142 110.207 135.452L110.163 135.448C110.528 135.02 111.005 134.461 111.567 133.803L111.602 133.761L111.634 133.806C111.99 134.302 112.383 134.851 112.804 135.438L112.725 135.436C113.114 134.946 113.525 134.429 113.95 133.894C113.976 133.862 114.002 133.829 114.026 133.799L114.065 133.75L114.105 133.798C114.586 134.372 115.049 134.926 115.475 135.435L115.398 135.438C115.821 134.849 116.214 134.3 116.568 133.807L116.602 133.759L116.636 133.807C117.099 134.469 117.492 135.031 117.787 135.451L117.745 135.45C117.955 135.199 118.122 134.999 118.243 134.853C118.297 134.791 118.341 134.74 118.377 134.699C118.408 134.665 118.425 134.648 118.427 134.65Z" fill="#E0E0E0"/>
<path d="M118.694 132.517C118.694 132.545 116.634 132.568 114.094 132.568C111.554 132.568 109.494 132.545 109.494 132.517C109.494 132.488 111.554 132.465 114.094 132.465C116.634 132.465 118.694 132.488 118.694 132.517Z" fill="#455A64"/>
<path d="M119.109 139.48C119.109 139.508 116.871 139.531 114.11 139.531C111.349 139.531 109.111 139.508 109.111 139.48C109.111 139.452 111.349 139.429 114.11 139.429C116.871 139.429 119.109 139.452 119.109 139.48Z" fill="#263238"/>
<path d="M38.0277 119.068C38.0051 119.096 37.8176 118.983 37.6087 118.816C37.3998 118.649 37.2487 118.491 37.271 118.462C37.2936 118.434 37.4811 118.547 37.6899 118.714C37.8988 118.882 38.05 119.04 38.0277 119.068Z" fill="#263238"/>
<path d="M43.7279 110.548C43.7624 109.752 43.7847 108.935 43.5335 108.179C43.2821 107.423 42.6992 106.728 41.919 106.566C41.0287 106.382 40.1161 106.944 39.6171 107.704C39.1181 108.464 38.9464 109.387 38.7991 110.284C37.7835 116.468 37.4086 122.756 37.682 129.016L41.326 129.527C42.9265 122.989 43.4371 117.273 43.7279 110.548Z" fill="#455A64"/>
<path d="M41.413 106.538C41.4151 106.539 41.4094 106.559 41.3966 106.596C41.3805 106.641 41.3606 106.695 41.3365 106.761C41.277 106.915 41.1961 107.125 41.0937 107.391C41.0428 107.528 40.9753 107.676 40.9208 107.846C40.8664 108.016 40.8071 108.2 40.7441 108.398C40.6801 108.596 40.6119 108.808 40.5396 109.031C40.4801 109.26 40.4173 109.501 40.3516 109.754C40.0766 110.764 39.8487 111.991 39.6479 113.36C39.4506 114.73 39.3214 116.248 39.2197 117.843C39.0334 121.035 39.0042 123.933 38.9221 126.029C38.8831 127.077 38.8474 127.925 38.8072 128.51C38.7879 128.794 38.7727 129.019 38.7614 129.184C38.7555 129.254 38.7504 129.312 38.7462 129.359C38.7421 129.398 38.7388 129.418 38.7367 129.418C38.7346 129.418 38.7332 129.398 38.7332 129.358C38.7337 129.311 38.7343 129.253 38.7355 129.182C38.7406 129.017 38.7477 128.792 38.7567 128.508C38.7811 127.922 38.8031 127.074 38.8302 126.026C38.8888 123.931 38.9031 121.033 39.0899 117.835C39.1917 116.238 39.325 114.717 39.5294 113.343C39.7374 111.971 39.9758 110.741 40.2629 109.73C40.3319 109.477 40.398 109.236 40.4605 109.008C40.5364 108.784 40.6078 108.573 40.675 108.375C40.742 108.178 40.8048 107.995 40.8625 107.825C40.9205 107.656 40.9916 107.508 41.0464 107.372C41.1586 107.11 41.2472 106.903 41.3124 106.751C41.3413 106.687 41.3651 106.634 41.3844 106.591C41.4014 106.555 41.4109 106.537 41.413 106.538Z" fill="#263238"/>
<path d="M41.7508 106.541C41.7508 106.541 41.9743 106.77 42.196 107.294C42.4254 107.814 42.5691 108.642 42.5284 109.652C42.4317 111.665 42.2513 114.44 42.0115 117.503C41.7705 120.567 41.5036 123.336 41.2884 125.338C41.181 126.339 41.0879 127.149 41.0191 127.707C40.9843 127.978 40.957 128.192 40.9364 128.35C40.9266 128.417 40.9183 128.472 40.9117 128.517C40.9055 128.555 40.901 128.574 40.8989 128.574C40.8969 128.573 40.8966 128.554 40.8986 128.516C40.9019 128.47 40.9058 128.415 40.9105 128.348C40.9248 128.189 40.9445 127.974 40.9689 127.702C41.0239 127.13 41.1013 126.322 41.1968 125.329C41.3884 123.325 41.6407 120.556 41.8815 117.493C42.121 114.432 42.3159 111.656 42.4361 109.649C42.4879 108.646 42.3603 107.832 42.149 107.313C41.9449 106.79 41.7348 106.55 41.7508 106.541Z" fill="#263238"/>
<path d="M44.2771 115.971C44.2649 116.005 43.9557 115.925 43.5864 115.792C43.2172 115.66 42.9276 115.525 42.9398 115.491C42.952 115.457 43.2612 115.537 43.6305 115.67C43.9997 115.802 44.2893 115.937 44.2771 115.971Z" fill="#263238"/>
<path d="M44.716 112.257C44.7305 112.29 44.4365 112.454 44.0589 112.623C43.6813 112.792 43.3635 112.902 43.3487 112.869C43.3341 112.836 43.6281 112.673 44.0057 112.504C44.3833 112.335 44.7014 112.224 44.716 112.257Z" fill="#263238"/>
<path d="M44.4884 109.226C44.486 109.262 44.2426 109.274 43.9451 109.254C43.6475 109.233 43.4083 109.188 43.4107 109.152C43.413 109.116 43.6564 109.104 43.954 109.124C44.2519 109.145 44.4911 109.19 44.4884 109.226Z" fill="#263238"/>
<path d="M40.728 107.284C40.6977 107.303 40.5379 107.104 40.3716 106.84C40.2052 106.576 40.0948 106.346 40.1255 106.327C40.1558 106.308 40.3153 106.507 40.4819 106.771C40.6483 107.035 40.7584 107.265 40.728 107.284Z" fill="#263238"/>
<path d="M39.4858 109.117C39.485 109.153 39.2535 109.177 38.9684 109.171C38.6833 109.165 38.4527 109.131 38.4536 109.095C38.4545 109.059 38.686 109.035 38.9711 109.041C39.2561 109.047 39.4864 109.081 39.4858 109.117Z" fill="#263238"/>
<path d="M38.5934 112.784C38.58 112.817 38.336 112.75 38.0489 112.635C37.7614 112.519 37.5394 112.398 37.5528 112.365C37.5662 112.331 37.8099 112.398 38.0974 112.514C38.3848 112.63 38.6068 112.751 38.5934 112.784Z" fill="#263238"/>
<path d="M38.4981 115.868C38.5056 115.903 38.2979 115.977 38.0345 116.032C37.7709 116.087 37.5516 116.104 37.5441 116.068C37.5367 116.033 37.7444 115.96 38.0077 115.904C38.2711 115.849 38.4907 115.833 38.4981 115.868Z" fill="#263238"/>
<path d="M38.0784 120.913C38.0847 120.948 37.8645 121.017 37.5863 121.067C37.308 121.117 37.0774 121.129 37.0712 121.093C37.0649 121.058 37.2851 120.989 37.5633 120.939C37.8416 120.889 38.0722 120.877 38.0784 120.913Z" fill="#263238"/>
<path d="M37.7995 123.698C37.8162 123.729 37.6326 123.859 37.3892 123.988C37.1458 124.117 36.9348 124.196 36.9178 124.164C36.9009 124.132 37.0848 124.002 37.3282 123.873C37.5716 123.744 37.7828 123.666 37.7995 123.698Z" fill="#263238"/>
<path d="M40.0734 126.858C40.0421 126.876 39.882 126.655 39.7157 126.364C39.5494 126.074 39.4399 125.824 39.4708 125.806C39.5021 125.788 39.6621 126.009 39.8285 126.299C39.9951 126.59 40.1046 126.84 40.0734 126.858Z" fill="#263238"/>
<path d="M40.7297 121.606C40.755 121.631 40.5764 121.847 40.3312 122.087C40.086 122.328 39.8667 122.502 39.8417 122.476C39.8165 122.451 39.995 122.235 40.2402 121.994C40.4854 121.754 40.7047 121.58 40.7297 121.606Z" fill="#263238"/>
<path d="M40.5845 118.85C40.558 118.874 40.3925 118.739 40.2149 118.547C40.037 118.355 39.9144 118.18 39.9409 118.155C39.9673 118.131 40.1328 118.266 40.3104 118.458C40.4881 118.65 40.611 118.826 40.5845 118.85Z" fill="#263238"/>
<path d="M41.0355 115.328C41.0623 115.353 40.9135 115.562 40.7034 115.797C40.4931 116.031 40.3011 116.202 40.2744 116.178C40.2476 116.154 40.3964 115.944 40.6064 115.71C40.8165 115.475 41.0087 115.304 41.0355 115.328Z" fill="#263238"/>
<path d="M41.2892 112.773C41.2639 112.799 41.0565 112.636 40.8259 112.409C40.595 112.182 40.4287 111.977 40.4537 111.952C40.479 111.926 40.6863 112.089 40.917 112.316C41.1479 112.543 41.3145 112.747 41.2892 112.773Z" fill="#263238"/>
<path d="M41.7883 109.319C41.8192 109.337 41.7151 109.569 41.5556 109.836C41.3961 110.103 41.242 110.305 41.211 110.286C41.1801 110.268 41.2842 110.036 41.4437 109.769C41.6032 109.502 41.7573 109.3 41.7883 109.319Z" fill="#263238"/>
<path d="M42.7269 106.117C42.7584 106.134 42.6665 106.366 42.5212 106.635C42.376 106.904 42.2326 107.108 42.2008 107.091C42.1692 107.074 42.2612 106.842 42.4067 106.573C42.5519 106.304 42.6953 106.1 42.7269 106.117Z" fill="#263238"/>
<path d="M43.7914 107.571C43.8069 107.603 43.6611 107.705 43.4659 107.799C43.2707 107.892 43.0996 107.942 43.0841 107.909C43.0687 107.877 43.2145 107.775 43.4097 107.681C43.6052 107.588 43.776 107.539 43.7914 107.571Z" fill="#263238"/>
<path d="M43.817 119.068C43.8099 119.102 43.4793 119.057 43.1044 118.896C42.7283 118.736 42.467 118.529 42.4864 118.501C42.5066 118.469 42.7914 118.622 43.1553 118.776C43.5186 118.932 43.8257 119.032 43.817 119.068Z" fill="#263238"/>
<path d="M43.382 121.503C43.3888 121.538 43.1692 121.61 42.8919 121.664C42.6143 121.717 42.3837 121.732 42.3771 121.697C42.3703 121.662 42.5899 121.59 42.8672 121.536C43.1445 121.483 43.3751 121.468 43.382 121.503Z" fill="#263238"/>
<path d="M42.847 125.679C42.8259 125.706 42.5474 125.515 42.2921 125.192C42.035 124.869 41.913 124.555 41.9443 124.54C41.9779 124.523 42.1466 124.801 42.3942 125.111C42.6396 125.422 42.8714 125.65 42.847 125.679Z" fill="#263238"/>
<path d="M36.9899 127.588C36.9667 127.561 37.1146 127.396 37.3205 127.22C37.5264 127.044 37.7124 126.923 37.7359 126.95C37.7591 126.977 37.6113 127.142 37.4053 127.318C37.1994 127.495 37.0135 127.615 36.9899 127.588Z" fill="#263238"/>
<path d="M35.3059 118.475C35.0687 117.734 34.6236 116.871 33.846 116.86C33.3845 116.853 32.9697 117.184 32.7528 117.592C32.5359 117.999 32.4439 118.471 32.4573 118.932C32.5463 121.979 33.0742 125.464 34.1284 128.638H36.9734C36.9374 125.112 36.381 121.833 35.3059 118.475Z" fill="#455A64"/>
<path d="M30.1604 113.813C29.7628 112.223 28.5765 111.363 27.1985 111.284C25.941 111.504 25.4533 112.742 25.3039 114.01C25.1545 115.278 25.5482 116.54 25.9371 117.756C27.1854 121.661 28.4339 125.565 29.6822 129.47C30.862 129.341 32.0418 129.212 33.2217 129.083C32.1014 123.852 31.458 119.003 30.1604 113.813Z" fill="#455A64"/>
<path d="M33.8459 116.86C33.8581 116.869 33.7293 116.988 33.6049 117.262C33.4817 117.539 33.4225 117.979 33.4719 118.52C33.527 119.061 33.5888 119.712 33.6796 120.426C33.7724 121.141 33.901 121.924 34.0611 122.741C34.3827 124.375 34.7452 125.842 34.9752 126.911C35.0918 127.445 35.1796 127.879 35.2353 128.18C35.2588 128.318 35.2784 128.433 35.2948 128.527C35.307 128.607 35.3111 128.649 35.3067 128.65C35.3022 128.651 35.2894 128.611 35.2689 128.533C35.2463 128.44 35.2189 128.327 35.1856 128.191C35.11 127.874 35.0085 127.449 34.8853 126.932C34.6324 125.869 34.2557 124.406 33.9331 122.766C33.7727 121.947 33.6472 121.16 33.5606 120.441C33.5154 120.082 33.4853 119.739 33.4561 119.419C33.43 119.1 33.3951 118.802 33.38 118.527C33.3413 117.978 33.4166 117.52 33.5588 117.242C33.7025 116.963 33.8459 116.86 33.8459 116.86Z" fill="#263238"/>
<path d="M27.2502 111.183C27.2624 111.194 27.0618 111.363 26.8226 111.758C26.5839 112.149 26.3307 112.786 26.284 113.61C26.2298 114.434 26.4134 115.411 26.722 116.459C27.0329 117.513 27.3739 118.669 27.7319 119.882C28.4377 122.308 29.0766 124.504 29.5434 126.109C29.7663 126.898 29.9481 127.54 30.0782 128.001C30.1359 128.215 30.182 128.387 30.2171 128.517C30.2475 128.635 30.2615 128.698 30.257 128.699C30.2525 128.7 30.2305 128.64 30.1918 128.524C30.1508 128.395 30.0969 128.226 30.0294 128.015C29.8895 127.557 29.6943 126.919 29.4551 126.135C28.9787 124.533 28.327 122.341 27.6069 119.919C27.2522 118.704 26.9145 117.547 26.6065 116.492C26.303 115.438 26.1251 114.443 26.192 113.604C26.2515 112.765 26.5238 112.12 26.7797 111.731C27.0362 111.338 27.2502 111.183 27.2502 111.183Z" fill="#263238"/>
<path d="M32.45 128.705C32.4458 128.707 32.4184 128.649 32.3699 128.536C32.3235 128.422 32.2482 128.257 32.1682 128.038C31.9995 127.603 31.7832 126.962 31.5594 126.158C31.3344 125.355 31.1133 124.385 30.8997 123.304C30.6947 122.22 30.4694 121.031 30.2332 119.783C29.9871 118.537 29.713 117.358 29.3949 116.306C29.0777 115.254 28.7219 114.328 28.363 113.579C28.0059 112.828 27.6649 112.247 27.4087 111.859C27.287 111.661 27.1763 111.518 27.1106 111.414C27.0421 111.312 27.0079 111.258 27.0115 111.255C27.0151 111.252 27.0564 111.302 27.1317 111.399C27.2046 111.497 27.3221 111.636 27.4507 111.831C27.7206 112.212 28.0762 112.789 28.4457 113.539C28.8174 114.287 29.1843 115.216 29.5095 116.271C29.8356 117.326 30.1141 118.509 30.3608 119.758C30.5935 121.007 30.8152 122.197 31.0172 123.281C31.224 124.362 31.4353 125.33 31.6481 126.134C31.8596 126.939 32.0617 127.582 32.2155 128.021C32.2878 128.242 32.3554 128.41 32.3937 128.526C32.4348 128.642 32.4542 128.704 32.45 128.705Z" fill="#263238"/>
<path d="M26.0005 117.172C26.0088 117.207 25.8166 117.284 25.5705 117.343C25.3244 117.403 25.1182 117.423 25.1099 117.388C25.1013 117.354 25.2938 117.277 25.5399 117.217C25.7857 117.157 25.9919 117.137 26.0005 117.172Z" fill="#263238"/>
<path d="M25.6254 114.756C25.6236 114.793 25.3561 114.808 25.0285 114.821C24.7006 114.833 24.433 114.84 24.4283 114.803C24.4235 114.768 24.6889 114.704 25.0234 114.691C25.3579 114.678 25.6275 114.721 25.6254 114.756Z" fill="#263238"/>
<path d="M26.0244 112.55C26.0012 112.578 25.809 112.453 25.595 112.272C25.3811 112.09 25.2267 111.921 25.2499 111.893C25.2731 111.866 25.4653 111.991 25.6792 112.173C25.8929 112.354 26.0476 112.523 26.0244 112.55Z" fill="#263238"/>
<path d="M27.104 110.508C27.1397 110.516 27.1299 110.688 27.1245 110.896C27.118 111.104 27.1177 111.276 27.0814 111.282C27.0469 111.289 26.9874 111.115 26.9942 110.892C27.0004 110.669 27.0698 110.499 27.104 110.508Z" fill="#263238"/>
<path d="M29.3103 111.47C29.3398 111.491 29.2532 111.665 29.1172 111.86C28.9809 112.054 28.8467 112.195 28.8173 112.175C28.7878 112.154 28.8741 111.98 29.0104 111.785C29.1467 111.59 29.2809 111.45 29.3103 111.47Z" fill="#263238"/>
<path d="M30.7422 113.958C30.7559 113.991 30.5726 114.097 30.3328 114.195C30.0933 114.293 29.8879 114.345 29.8743 114.312C29.8606 114.278 30.0439 114.172 30.2837 114.074C30.5232 113.977 30.7285 113.924 30.7422 113.958Z" fill="#263238"/>
<path d="M31.6108 116.517C31.6254 116.548 31.3826 116.687 31.0496 116.762C30.7169 116.838 30.4381 116.818 30.4375 116.783C30.436 116.746 30.7014 116.708 31.0207 116.635C31.3403 116.563 31.5962 116.483 31.6108 116.517Z" fill="#263238"/>
<path d="M27.6226 115.79C27.5884 115.779 27.613 115.603 27.6782 115.395C27.7431 115.188 27.8237 115.028 27.8579 115.039C27.8922 115.05 27.8675 115.227 27.8023 115.434C27.7374 115.641 27.6571 115.801 27.6226 115.79Z" fill="#263238"/>
<path d="M28.1789 119.003C28.1459 118.988 28.2176 118.75 28.339 118.471C28.4604 118.191 28.5854 117.976 28.6184 117.99C28.6515 118.005 28.5798 118.243 28.4584 118.522C28.3372 118.802 28.212 119.017 28.1789 119.003Z" fill="#263238"/>
<path d="M26.8048 119.883C26.7908 119.916 26.5665 119.855 26.2951 119.771C26.0237 119.686 25.8047 119.608 25.8125 119.572C25.8199 119.538 26.0565 119.559 26.3341 119.646C26.6114 119.733 26.8185 119.85 26.8048 119.883Z" fill="#263238"/>
<path d="M27.597 122.502C27.6179 122.532 27.4664 122.676 27.2584 122.824C27.0504 122.972 26.865 123.069 26.8442 123.04C26.8234 123.011 26.9748 122.867 27.1828 122.718C27.3908 122.57 27.5762 122.473 27.597 122.502Z" fill="#263238"/>
<path d="M28.2326 125.114C28.2413 125.149 28.0535 125.225 27.8137 125.283C27.5738 125.341 27.3724 125.36 27.3641 125.325C27.3554 125.291 27.5432 125.215 27.783 125.156C28.0226 125.098 28.224 125.079 28.2326 125.114Z" fill="#263238"/>
<path d="M31.6807 118.699C31.6988 118.729 31.5384 118.857 31.3049 118.945C31.0716 119.033 30.8666 119.043 30.8603 119.008C30.8532 118.972 31.0371 118.907 31.259 118.823C31.481 118.74 31.6622 118.667 31.6807 118.699Z" fill="#263238"/>
<path d="M32.1735 122.762C32.1584 122.794 31.967 122.737 31.7468 122.633C31.5263 122.529 31.3603 122.419 31.3755 122.386C31.3906 122.354 31.5817 122.412 31.8022 122.515C32.0227 122.619 32.189 122.73 32.1735 122.762Z" fill="#263238"/>
<path d="M33.0432 125.67C33.0301 125.703 32.7778 125.636 32.4796 125.519C32.1815 125.402 31.9506 125.28 31.9637 125.247C31.9768 125.213 32.2291 125.281 32.5272 125.398C32.8254 125.515 33.0563 125.637 33.0432 125.67Z" fill="#263238"/>
<path d="M28.3718 127.948C28.3542 127.915 28.5863 127.76 28.8544 127.548C29.1237 127.337 29.3302 127.149 29.3576 127.174C29.3841 127.196 29.2142 127.432 28.9348 127.65C28.6563 127.87 28.3876 127.979 28.3718 127.948Z" fill="#263238"/>
<path d="M30.6711 126.469C30.6343 126.473 30.5843 126.278 30.4953 126.051C30.4084 125.823 30.3141 125.645 30.3444 125.624C30.3718 125.602 30.5227 125.759 30.6167 126.004C30.7122 126.249 30.7057 126.467 30.6711 126.469Z" fill="#263238"/>
<path d="M30.0613 122.972C30.0402 123.001 29.8917 122.931 29.7296 122.814C29.5674 122.698 29.4528 122.58 29.4739 122.551C29.4948 122.521 29.6433 122.592 29.8057 122.709C29.9679 122.825 30.0825 122.943 30.0613 122.972Z" fill="#263238"/>
<path d="M35.4208 117.492C35.4423 117.521 35.2976 117.664 35.0977 117.811C34.8977 117.959 34.7186 118.055 34.6972 118.026C34.6757 117.997 34.8204 117.854 35.0203 117.706C35.2203 117.559 35.3997 117.463 35.4208 117.492Z" fill="#263238"/>
<path d="M36.2286 119.7C36.2319 119.735 36.0054 119.783 35.7251 119.752C35.4448 119.722 35.2336 119.627 35.2443 119.594C35.2547 119.558 35.4722 119.594 35.7391 119.622C36.0057 119.652 36.2259 119.664 36.2286 119.7Z" fill="#263238"/>
<path d="M32.7566 120.195C32.7643 120.229 32.5545 120.305 32.2838 120.322C32.0127 120.341 31.7949 120.294 31.7981 120.259C31.8008 120.223 32.0148 120.21 32.2751 120.192C32.5355 120.176 32.7488 120.159 32.7566 120.195Z" fill="#263238"/>
<path d="M33.0548 118.108C33.0521 118.142 32.8402 118.148 32.6084 118.04C32.3757 117.935 32.2421 117.77 32.2665 117.746C32.2915 117.718 32.451 117.826 32.6629 117.922C32.8733 118.02 33.0595 118.071 33.0548 118.108Z" fill="#263238"/>
<path d="M36.5267 122.07C36.5077 122.101 36.2904 121.999 36.042 121.842C35.7932 121.686 35.6075 121.534 35.6266 121.504C35.6456 121.474 35.8629 121.576 36.1113 121.732C36.3598 121.889 36.5458 122.04 36.5267 122.07Z" fill="#263238"/>
<path d="M44.9983 128.267H26.4749V131.55H44.9983V128.267Z" fill="#FF725E"/>
<path d="M27.8584 130.899L30.1106 140.71H41.1507L43.6151 130.899H27.8584Z" fill="#FF725E"/>
<path d="M44.9882 131.554C44.9882 131.59 40.8099 131.62 35.657 131.62C30.5024 131.62 26.325 131.59 26.325 131.554C26.325 131.518 30.5024 131.489 35.657 131.489C40.8099 131.489 44.9882 131.518 44.9882 131.554Z" fill="#263238"/>
<path d="M34.6868 120.267C34.6564 120.286 34.5297 120.138 34.4041 119.937C34.2785 119.736 34.2012 119.558 34.2318 119.539C34.2625 119.52 34.3889 119.667 34.5145 119.868C34.6401 120.07 34.7171 120.248 34.6868 120.267Z" fill="#263238"/>
<path d="M34.6936 122.908C34.6594 122.897 34.7028 122.674 34.7906 122.41C34.8784 122.146 34.9772 121.941 35.0111 121.953C35.0453 121.964 35.0018 122.187 34.9141 122.451C34.8263 122.715 34.7275 122.92 34.6936 122.908Z" fill="#263238"/>
<path d="M35.5975 125.682C35.5651 125.697 35.4267 125.475 35.2883 125.186C35.15 124.897 35.0643 124.651 35.0967 124.635C35.1291 124.62 35.2675 124.841 35.4059 125.13C35.5442 125.419 35.6299 125.666 35.5975 125.682Z" fill="#263238"/>
<path d="M33.641 127.913C33.614 127.889 33.7244 127.717 33.888 127.529C34.0514 127.34 34.2061 127.207 34.2332 127.23C34.2603 127.254 34.1499 127.425 33.9862 127.614C33.8229 127.802 33.6684 127.936 33.641 127.913Z" fill="#263238"/>
<path d="M33.2304 123.862C33.2241 123.897 33.0459 123.895 32.8322 123.858C32.6186 123.82 32.4505 123.761 32.4567 123.725C32.463 123.69 32.6412 123.691 32.8548 123.729C33.0685 123.767 33.2366 123.826 33.2304 123.862Z" fill="#263238"/>
<path d="M97.674 105.704H53.7476V140.733H97.674V105.704Z" fill="#E0E0E0"/>
<g opacity="0.3">
<path d="M56.9478 105.778C62.1193 107.623 67.8236 108.016 73.3737 108.12C74.5228 108.142 75.6869 108.14 76.7992 108.43C77.9114 108.72 78.988 109.344 79.5593 110.341C80.1812 111.427 80.1149 112.787 79.762 113.987C79.4091 115.188 78.7973 116.295 78.3551 117.465C77.5794 119.519 77.3384 121.773 77.6621 123.945C77.7996 124.867 78.0468 125.797 78.5801 126.562C79.1133 127.328 79.9727 127.911 80.9055 127.924C82.5748 127.948 83.718 126.307 84.5459 124.857C87.9404 118.91 91.6132 112.149 93.7854 105.655L56.9478 105.778Z" fill="black"/>
</g>
<path d="M68.7146 140.546C68.6717 140.546 68.6372 132.782 68.6372 123.207C68.6372 113.628 68.672 105.866 68.7146 105.866C68.7574 105.866 68.7919 113.628 68.7919 123.207C68.7919 132.782 68.7571 140.546 68.7146 140.546Z" fill="#455A64"/>
<path d="M86.7144 79.8172C86.5837 78.9438 83.9729 76.0554 83.9729 76.0554C83.9729 76.0554 82.6676 70.816 82.276 69.271C82.1781 68.8848 81.9683 68.4462 81.7082 68.0055C80.7971 66.46 79.461 65.2085 77.8971 64.3292L74.2841 62.2974L73.4194 60.3737L64.7381 55.9136L62.3844 60.066C62.3844 60.066 56.6682 61.8826 55.9118 63.1803C55.1552 64.4779 56.2871 81.8665 56.2871 81.8665C56.2871 81.8665 53.8947 91.9017 53.39 93.9777C52.8857 96.0538 53.5525 98.5316 53.5525 98.5316L57.81 93.1883C59.1326 91.5282 62.0377 90.7653 64.1233 90.7948L81.9504 90.8733L81.2413 85.88L95.6558 88.6833C95.6558 88.6833 98.1359 83.8467 98.3317 83.7494C98.5278 83.6527 86.7144 79.8172 86.7144 79.8172Z" fill="#FF725E"/>
<path d="M64.3676 61.6984C64.2424 61.5711 65.3752 65.3959 66.7966 69.2912C67.5625 71.3899 67.9464 73.616 67.9464 75.8578V84.4335V89.9615L76.4944 89.381L75.2164 80.0903C75.2164 80.0903 74.1743 74.0968 73.8827 71.8178C73.6155 69.7307 72.6975 64.0712 72.6975 64.0712C72.6975 64.0712 67.9467 65.3432 64.3676 61.6984Z" fill="white"/>
<path d="M83.3349 83.3217C83.3251 83.3208 83.3218 83.2441 83.3343 83.1066C83.3462 82.9691 83.3789 82.7706 83.4468 82.532C83.5786 82.0565 83.883 81.4152 84.4237 80.8734C84.9643 80.3312 85.6053 80.0256 86.0805 79.8929C86.3191 79.8248 86.5173 79.7918 86.6548 79.7793C86.7925 79.7668 86.869 79.7697 86.8699 79.7796C86.8735 79.806 86.5703 79.8382 86.1138 79.9974C85.6594 80.1533 85.0524 80.4628 84.5335 80.9829C84.0145 81.5027 83.7063 82.1103 83.5515 82.565C83.3932 83.0221 83.3614 83.3253 83.3349 83.3217Z" fill="#263238"/>
<path d="M83.7754 79.9375C83.7566 79.9036 84.3184 79.6194 85.0802 79.5596C85.8419 79.4941 86.4424 79.6828 86.4293 79.7191C86.4204 79.7652 85.8258 79.65 85.0927 79.714C84.3598 79.7709 83.792 79.9818 83.7754 79.9375Z" fill="#263238"/>
<g opacity="0.3">
<path d="M55.4257 87.6333L54.6838 88.4745C55.4786 89.3987 56.5115 90.1745 57.6954 90.4658C58.8791 90.7571 60.1095 90.7916 61.3286 90.7946C61.8223 90.7958 62.3237 90.7913 62.798 90.6547C63.2815 90.5155 63.7326 90.2405 64.2349 90.2105C64.5712 90.1902 64.9026 90.2825 65.232 90.353C65.5614 90.4238 65.9102 90.4726 66.231 90.3691C66.5517 90.2655 66.8323 89.9683 66.8124 89.632C63.1054 88.551 59.2791 87.8791 55.4257 87.6333Z" fill="black"/>
</g>
<path d="M79.8261 88.7123L77.7289 86.4848L73.4149 85.3931C73.4149 85.3931 69.4615 86.5774 69.3669 86.5741C69.2723 86.5708 65.9262 85.66 65.9262 85.66L64.7571 89.949L70.7833 90.3617L77.664 90.0862C77.664 90.0862 78.0229 89.752 77.8101 89.5235C77.5974 89.2953 78.9605 89.9097 79.1209 89.9172C79.2783 89.9243 79.5925 90.0478 79.805 89.7907C79.9499 89.6157 80.1469 89.0528 79.8261 88.7123Z" fill="#FFBE9D"/>
<path d="M77.8103 89.5238C77.8023 89.545 77.5428 89.4614 77.1247 89.3287C76.7066 89.1959 76.1279 89.0186 75.4807 88.8526C74.8332 88.6871 74.2402 88.5642 73.8102 88.4779C73.3799 88.3919 73.113 88.3381 73.116 88.3161C73.1187 88.2958 73.3912 88.3113 73.8283 88.3699C74.2652 88.4288 74.8662 88.5357 75.5191 88.7023C76.1716 88.8695 76.7501 89.065 77.161 89.2251C77.5723 89.3855 77.8177 89.5051 77.8103 89.5238Z" fill="#EB996E"/>
<path d="M79.8261 88.7123C79.8175 88.7338 79.4568 88.5996 78.8692 88.4035C78.2818 88.2053 77.4611 87.9628 76.5485 87.7081C75.6368 87.437 74.825 87.1662 74.2094 87.1302C73.5961 87.0781 73.2221 87.1992 73.2161 87.1692C73.2137 87.1606 73.3033 87.1231 73.4744 87.082C73.6452 87.0406 73.9005 87.01 74.2156 87.0207C74.8515 87.0296 75.6882 87.2909 76.5904 87.5587C77.5037 87.8137 78.3249 88.0744 78.9058 88.3002C79.1968 88.4115 79.4286 88.5106 79.5869 88.5835C79.7452 88.6561 79.8303 88.7025 79.8261 88.7123Z" fill="#EB996E"/>
<path d="M55.9121 63.1807C55.9121 63.1807 52.802 65.3433 52.0453 68.4576C51.2889 71.5719 48.0104 84.289 48.6829 86.1922C49.3553 88.0954 62.4319 89.9617 62.4319 89.9617L63.9813 83.424L57.3407 81.6074C57.3407 81.6074 57.4249 75.5517 57.5088 73.043C57.5927 70.5343 55.9121 63.1807 55.9121 63.1807Z" fill="#FF725E"/>
<path d="M63.8948 84.3989L66.0349 84.9259L64.7476 89.8603L62.6448 89.5238L63.8948 84.3989Z" fill="white"/>
<path d="M48.6337 85.5191C48.6447 85.5191 48.6274 85.628 48.6655 85.8271C48.7078 86.0232 48.8345 86.3079 49.1214 86.5695C49.6897 87.0986 50.7746 87.5392 52.1511 87.7868L52.1556 87.7877L52.1609 87.7895C52.79 87.996 53.5062 88.1603 54.2724 88.3337C55.0401 88.5054 55.8635 88.681 56.7335 88.858C58.4734 89.2139 60.3986 89.5879 62.4384 89.9697L62.3497 90.0271C62.4973 89.4207 62.6535 88.7795 62.8121 88.1296C63.179 86.6293 63.5343 85.176 63.8714 83.7983L63.9238 83.8879C61.7275 83.2609 59.7234 82.689 58.0217 82.2031L58.0184 82.2022L58.0151 82.2007C57.1141 81.8317 56.2179 81.697 55.4409 81.7499C54.6604 81.7856 54.0061 81.9945 53.4982 82.2061C52.9893 82.4242 52.6251 82.6608 52.382 82.8244C52.2695 82.9065 52.1803 82.9714 52.1118 83.0214C52.0505 83.0657 52.0181 83.0872 52.016 83.0848C52.0139 83.0824 52.0428 83.0562 52.1005 83.0071C52.1592 82.9592 52.2437 82.8842 52.3615 82.7953C52.5992 82.6215 52.9605 82.3733 53.4711 82.1433C53.9808 81.9198 54.6417 81.6981 55.4353 81.6529C56.225 81.5901 57.1403 81.719 58.0616 82.0888L58.055 82.0865C59.7591 82.5643 61.7656 83.127 63.9648 83.7436L64.0342 83.7629L64.0172 83.8331C63.6819 85.2114 63.3284 86.665 62.9633 88.1659C62.8047 88.8158 62.6478 89.457 62.5 90.0632L62.4827 90.134L62.4113 90.1206C60.3706 89.7364 58.4463 89.3567 56.7068 88.9925C55.8367 88.8113 55.0139 88.6307 54.2459 88.4537C53.4785 88.2742 52.7659 88.1052 52.1258 87.888L52.1353 87.8904C50.744 87.6255 49.6558 87.167 49.0824 86.6106C48.794 86.3356 48.6703 86.0351 48.6369 85.8324C48.6072 85.6265 48.6337 85.5191 48.6337 85.5191Z" fill="#263238"/>
<path d="M57.6995 82.0406C57.6813 82.0602 57.4596 81.857 57.0606 81.5898C56.6631 81.3219 56.0739 81.0074 55.372 80.8015C54.6691 80.5983 54.0032 80.5474 53.5238 80.5599C53.0438 80.5712 52.7478 80.6236 52.7427 80.5974C52.7388 80.5819 53.0296 80.4906 53.5185 80.4507C54.0056 80.4096 54.6932 80.4441 55.4151 80.653C56.1361 80.8646 56.7348 81.2044 57.1237 81.5008C57.515 81.7966 57.7111 82.0298 57.6995 82.0406Z" fill="#263238"/>
<path d="M58.5703 71.3887C58.581 71.3893 58.5819 71.5312 58.5747 71.7874C58.5691 72.0439 58.5468 72.4141 58.5119 72.8714C58.4387 73.7852 58.3025 75.0457 58.0635 76.4249C57.829 77.805 57.5291 79.0404 57.2387 79.9129C57.1658 80.1307 57.0908 80.3253 57.0265 80.4958C56.9557 80.6556 56.8926 80.7978 56.8364 80.9243C56.7138 81.1513 56.6421 81.2736 56.6329 81.2683C56.6236 81.2632 56.6772 81.1314 56.7816 80.8996C56.8301 80.7713 56.8846 80.627 56.9456 80.4651C57.0015 80.2929 57.0685 80.0977 57.1342 79.8795C57.3958 79.0056 57.6773 77.7737 57.9109 76.3984C58.1486 75.0243 58.3019 73.7698 58.4027 72.8607C58.4474 72.4292 58.4849 72.068 58.5146 71.7829C58.5405 71.5288 58.5599 71.3881 58.5703 71.3887Z" fill="#263238"/>
<path d="M66.1541 68.0159C66.144 68.0186 66.1232 67.9346 66.0509 67.796C65.978 67.6597 65.845 67.4642 65.6039 67.3071C65.3701 67.1512 65.0085 67.0405 64.6363 67.1654C64.2709 67.2836 63.9105 67.627 63.8198 68.0897L63.7781 68.3012L63.6871 68.1054C63.3737 67.4315 63.0533 66.6522 62.7777 65.808C62.2748 64.2758 62.0579 62.8083 62.1055 61.7487C62.104 61.4838 62.1427 61.2455 62.1579 61.0363C62.1939 60.8289 62.2204 60.6498 62.2525 60.5055C62.3278 60.2189 62.3742 60.063 62.3843 60.066C62.4227 60.0734 62.2082 60.701 62.215 61.7505C62.196 62.7964 62.4266 64.2401 62.925 65.7601C63.1982 66.5971 63.5115 67.3728 63.8144 68.0468L63.6817 68.0629C63.7924 67.5416 64.1953 67.1762 64.6006 67.0542C65.0175 66.925 65.4105 67.0616 65.651 67.2375C65.9006 67.4154 66.028 67.629 66.0908 67.7766C66.1217 67.8513 66.1399 67.9111 66.147 67.9525C66.1556 67.9936 66.158 68.015 66.1541 68.0159Z" fill="#263238"/>
<path d="M73.4088 68.6855C73.3987 68.6864 73.3788 68.5609 73.3401 68.3315C73.3085 68.1023 73.2327 67.7658 73.277 67.334C73.3368 66.9103 73.5371 66.3967 73.9944 66.0161C74.2206 65.829 74.5309 65.7037 74.8594 65.7055C75.1844 65.7052 75.539 65.8316 75.7702 66.1128L75.639 66.1881C75.5486 65.9599 75.4533 65.7207 75.3566 65.477C74.8017 64.0752 74.3071 62.8031 73.9566 61.8798C73.7924 61.4379 73.6555 61.0698 73.549 60.7835C73.4558 60.5235 73.4094 60.378 73.4192 60.3741C73.4293 60.3702 73.4951 60.5089 73.6055 60.7624C73.7239 61.0442 73.8763 61.4066 74.0593 61.8417C74.436 62.7552 74.9466 64.0213 75.5018 65.4231C75.598 65.6668 75.6926 65.9063 75.7827 66.1346L75.9643 66.594L75.6515 66.2098C75.4569 65.9706 75.1495 65.8552 74.8585 65.8525C74.5645 65.8489 74.2899 65.9542 74.0786 66.123C73.6537 66.4625 73.4454 66.9526 73.3782 67.3477C73.3222 67.7548 73.3799 68.094 73.3951 68.3246C73.4168 68.5564 73.4183 68.685 73.4088 68.6855Z" fill="#263238"/>
<path d="M78.9277 69.4238C78.9699 69.4179 79.6424 73.9417 80.4294 79.5269C81.2165 85.1139 81.8202 89.6466 81.7777 89.6526C81.7354 89.6585 81.0629 85.1356 80.2759 79.5486C79.4889 73.9634 78.8851 69.4298 78.9277 69.4238Z" fill="#263238"/>
<g opacity="0.3">
<path d="M62.8691 65.8564C62.9054 67.0116 63.1587 68.1587 63.6104 69.2168C63.9344 68.8169 64.2936 68.3934 64.7866 68.2756C65.4011 68.1283 66.0227 68.5086 66.4666 68.9698C66.3726 68.5098 66.2173 68.0518 65.9301 67.6861C65.643 67.3204 65.2074 67.0571 64.7506 67.0696C64.2939 67.0821 63.8398 67.4165 63.7577 67.8793L62.9048 65.8761" fill="black"/>
</g>
<path d="M57.8442 69.1265C57.8153 69.1262 57.8251 68.815 57.735 68.3288C57.646 67.8441 57.4294 67.1861 57.0113 66.5592C56.8006 66.2479 56.5647 65.9778 56.3311 65.7507C56.0907 65.5317 55.8604 65.3478 55.6491 65.2199C55.2313 64.9559 54.9364 64.8545 54.9465 64.8274C54.9501 64.8173 55.0254 64.836 55.1599 64.8795C55.228 64.8994 55.3093 64.9289 55.3997 64.9729C55.4911 65.0149 55.5976 65.0589 55.7053 65.1258C55.9297 65.2452 56.1746 65.4255 56.4281 65.646C56.6745 65.8745 56.9223 66.1515 57.1402 66.4732C57.5725 67.1216 57.7802 67.8101 57.843 68.3115C57.8748 68.5627 57.8835 68.768 57.8722 68.909C57.8641 69.0498 57.8546 69.1271 57.8442 69.1265Z" fill="#263238"/>
<path d="M75.1147 47.891C74.7627 44.5872 71.9314 42.1091 68.61 42.1945L68.28 42.2032C64.726 42.5025 62.9951 45.6882 63.3926 49.2324L64.3677 61.6987L64.7807 62.2054C66.6914 64.5505 69.941 65.3164 72.6979 64.0714L72.4247 60.0609C72.4247 60.0609 75.8327 59.4408 75.7872 56.0189C75.7649 54.3656 75.4423 50.9648 75.1147 47.891Z" fill="#FFBE9D"/>
<path d="M72.4514 60.0552C72.4514 60.0552 70.27 60.2429 67.9351 58.8584C67.9351 58.8584 69.0527 61.2933 72.4583 60.8976L72.4514 60.0552Z" fill="#EB996E"/>
<path d="M74.033 50.7215C74.0487 50.9792 73.8434 51.2051 73.5747 51.2265C73.3063 51.2476 73.0754 51.0566 73.0599 50.7989C73.0442 50.5412 73.2495 50.3148 73.5179 50.2936C73.7866 50.2722 74.0172 50.4638 74.033 50.7215Z" fill="#263238"/>
<path d="M74.2504 48.8609C74.2117 48.921 73.8234 48.9621 73.3613 49.2123C72.898 49.4584 72.6204 49.7744 72.5555 49.77C72.5243 49.7694 72.5522 49.6834 72.6722 49.5438C72.7897 49.4055 73.0108 49.2135 73.2991 49.0585C73.5878 48.9041 73.8576 48.8324 74.0252 48.8178C74.1957 48.802 74.2704 48.8326 74.2504 48.8609Z" fill="#263238"/>
<path d="M69.0943 50.9808C69.1101 51.2385 68.9047 51.4643 68.6357 51.4858C68.3673 51.5072 68.1367 51.3161 68.121 51.0582C68.1052 50.8005 68.3105 50.5743 68.5789 50.5529C68.8479 50.5315 69.0785 50.7231 69.0943 50.9808Z" fill="#263238"/>
<path d="M69.0194 49.5804C68.9509 49.5953 68.6322 49.3799 68.1225 49.2543C67.614 49.1254 67.1992 49.1579 67.1534 49.1144C67.1305 49.0945 67.2069 49.0561 67.389 49.04C67.5676 49.0234 67.8592 49.0365 68.1767 49.1156C68.4942 49.1951 68.7432 49.3168 68.8786 49.412C69.0161 49.5078 69.0521 49.5745 69.0194 49.5804Z" fill="#263238"/>
<path d="M71.0821 53.6662C71.0788 53.6364 71.4043 53.5715 71.9319 53.4903C72.0658 53.4731 72.1923 53.443 72.2125 53.3508C72.2417 53.2529 72.1816 53.1097 72.1128 52.9553C71.9783 52.6336 71.8373 52.2965 71.6894 51.9433C71.1005 50.5019 70.6709 49.3158 70.7289 49.2923C70.7872 49.2691 71.3115 50.4183 71.9004 51.8597C72.0423 52.2153 72.178 52.5539 72.3071 52.8782C72.3619 53.0294 72.4538 53.2002 72.3905 53.4034C72.3568 53.5046 72.2601 53.5802 72.1747 53.6055C72.0893 53.634 72.0137 53.6373 71.9477 53.643C71.4154 53.6849 71.0848 53.6959 71.0821 53.6662Z" fill="#263238"/>
<path d="M69.027 47.5488C68.9684 47.689 68.4471 47.5958 67.8273 47.6402C67.2065 47.672 66.7007 47.8282 66.6251 47.6964C66.5915 47.6333 66.6849 47.5033 66.8923 47.3748C67.0982 47.2465 67.4223 47.1305 67.7942 47.1076C68.1662 47.0849 68.5021 47.1602 68.722 47.2626C68.9443 47.3643 69.0526 47.4822 69.027 47.5488Z" fill="#263238"/>
<path d="M74.2374 47.6657C74.1231 47.7863 73.6702 47.6669 73.1272 47.6666C72.5841 47.6509 72.125 47.7571 72.0179 47.633C71.9708 47.5729 72.042 47.4524 72.2419 47.3375C72.4389 47.2227 72.7692 47.1275 73.1423 47.1325C73.5158 47.1382 73.8401 47.2432 74.0306 47.3637C74.2234 47.4845 74.2876 47.6068 74.2374 47.6657Z" fill="#263238"/>
<path d="M76.1126 44.8648C76.0474 44.5541 75.7413 44.2917 75.4273 44.3384C75.5949 44.2786 75.7668 44.2164 75.8993 44.0979C76.0317 43.9795 76.1168 43.7897 76.0608 43.621C75.9734 43.3564 75.6347 43.302 75.3663 43.2258C75.0164 43.1267 74.6995 42.9148 74.4739 42.6301C74.1487 42.2194 74.0234 41.685 73.7425 41.2426C73.3789 40.67 72.7469 40.2758 72.0726 40.2017C71.3984 40.1273 70.6955 40.3743 70.2162 40.8539C69.6933 40.3171 68.9051 40.0523 68.1642 40.1654C67.4236 40.2782 66.7496 40.7656 66.4107 41.4339C65.5028 41.056 64.3947 41.2122 63.6264 41.8261C62.8581 42.4399 62.4614 43.4862 62.6299 44.455L64.761 45.761C64.7958 45.1022 65.5308 44.5794 66.1643 44.7624C66.8073 44.9484 67.2188 45.6932 67.8866 45.7437C68.4064 45.7833 68.8489 45.3804 69.3523 45.2453C69.9635 45.0817 70.6086 45.3263 71.1597 45.6369C71.7108 45.9476 72.2345 46.3335 72.8478 46.4885C73.5667 46.6701 74.3329 46.5109 75.0191 46.23C75.3128 46.1097 75.6041 45.9627 75.8228 45.7327C76.0412 45.5027 76.1778 45.1754 76.1126 44.8648Z" fill="#263238"/>
<path d="M65.1312 44.7567L74.89 44.7008C74.5681 44.0363 74.0116 43.5126 73.4111 43.0832C72.1168 42.1572 70.5421 41.6002 68.951 41.6166C67.3597 41.6329 64.1758 43.6602 63.054 44.7888C62.1562 45.6919 62.1833 46.4513 62.1833 46.4513C62.072 47.7198 62.8195 49.1377 63.1355 50.3714C63.2983 51.0076 63.6321 52.9369 63.6321 52.9369H63.6324C64.1698 52.9203 64.3576 52.487 64.2612 51.958L64.1029 49.8765C64.1029 49.8765 65.8945 48.5268 64.9625 46.174C64.8179 45.9886 64.4974 45.1281 65.1312 44.7567Z" fill="#263238"/>
<path d="M63.9504 49.7381C63.4538 48.0099 62.9977 46.1582 63.5255 44.4392C63.4288 44.4353 63.3324 44.4311 63.2357 44.4272L63.1149 44.5153C62.5692 44.3317 61.9157 44.5397 61.5765 45.0051C61.2373 45.4705 61.2391 46.1561 61.581 46.6197C61.0028 46.5926 60.4482 47.0761 60.3955 47.6525C60.3592 48.0503 60.5321 48.4345 60.7094 48.7925C60.8868 49.1504 61.0775 49.5209 61.0802 49.9205C61.0829 50.3198 60.8273 50.7537 60.4306 50.801C60.608 51.2104 61.1046 51.4514 61.536 51.3381C61.3992 51.6758 61.1635 51.9731 60.8659 52.1834C61.5015 52.6164 62.3743 52.4685 63.0658 52.1317C63.4761 51.932 63.8787 51.6472 64.046 51.2229C64.2313 50.7528 64.09 50.224 63.9504 49.7381Z" fill="#263238"/>
<path d="M63.791 51.7513C63.7321 51.7275 61.4224 51.1166 61.5572 53.4534C61.692 55.7904 64.0106 55.173 64.0106 55.1057C64.0109 55.0385 63.791 51.7513 63.791 51.7513Z" fill="#FFBE9D"/>
<path d="M63.4517 54.2559C63.441 54.249 63.4125 54.2868 63.3455 54.3222C63.2803 54.3567 63.1661 54.3847 63.0417 54.346C62.7897 54.2695 62.559 53.8898 62.5233 53.4691C62.5052 53.2569 62.5379 53.0516 62.6037 52.8796C62.6653 52.7047 62.7688 52.5788 62.8917 52.5496C63.0137 52.5139 63.106 52.5833 63.1384 52.6472C63.1735 52.7109 63.1613 52.7582 63.1741 52.7615C63.181 52.7669 63.222 52.7192 63.1976 52.624C63.1851 52.5782 63.1548 52.5246 63.0973 52.483C63.0387 52.4404 62.9548 52.422 62.8688 52.4366C62.6894 52.4595 62.5367 52.6344 62.4644 52.8234C62.3823 53.0135 62.3403 53.2444 62.3609 53.4828C62.4031 53.9529 62.6694 54.3796 63.0131 54.4576C63.1801 54.4909 63.3143 54.4335 63.3818 54.3743C63.4505 54.3124 63.4601 54.2594 63.4517 54.2559Z" fill="#EB996E"/>
<path d="M61.3644 49.8132C61.3576 49.8179 61.299 49.7251 61.3216 49.5415C61.3436 49.3626 61.4727 49.1035 61.7584 48.9324C62.0411 48.7601 62.4318 48.7181 62.829 48.6738C63.2221 48.6312 63.6711 48.5197 63.8958 48.1319C64.1204 47.7543 64.1267 47.2922 64.0788 46.9054C64.0231 46.5129 63.9193 46.1564 63.8678 45.8497C63.7443 45.231 63.8627 44.8365 63.8839 44.8469C63.9118 44.851 63.8422 45.2298 63.994 45.8238C64.06 46.1219 64.1761 46.4686 64.2448 46.8819C64.3025 47.2893 64.3112 47.7841 64.0508 48.2272C63.9211 48.445 63.7134 48.611 63.4941 48.6985C63.2742 48.7878 63.0528 48.8184 62.8484 48.8404C62.4401 48.8761 62.0803 48.9047 61.8209 49.0452C61.5644 49.1802 61.4302 49.4004 61.3912 49.5555C61.3498 49.7144 61.3808 49.8102 61.3644 49.8132Z" fill="#455A64"/>
<path d="M60.8005 48.7942C60.7913 48.7978 60.749 48.7276 60.7285 48.583C60.7091 48.4407 60.7201 48.2179 60.8448 47.9816C60.907 47.865 60.9978 47.7465 61.1224 47.648C61.2453 47.5454 61.4123 47.482 61.5712 47.4385C61.7304 47.3921 61.8958 47.3511 62.0148 47.2564C62.1336 47.1627 62.1871 47.0077 62.1907 46.8283C62.1975 46.65 62.1705 46.4628 62.1746 46.2751C62.1773 46.0894 62.199 45.9112 62.2344 45.7445C62.3073 45.4107 62.4281 45.1289 62.5695 44.9093C62.7105 44.6831 62.9358 44.5725 63.0869 44.5805C63.2417 44.582 63.3065 44.6516 63.2994 44.6576C63.2931 44.6718 63.2214 44.6311 63.0923 44.6513C62.9629 44.6677 62.7935 44.7682 62.6784 44.978C62.5626 45.186 62.4573 45.4639 62.3987 45.7776C62.3698 45.935 62.3529 46.1028 62.3529 46.2766C62.3505 46.4489 62.379 46.6322 62.3722 46.8354C62.3716 47.0336 62.2984 47.2666 62.1252 47.3963C61.9562 47.5237 61.7708 47.5576 61.6152 47.6004C61.295 47.6629 61.0811 47.8411 60.9558 48.0456C60.7088 48.4642 60.8356 48.7957 60.8005 48.7942Z" fill="#455A64"/>
<path d="M74.4761 42.6323C74.4907 42.6356 74.2997 42.7596 73.9935 42.6156C73.8435 42.549 73.6956 42.4082 73.5522 42.2398C73.4091 42.0693 73.2463 41.8872 73.0094 41.7583C72.553 41.4989 71.8141 41.4316 71.247 41.875C70.9578 42.0848 70.7022 42.3773 70.3659 42.6222C70.1978 42.7424 70.0026 42.8495 69.7809 42.8926C69.5595 42.9361 69.3245 42.9051 69.1156 42.8296C68.6942 42.6784 68.3618 42.4201 67.9982 42.2883C67.6361 42.1482 67.2585 42.0863 66.9008 42.0907C66.1798 42.0925 65.5565 42.3639 65.1306 42.6995C64.6977 43.0346 64.4445 43.4122 64.2951 43.6788C64.1496 43.9502 64.0969 44.1153 64.0817 44.1103C64.0758 44.1085 64.0838 44.0659 64.105 43.9859C64.127 43.9061 64.1674 43.791 64.2317 43.647C64.365 43.3643 64.6093 42.9617 65.0503 42.599C65.4833 42.2356 66.1376 41.9339 66.8982 41.9229C67.2758 41.9134 67.6757 41.975 68.0619 42.1217C68.4541 42.2642 68.7933 42.5234 69.1754 42.6576C69.3652 42.7257 69.5607 42.7501 69.7473 42.7144C69.9336 42.679 70.1056 42.5876 70.2624 42.4767C70.5766 42.252 70.8384 41.9592 71.1482 41.739C71.4541 41.5087 71.8296 41.3971 72.1694 41.401C72.5116 41.4028 72.8247 41.4992 73.0734 41.6462C73.3254 41.7926 73.498 42.0015 73.6301 42.174C73.7655 42.3472 73.8929 42.4814 74.0256 42.5522C74.2946 42.704 74.477 42.6147 74.4761 42.6323Z" fill="#455A64"/>
<path d="M69.7826 54.2787C69.8567 54.2618 69.9418 54.7614 70.4292 55.0441C70.916 55.3279 71.4391 55.1821 71.4549 55.2515C71.4671 55.2818 71.3525 55.3684 71.1288 55.4124C70.9095 55.4571 70.5756 55.4404 70.2774 55.2675C69.9799 55.0941 69.8186 54.8227 69.7671 54.6206C69.7133 54.4147 69.7481 54.2817 69.7826 54.2787Z" fill="#263238"/>
<path d="M100.577 100.772C99.6926 99.9841 98.4711 99.6184 97.2889 99.6874L95.2786 106.078C96.7521 106.143 98.222 106.903 99.6447 106.513C100.787 106.2 101.653 105.127 101.812 103.954C101.971 102.78 101.461 101.56 100.577 100.772Z" fill="#FF725E"/>
<path d="M97.3247 99.5368C97.3289 99.485 97.5431 99.4451 97.9338 99.449C98.3221 99.4597 98.8985 99.504 99.5796 99.759C100.262 100.012 101.007 100.529 101.584 101.315C101.872 101.708 102.113 102.176 102.252 102.701C102.394 103.226 102.419 103.81 102.302 104.378C102.186 104.946 101.936 105.479 101.571 105.903C101.206 106.332 100.738 106.628 100.274 106.803C99.3356 107.155 98.434 107.099 97.7442 106.967C97.0474 106.83 96.5231 106.626 96.1678 106.477C95.8134 106.324 95.628 106.212 95.6435 106.161C95.6589 106.109 95.8759 106.124 96.2529 106.188C96.6296 106.247 97.1667 106.365 97.8207 106.424C98.4694 106.482 99.2559 106.462 100.006 106.141C100.376 105.982 100.723 105.742 100.989 105.416C101.259 105.089 101.451 104.673 101.543 104.222C101.735 103.314 101.461 102.408 100.998 101.724C100.536 101.032 99.9292 100.54 99.36 100.261C98.7854 99.9742 98.2558 99.8474 97.893 99.7477C97.5276 99.6534 97.3202 99.5915 97.3247 99.5368Z" fill="#F5F5F5"/>
<path d="M78.6908 123.506L74.3164 135.762L89.5363 141.282C89.9746 139.796 83.1593 134.021 83.1593 134.021L86.2843 126.284L78.6908 123.506Z" fill="#FF725E"/>
<g opacity="0.6">
<path d="M78.6925 131.655C78.3688 131.628 78.045 131.886 78.0055 132.208C77.9659 132.53 78.2248 132.862 78.5479 132.894C78.8711 132.926 79.2692 132.629 79.2725 132.304C79.2758 131.979 78.9505 131.607 78.6289 131.653" fill="white"/>
</g>
<path d="M74.3167 135.762L74.7582 134.525L89.2158 140.292C89.2158 140.292 89.7865 140.833 89.5368 141.282L74.3167 135.762Z" fill="white"/>
<path d="M83.4346 134.033C83.4051 134.107 83.0213 134.006 82.569 134.112C82.1137 134.207 81.8087 134.46 81.751 134.406C81.6876 134.367 81.9599 133.963 82.5094 133.844C83.0581 133.719 83.4753 133.971 83.4346 134.033Z" fill="#263238"/>
<path d="M84.7914 135.273C84.7825 135.351 84.4147 135.36 84.0481 135.583C83.6753 135.795 83.4881 136.112 83.4155 136.082C83.3414 136.068 83.448 135.614 83.9089 135.346C84.3671 135.074 84.8155 135.201 84.7914 135.273Z" fill="#263238"/>
<path d="M85.0051 137.512C84.9319 137.503 84.9632 137.095 85.3015 136.757C85.6378 136.416 86.0463 136.383 86.0552 136.456C86.0752 136.533 85.7702 136.669 85.4964 136.951C85.2167 137.226 85.0816 137.531 85.0051 137.512Z" fill="#263238"/>
<path d="M83.9511 132.191C83.8955 132.248 83.5917 132.021 83.1611 131.897C82.7332 131.765 82.355 131.787 82.3396 131.71C82.3161 131.64 82.735 131.481 83.24 131.634C83.7458 131.783 84.0089 132.146 83.9511 132.191Z" fill="#263238"/>
<path d="M84.2436 130.254C84.2335 130.285 83.9229 130.224 83.4828 129.973C83.2638 129.848 83.0165 129.672 82.7743 129.439C82.6535 129.322 82.5338 129.192 82.4208 129.048C82.3672 128.977 82.3003 128.902 82.2556 128.785C82.2015 128.678 82.2262 128.464 82.3648 128.378C82.485 128.289 82.6413 128.288 82.7519 128.326C82.8656 128.363 82.9483 128.418 83.0236 128.469C83.1784 128.572 83.3167 128.685 83.4387 128.803C83.6815 129.041 83.8571 129.294 83.9743 129.52C84.2088 129.975 84.2287 130.296 84.1981 130.301C84.1555 130.313 84.0681 130.018 83.8065 129.618C83.6759 129.419 83.4973 129.197 83.2655 128.988C83.1489 128.885 83.0195 128.785 82.8766 128.695C82.7308 128.594 82.5939 128.543 82.5267 128.6C82.5017 128.622 82.4958 128.632 82.5124 128.691C82.5315 128.747 82.5814 128.813 82.6341 128.883C82.7368 129.02 82.8448 129.146 82.9534 129.26C83.1712 129.487 83.3923 129.67 83.5878 129.809C83.98 130.089 84.2594 130.214 84.2436 130.254Z" fill="#263238"/>
<path d="M84.1083 130.325C84.0776 130.327 84.0271 130.007 84.1743 129.516C84.2484 129.273 84.3779 128.992 84.5811 128.719C84.6832 128.584 84.8037 128.45 84.9429 128.327C85.0867 128.209 85.2685 128.047 85.5687 128.118C85.7214 128.167 85.8038 128.33 85.81 128.446C85.8228 128.567 85.8008 128.659 85.7868 128.754C85.7502 128.942 85.6839 129.115 85.6012 129.268C85.4357 129.574 85.2054 129.795 84.99 129.937C84.5496 130.224 84.2071 130.2 84.2101 130.173C84.1988 130.126 84.51 130.077 84.8748 129.78C85.0548 129.634 85.2438 129.424 85.3756 129.152C85.4417 129.016 85.4937 128.866 85.5214 128.706C85.5562 128.536 85.5428 128.383 85.4765 128.378C85.4012 128.349 85.2283 128.424 85.1194 128.531C84.9918 128.639 84.879 128.756 84.7808 128.876C84.5856 129.116 84.4484 129.364 84.3574 129.583C84.1744 130.022 84.1526 130.328 84.1083 130.325Z" fill="#263238"/>
<path d="M63.9441 90.7724C61.6353 90.826 59.4453 91.1521 57.8551 92.8268C55.746 95.0477 53.1379 98.2114 52.9897 100.406C52.7683 103.685 54.7468 104.66 56.1912 105.459C56.83 105.813 57.5585 105.972 58.2881 105.944L84.9736 105.742L85.8112 101.222L68.5518 96.9682L69.2686 90.4722L63.9441 90.7724Z" fill="#263238"/>
<path d="M69.2693 90.473L77.6641 90.0864C77.6641 90.0864 92.1657 90.8925 95.2588 93.728C98.3519 96.5634 97.9654 99.7857 96.9344 102.879C95.9033 105.972 86.817 125.756 86.817 125.756C86.817 125.756 87.5538 127.014 87.1393 128.269C86.4977 130.213 84.7695 130.526 84.7695 130.526L76.6997 127.56C76.6997 127.56 75.6041 127.174 76.3774 126.142C77.1508 125.111 77.6662 124.918 77.6662 124.918V122.856C77.6662 122.856 80.5016 117.7 80.7593 116.992C81.017 116.283 83.7349 105.79 83.7349 105.79L85.5402 102.687C85.5402 102.687 81.1741 100.635 77.39 99.1468L68.5525 96.9687L69.2693 90.473Z" fill="#263238"/>
<path d="M82.8849 127.186C82.8686 127.206 82.6141 127.004 82.1767 126.722C81.7402 126.439 81.11 126.088 80.3691 125.805C79.6269 125.524 78.9229 125.368 78.4084 125.289C77.894 125.21 77.5699 125.191 77.5708 125.166C77.5708 125.149 77.8972 125.128 78.4224 125.18C78.9467 125.232 79.6686 125.374 80.4238 125.66C81.1781 125.948 81.8119 126.321 82.238 126.631C82.6659 126.941 82.8962 127.173 82.8849 127.186Z" fill="#455A64"/>
<path d="M86.9181 125.77C86.902 125.783 86.7214 125.596 86.4495 125.276C86.1772 124.957 85.8151 124.504 85.4354 123.988C85.0557 123.472 84.7311 122.991 84.507 122.636C84.2829 122.281 84.1577 122.053 84.1752 122.042C84.1934 122.03 84.3508 122.237 84.5977 122.575C84.8795 122.961 85.203 123.406 85.5604 123.896C85.9222 124.383 86.2501 124.824 86.5355 125.208C86.7845 125.544 86.9348 125.756 86.9181 125.77Z" fill="#455A64"/>
<path d="M89.8755 99.8547C89.8803 99.88 89.5792 99.944 89.1108 100.1C88.6427 100.254 88.0113 100.517 87.3734 100.914C86.7363 101.313 86.2227 101.765 85.8784 102.118C85.5332 102.47 85.3434 102.712 85.3229 102.697C85.3089 102.687 85.4681 102.42 85.7984 102.043C86.1269 101.666 86.6408 101.19 87.2915 100.783C87.9432 100.378 88.596 100.125 89.0793 99.9949C89.5631 99.8639 89.8732 99.8377 89.8755 99.8547Z" fill="#455A64"/>
<path d="M81.6206 113.864C81.6155 113.863 81.6268 113.803 81.6536 113.69C81.686 113.561 81.7271 113.398 81.7774 113.198C81.897 112.753 82.0607 112.142 82.2609 111.397C82.6885 109.862 83.2699 107.777 83.9127 105.472C84.2474 104.316 84.5349 103.214 84.8577 102.216C85.2329 101.226 85.8272 100.462 86.3771 99.8974C86.932 99.3309 87.4513 98.95 87.8196 98.7084C88.0062 98.5899 88.152 98.5001 88.255 98.4462C88.3567 98.3903 88.4115 98.3632 88.4142 98.3677C88.4213 98.3796 88.2121 98.5048 87.8538 98.7581C87.498 99.0137 86.9936 99.4044 86.4562 99.9733C85.9233 100.54 85.3493 101.299 84.9916 102.265C84.6819 103.249 84.3947 104.364 84.0612 105.516C83.4021 107.815 82.8052 109.896 82.3662 111.427C82.1466 112.167 81.9666 112.773 81.8354 113.214C81.7735 113.411 81.7232 113.571 81.6836 113.698C81.6473 113.808 81.6259 113.865 81.6206 113.864Z" fill="#455A64"/>
<path d="M74.1954 98.7509C74.1528 98.7547 73.9763 97.1851 73.8014 95.2456C73.6264 93.3052 73.519 91.7299 73.5616 91.7261C73.6041 91.7222 73.7806 93.2915 73.9555 95.2316C74.1308 97.1711 74.2379 98.747 74.1954 98.7509Z" fill="#455A64"/>
<path d="M60.2234 102.942C60.1999 102.953 60.0702 102.699 59.8074 102.327C59.5462 101.955 59.1341 101.474 58.5883 101.046C58.0408 100.62 57.4749 100.336 57.0502 100.173C56.6256 100.008 56.3477 99.9439 56.3534 99.9183C56.356 99.902 56.6438 99.9285 57.0871 100.07C57.5296 100.21 58.1209 100.486 58.6836 100.924C59.2445 101.364 59.6557 101.871 59.8985 102.266C60.1434 102.662 60.2386 102.935 60.2234 102.942Z" fill="#455A64"/>
<path d="M65.3664 97.2436C65.3515 97.2674 64.9956 97.0392 64.379 96.7589C63.7643 96.4774 62.8743 96.1689 61.8528 96.0204C60.8301 95.8755 59.8895 95.9216 59.2203 96.0189C58.5499 96.1147 58.1443 96.2334 58.1365 96.2063C58.1336 96.1962 58.2324 96.159 58.4148 96.1007C58.5963 96.0394 58.8659 95.9728 59.203 95.9106C59.8761 95.7841 60.8342 95.7195 61.8748 95.8671C62.9145 96.018 63.8158 96.3498 64.4261 96.6601C64.732 96.8146 64.9721 96.9544 65.1289 97.0642C65.2875 97.1713 65.3723 97.2344 65.3664 97.2436Z" fill="#455A64"/>
<path d="M85.4673 101.218C85.4661 101.223 85.3941 101.211 85.2581 101.183C85.1075 101.151 84.9105 101.108 84.6657 101.055C84.1345 100.936 83.396 100.77 82.4905 100.566C80.6537 100.154 78.1128 99.6031 75.2961 99.0448C72.4782 98.4875 69.9186 98.0293 68.0636 97.7097C67.1489 97.5529 66.4029 97.4249 65.8664 97.333C65.6194 97.2886 65.4213 97.2532 65.2695 97.2262C65.1332 97.2 65.0621 97.1836 65.063 97.1785C65.0639 97.1735 65.1365 97.1791 65.2743 97.1955C65.4272 97.2154 65.6269 97.2413 65.8756 97.2738C66.3976 97.3443 67.1513 97.4559 68.0814 97.602C69.9418 97.8939 72.5065 98.3355 75.3261 98.8931C78.1449 99.4516 80.684 100.021 82.5152 100.459C83.4308 100.679 84.1705 100.863 84.6796 100.996C84.9221 101.061 85.1168 101.113 85.2655 101.153C85.3988 101.191 85.4685 101.213 85.4673 101.218Z" fill="#455A64"/>
<path d="M68.5524 97.7351C68.5227 97.744 68.4602 97.3825 68.1829 96.8823C68.0424 96.6344 67.8398 96.3601 67.5723 96.0926C67.3077 95.8233 66.9831 95.5552 66.6379 95.2847C65.9413 94.7509 65.2337 94.3742 64.7264 94.0975C64.2161 93.824 63.8998 93.6532 63.9099 93.633C63.9188 93.6148 64.2512 93.7505 64.7761 93.9999C65.2977 94.2525 66.0214 94.6173 66.7326 95.1618C67.0831 95.4368 67.4074 95.7102 67.6752 95.9935C67.9445 96.2738 68.1472 96.5672 68.2796 96.8305C68.4114 97.0948 68.4822 97.3236 68.5179 97.4831C68.5533 97.6429 68.5617 97.733 68.5524 97.7351Z" fill="#455A64"/>
<path d="M98.2742 101.77C98.3084 101.803 97.862 102.254 97.5145 102.94C97.1598 103.622 97.0533 104.248 97.0066 104.239C96.9682 104.239 97.0081 103.58 97.3767 102.869C97.7392 102.156 98.2519 101.738 98.2742 101.77Z" fill="#263238"/>
<g opacity="0.3">
<path d="M79.1743 71.2759L81.0843 84.7315L81.1799 84.9467C81.631 80.3175 80.9362 75.5807 79.1743 71.2759Z" fill="black"/>
</g>
<path d="M89.4616 79.0087L83.2503 89.8717L67.9465 90.2044L67.9084 90.8974L82.7266 90.7873L83.1965 90.7712L98.8446 90.8022L102.006 85.3488L106.046 79.5595C106.311 79.1801 106.038 78.6596 105.575 78.6611L89.9553 78.7206C89.7511 78.7218 89.5628 78.8316 89.4616 79.0087Z" fill="#E0E0E0"/>
<path d="M102.006 85.3486C102.006 85.3486 102.81 86.0854 102.684 86.7118C102.557 87.3378 102.599 87.8035 102.006 87.8458C102.006 87.8458 102.049 88.6498 101.202 88.7768C101.202 88.7768 101.384 89.7585 100.241 89.9278C100.241 89.9278 99.8905 90.9776 99.1713 90.7238C98.4518 90.4699 97.9864 90.1736 97.9864 90.1736L97.7749 89.7927C97.7749 89.7927 96.7149 89.3943 96.9759 88.7956C97.1345 88.4322 97.6826 88.3379 97.6826 88.3379C97.6826 88.3379 97.4547 87.805 97.7505 87.4072C98.0046 87.0656 98.8321 87.3479 98.8321 87.3479C98.8321 87.3479 98.7833 86.9069 99.0942 86.538C99.376 86.2038 100.693 87.1117 100.693 87.1117L101.412 86.2532L102.006 85.3486Z" fill="#FFBE9D"/>
<path d="M100.241 89.9276C100.218 89.9639 99.6272 89.6375 98.9208 89.1986C98.2141 88.7594 97.6597 88.374 97.682 88.3377C97.7047 88.3014 98.2956 88.6278 99.0023 89.067C99.709 89.5056 100.264 89.8913 100.241 89.9276Z" fill="#EB996E"/>
<path d="M101.202 88.7767C101.18 88.8133 100.632 88.5232 99.977 88.1286C99.3224 87.7338 98.8097 87.3844 98.8317 87.3478C98.8538 87.3112 99.4025 87.6014 100.057 87.9959C100.712 88.3905 101.224 88.7401 101.202 88.7767Z" fill="#EB996E"/>
<path d="M99.8926 86.6225C99.9164 86.5788 100.408 86.8376 100.979 87.1995C101.551 87.5646 102.012 87.8484 102.001 87.8773C101.979 87.9279 101.468 87.6961 100.897 87.331C100.323 86.9677 99.8756 86.6543 99.8926 86.6225Z" fill="#EB996E"/>
<path d="M106.048 79.0728C106.048 79.0754 106.023 79.0781 105.973 79.0808C105.915 79.0829 105.842 79.0856 105.754 79.0885C105.548 79.0921 105.266 79.0969 104.909 79.1031C104.162 79.1091 103.103 79.1174 101.801 79.1278C99.166 79.1338 95.5471 79.1418 91.5494 79.1504C91.2991 79.1504 91.0504 79.1504 90.8031 79.1504C90.5683 79.1326 90.3556 79.2355 90.2342 79.4191C89.9985 79.8437 89.7664 80.2621 89.5385 80.6733C89.0811 81.4988 88.6398 82.2953 88.2194 83.0544C87.377 84.5678 86.6179 85.9318 85.9779 87.0816C85.3396 88.2165 84.8209 89.1389 84.4549 89.79C84.277 90.0994 84.1366 90.344 84.0342 90.5226C83.9887 90.5988 83.9515 90.6606 83.9214 90.7112C83.8952 90.7532 83.8807 90.7743 83.8783 90.7728C83.8759 90.7716 83.886 90.7481 83.9074 90.7035C83.9339 90.6511 83.9666 90.5865 84.0068 90.5074C84.1029 90.3256 84.2351 90.0762 84.4023 89.7605C84.7579 89.1038 85.2619 88.173 85.882 87.028C86.5138 85.8735 87.263 84.5041 88.0947 82.9845C88.5128 82.2239 88.9514 81.4262 89.406 80.5992C89.6355 80.1844 89.8687 79.7625 90.1053 79.3343C90.2499 79.1034 90.543 78.9731 90.8028 78.9957C91.0501 78.9957 91.2988 78.9957 91.5491 78.9957C95.5468 79.0046 99.166 79.0127 101.801 79.0183C103.103 79.0287 104.161 79.0371 104.908 79.043C105.265 79.0493 105.547 79.054 105.753 79.0576C105.842 79.0606 105.914 79.0632 105.973 79.0653C106.023 79.0677 106.048 79.0701 106.048 79.0728Z" fill="#263238"/>
<path d="M95.0364 84.534C94.7599 84.8404 94.7534 85.285 95.0218 85.5272C95.2902 85.7694 95.7318 85.7171 96.0082 85.4106C96.2847 85.1041 96.2912 84.6595 96.0228 84.4173C95.7544 84.1754 95.3128 84.2275 95.0364 84.534Z" fill="white"/>
<g opacity="0.3">
<path d="M51.5954 80.3325C51.4627 80.3861 51.3116 80.4745 51.3101 80.6176C51.3089 80.7333 51.4166 80.8268 51.53 80.8512C51.6433 80.8756 52.0525 80.706 52.1656 80.681C53.7739 80.3257 55.1001 80.6661 56.6331 81.2684L56.6828 81.2175C56.071 79.9267 53.3257 79.6356 51.5954 80.3325Z" fill="black"/>
</g>
<path d="M134.503 140.734C134.503 140.776 107.588 140.811 74.3927 140.811C41.1865 140.811 14.2764 140.776 14.2764 140.734C14.2764 140.691 41.1865 140.656 74.3927 140.656C107.588 140.656 134.503 140.691 134.503 140.734Z" fill="#263238"/>
<path d="M43.2705 45.886C43.322 45.9375 53.2027 42.5409 53.2027 42.5409L49.4035 33.8218L40.6079 37.1845L45.4462 39.9646L43.2705 45.886Z" fill="#455A64"/>
<path d="M47.9053 36.4497V24.5774C47.9053 24.5774 61.5362 22.0856 71.3563 22.2323C81.1763 22.379 91.2898 23.9912 91.2898 23.9912V35.3886C91.2898 35.3886 60.5102 32.6389 47.9053 36.4497Z" fill="#455A64"/>
<path d="M47.8345 36.4596L53.2028 42.5926V35.3887C53.2028 35.3887 48.7126 35.9258 47.8345 36.4596Z" fill="#263238"/>
<path d="M47.9053 24.5767C47.9481 24.577 47.9669 27.2371 47.9472 30.518C47.9276 33.7998 47.877 36.4591 47.8342 36.4591C47.7913 36.4588 47.7726 33.7989 47.7922 30.5171C47.8119 27.2365 47.8624 24.5767 47.9053 24.5767Z" fill="#263238"/>
<path d="M95.91 44.9759C95.8586 45.0274 85.9778 41.6307 85.9778 41.6307L89.777 32.9116L98.5726 36.2743L93.7343 39.0545L95.91 44.9759Z" fill="#455A64"/>
<path d="M91.3458 35.5489L85.9775 41.6819V34.999C87.7671 35.0588 89.5566 35.2421 91.3458 35.5489Z" fill="#263238"/>
<path d="M91.2897 23.9917C91.3325 23.9914 91.3799 26.5787 91.3953 29.77C91.4108 32.9622 91.3888 35.5492 91.3459 35.5495C91.3031 35.5498 91.2561 32.9628 91.2403 29.7706C91.2248 26.5796 91.2468 23.992 91.2897 23.9917Z" fill="#263238"/>
<path d="M55.5924 29.7831C55.4611 28.8366 56.0941 28.0584 57.0718 27.9228C57.6146 27.8475 58.0951 27.982 58.4409 28.3001L58.0341 28.7955C57.7899 28.5825 57.5075 28.4935 57.1935 28.5372C56.6059 28.6188 56.2461 29.0892 56.3279 29.6813C56.4101 30.2735 56.8847 30.6285 57.4721 30.5469C57.786 30.5035 58.0333 30.341 58.21 30.0652L58.7364 30.4309C58.4906 30.8353 58.0651 31.0956 57.5176 31.1715C56.544 31.3063 55.7236 30.7296 55.5924 29.7831Z" fill="white"/>
<path d="M58.8399 29.3361C58.7435 28.3993 59.402 27.6305 60.3973 27.5281C61.3882 27.4263 62.1931 28.0399 62.2898 28.9811C62.3868 29.9226 61.7233 30.687 60.7324 30.7891C59.7374 30.8914 58.9363 30.2728 58.8399 29.3361ZM61.5516 29.0573C61.49 28.4583 61.0246 28.0917 60.4616 28.1497C59.8986 28.2074 59.5175 28.6609 59.579 29.2599C59.6406 29.8589 60.106 30.2252 60.6693 30.1674C61.2317 30.1094 61.6132 29.6562 61.5516 29.0573Z" fill="white"/>
<path d="M65.8525 30.3273L65.726 28.4304L64.8958 30.0533L64.5661 30.0744L63.5422 28.6113L63.6615 30.468L62.9748 30.5121L62.7712 27.3496L63.3765 27.3106L64.6866 29.1998L65.7257 27.1598L66.3268 27.1211L66.5392 30.283L65.8525 30.3273Z" fill="white"/>
<path d="M69.949 28.1621C69.9687 28.8682 69.4515 29.3219 68.605 29.3461L67.9667 29.3639L67.9911 30.2378L67.2579 30.2584L67.1689 27.0897L68.5407 27.0513C69.3873 27.0272 69.9291 27.4515 69.949 28.1621ZM69.2066 28.1829C69.1968 27.8344 68.9647 27.6369 68.5166 27.6494L67.9191 27.6663L67.95 28.7664L68.5475 28.7494C68.9957 28.7369 69.2162 28.5269 69.2066 28.1829Z" fill="white"/>
<path d="M70.5061 27.0107H71.2393V29.582H72.8283V30.1795H70.5061V27.0107Z" fill="white"/>
<path d="M75.6855 29.6716L75.6685 30.2602L73.2148 30.1887L73.3071 27.02L75.7019 27.0896L75.6846 27.6782L74.0189 27.6297L73.9989 28.318L75.4703 28.3608L75.4537 28.9312L73.9823 28.8884L73.9608 29.6219L75.6855 29.6716Z" fill="white"/>
<path d="M77.0403 27.7633L76.0286 27.7023L76.0646 27.106L78.8206 27.2723L78.7846 27.8686L77.7726 27.8076L77.6178 30.3735L76.8858 30.3294L77.0403 27.7633Z" fill="white"/>
<path d="M81.4892 30.1057L81.4348 30.6919L78.9912 30.4655L79.2834 27.3096L81.6687 27.5307L81.6142 28.1168L79.955 27.963L79.8916 28.6483L81.3568 28.784L81.3041 29.352L79.839 29.2163L79.7711 29.9468L81.4892 30.1057Z" fill="white"/>
<path d="M82.4052 27.6094L83.8317 27.8001C84.8589 27.9373 85.4805 28.6505 85.3534 29.6015C85.2264 30.5525 84.4396 31.0774 83.4119 30.9403L81.9854 30.7495L82.4052 27.6094ZM83.4559 30.3389C84.0796 30.4222 84.5375 30.1044 84.6176 29.5033C84.6982 28.902 84.3394 28.4753 83.716 28.392L83.0524 28.3033L82.7923 30.2502L83.4559 30.3389Z" fill="white"/>
<path d="M97.3894 25.0714L98.1669 25.9861L100.363 25.0714L99.7223 24.1108L97.3894 25.0714Z" fill="#455A64"/>
<path d="M96.383 20.7256C96.383 21.3573 95.8709 21.8691 95.2395 21.8691C94.608 21.8691 94.0959 21.357 94.0959 20.7256C94.0959 20.0941 94.608 19.582 95.2395 19.582C95.8712 19.582 96.383 20.0941 96.383 20.7256Z" fill="#FF725E"/>
<path d="M70.7863 37.7687C70.7863 38.0844 70.5304 38.3406 70.2147 38.3406C69.899 38.3406 69.6428 38.0847 69.6428 37.7687C69.6428 37.453 69.8987 37.1968 70.2147 37.1968C70.5304 37.1971 70.7863 37.453 70.7863 37.7687Z" fill="#FF725E"/>
<path d="M44.1687 29.1814C44.1687 29.4209 43.9744 29.6152 43.7349 29.6152C43.4953 29.6152 43.301 29.4209 43.301 29.1814C43.301 28.9419 43.4953 28.7476 43.7349 28.7476C43.9744 28.7476 44.1687 28.9419 44.1687 29.1814Z" fill="#FF725E"/>
<path d="M42.5562 24.3985L43.8366 24.4765L44.4448 21.9609L43.2489 22.0094L42.5562 24.3985Z" fill="#455A64"/>
<path d="M82.5493 44.493L82.9799 45.7014L85.5324 45.2741L85.0185 44.1934L82.5493 44.493Z" fill="#FF725E"/>
<path d="M56.7255 37.5225L55.937 38.5345L57.6676 40.4588L58.3038 39.445L56.7255 37.5225Z" fill="#455A64"/>
<path d="M53.6695 13.7544L56.6924 16.8362L60.9448 15.2291L61.1129 16.284L59.271 20.0558L60.9686 22.8713L60.8264 23.7116L56.7114 23.0189L54.2789 25.6895L53.7078 25.2554L53.2038 21.8602L49.3647 19.8612L49.1965 19.0867L53.0618 18.0282L53.6695 13.7544Z" fill="#FF725E"/>
<g opacity="0.3">
<path d="M53.6695 13.7544L56.6924 16.8362L60.9448 15.2291L61.1129 16.284L59.271 20.0558L60.9686 22.8713L60.8264 23.7116L56.7114 23.0189L54.2789 25.6895L53.7078 25.2554L53.2038 21.8602L49.3647 19.8612L49.1965 19.0867L53.0618 18.0282L53.6695 13.7544Z" fill="black"/>
</g>
<path d="M53.6695 12.8901L56.6924 15.9723L60.9448 15.2293L58.9479 19.0565L60.9686 22.8715L56.7114 22.155L53.7078 25.2555L53.0737 20.9853L49.1965 19.0868L53.0618 17.1643L53.6695 12.8901Z" fill="#FF725E"/>
<path d="M84.9876 13.7544L81.9647 16.8362L77.7123 15.2291L77.5442 16.284L79.3861 20.0558L77.6885 22.8713L77.8307 23.7116L81.9457 23.0189L84.3782 25.6895L84.9493 25.2554L85.4533 21.8602L89.2925 19.8612L89.4606 19.0867L85.5953 18.0282L84.9876 13.7544Z" fill="#FF725E"/>
<g opacity="0.3">
<path d="M84.9876 13.7544L81.9647 16.8362L77.7123 15.2291L77.5442 16.284L79.3861 20.0558L77.6885 22.8713L77.8307 23.7116L81.9457 23.0189L84.3782 25.6895L84.9493 25.2554L85.4533 21.8602L89.2925 19.8612L89.4606 19.0867L85.5953 18.0282L84.9876 13.7544Z" fill="black"/>
</g>
<path d="M84.9876 12.8901L81.9647 15.9723L77.7123 15.2293L79.7092 19.0565L77.6885 22.8715L81.9457 22.155L84.9492 25.2555L85.5833 20.9853L89.4605 19.0868L85.5952 17.1643L84.9876 12.8901Z" fill="#FF725E"/>
<path d="M69.2294 8.34961L71.7435 13.2611L77.5441 12.9201L77.3474 14.2711L73.6636 18.1715L74.6622 22.2531L74.1689 23.2243L69.4121 20.8117L65.4269 23.1434L64.8954 22.3965L65.5736 18.062L61.6511 14.161L61.741 13.1519L66.8602 13.3328L69.2294 8.34961Z" fill="#FF725E"/>
<g opacity="0.3">
<path d="M69.2294 8.34961L71.7435 13.2611L77.5441 12.9201L77.3474 14.2711L73.6636 18.1715L74.6622 22.2531L74.1689 23.2243L69.4121 20.8117L65.4269 23.1434L64.8954 22.3965L65.5736 18.062L61.6511 14.161L61.741 13.1519L66.8602 13.3328L69.2294 8.34961Z" fill="black"/>
</g>
<path d="M69.5585 7.29492L72.0725 12.2067L77.5441 12.92L73.6499 16.829L74.6622 22.253L69.7412 19.7573L64.8954 22.3964L65.7482 16.9448L61.741 13.1518L67.1893 12.2782L69.5585 7.29492Z" fill="#FF725E"/>
<path d="M79.5762 51.3683L83.7789 51.8313C84.7903 50.3912 86.1996 49.2039 87.9346 48.457C92.9247 46.3095 98.7105 48.6138 100.858 53.6036C103.005 58.5937 100.701 64.3795 95.7114 66.5269C90.7216 68.6744 84.9355 66.3701 82.788 61.3803C81.8915 59.2968 81.7734 57.0752 82.3006 55.0367L82.298 55.0414L79.5762 51.3683Z" fill="#FAFAFA"/>
<path d="M79.5762 51.3681C79.741 51.5868 80.5906 52.7134 82.3289 55.0183L82.2643 55.0225L82.267 55.0177C82.2774 54.999 82.3009 54.9924 82.3194 55.0025C82.3352 55.0112 82.3423 55.0296 82.3381 55.046C81.9906 56.4049 81.8567 58.1954 82.4033 60.1262C82.5428 60.605 82.7116 61.0951 82.9472 61.5715C83.0669 61.8086 83.1802 62.0538 83.3097 62.2943C83.4549 62.5261 83.6022 62.7608 83.7512 62.9989C84.3895 63.9228 85.2209 64.7893 86.2359 65.4933C87.2485 66.1979 88.4426 66.7389 89.7447 67.0237C91.0444 67.3078 92.4528 67.3406 93.8388 67.0424C95.2219 66.7425 96.5799 66.1319 97.758 65.227C98.9304 64.3218 99.9468 63.1378 100.6 61.7387C101.272 60.3185 101.631 58.7664 101.575 57.2497C101.533 55.7339 101.136 54.2685 100.473 52.9884C99.8112 51.7077 98.8902 50.6055 97.8142 49.7816C96.7415 48.9523 95.5385 48.3798 94.3301 48.0569C93.1202 47.7323 91.9068 47.657 90.7781 47.7706C89.6459 47.8885 88.6172 48.228 87.6981 48.6226C85.8666 49.4629 84.6049 50.7302 83.8099 51.8523C83.8021 51.8636 83.7881 51.8692 83.7753 51.8677C81.1154 51.5514 79.8359 51.3991 79.5762 51.3681C79.8365 51.3946 81.1184 51.5244 83.7831 51.7943L83.7486 51.8097C84.5398 50.6725 85.8053 49.384 87.6526 48.5256C88.5795 48.1221 89.6188 47.7742 90.7647 47.6507C91.9068 47.5314 93.1366 47.6034 94.3637 47.9292C95.5894 48.253 96.8109 48.8306 97.9008 49.6697C98.994 50.5034 99.9314 51.6208 100.605 52.9199C101.279 54.2185 101.684 55.7066 101.728 57.2461C101.786 58.7869 101.422 60.3637 100.739 61.8063C100.075 63.2274 99.0425 64.4304 97.8508 65.349C96.6534 66.2676 95.2743 66.8859 93.8692 67.1885C92.4614 67.4896 91.0316 67.4539 89.7135 67.1629C88.3932 66.8716 87.1833 66.3199 86.1588 65.6028C85.1319 64.8863 84.2922 64.0055 83.6495 63.0676C83.4992 62.826 83.3513 62.5876 83.2052 62.3526C83.0752 62.1086 82.9612 61.8601 82.8413 61.6197C82.6053 61.1367 82.4366 60.6401 82.298 60.1554C81.7546 58.2001 81.9016 56.393 82.2631 55.0263L82.3343 55.0549L82.3316 55.0597C82.3215 55.0784 82.298 55.085 82.2795 55.0748C82.2745 55.0722 82.27 55.068 82.267 55.0638C80.5676 52.7304 79.7372 51.5895 79.5762 51.3681Z" fill="#263238"/>
<path d="M88.1972 53.9904C88.1999 53.9931 88.2022 54.0392 88.2046 54.1264C88.2067 54.224 88.2091 54.3499 88.2124 54.5079C88.2165 54.8515 88.2225 55.3324 88.2299 55.9382C88.2382 57.1719 88.2501 58.9111 88.2641 60.9932L88.1972 60.9262C90.2355 60.9233 92.6368 60.9197 95.1991 60.9158C95.2169 60.8991 95.053 61.0619 95.1223 60.992V60.9902V60.9863V60.9789V60.9637V60.9337V60.8736V60.7536V60.5147C95.1223 60.3558 95.1223 60.1975 95.1226 60.0398C95.1229 59.7247 95.1229 59.4125 95.1232 59.1037C95.1238 58.4859 95.1247 57.8816 95.1253 57.2936C95.1279 56.1185 95.1306 55.0092 95.133 53.9904L95.2 54.0574C93.1176 54.0434 91.3784 54.0315 90.1447 54.0231C89.5392 54.0157 89.058 54.0097 88.7146 54.0056C88.5569 54.0023 88.4308 53.9996 88.3335 53.9978C88.246 53.9955 88.1999 53.9928 88.1972 53.9904C88.1948 53.988 88.2359 53.9853 88.3186 53.983C88.4126 53.9809 88.5346 53.9785 88.687 53.9752C89.0268 53.9711 89.5026 53.9651 90.1019 53.9577C91.346 53.9493 93.1001 53.9374 95.1997 53.9234L95.2666 53.9229L95.2669 53.9904C95.2693 55.0092 95.272 56.1185 95.2746 57.2936C95.2752 57.8816 95.2758 58.4859 95.2767 59.1037C95.277 59.4125 95.277 59.7247 95.2773 60.0398C95.2773 60.1972 95.2773 60.3555 95.2773 60.5147V60.7536V60.8736V60.9337V60.9637V60.9789V60.9863V60.9902V60.992C95.3467 60.9232 95.1833 61.0878 95.1991 61.0705C92.6368 61.0667 90.2355 61.0631 88.1972 61.0601H88.1296L88.1299 60.9932C88.1439 58.8936 88.1558 57.1395 88.1642 55.8954C88.1716 55.2961 88.1775 54.8203 88.1817 54.4802C88.185 54.3278 88.1874 54.2061 88.1894 54.1118C88.1921 54.0291 88.1948 53.9877 88.1972 53.9904Z" fill="#263238"/>
<path d="M94.4442 55.1477C94.5448 55.2275 93.6027 56.584 92.3399 58.1775C92.0879 58.4956 91.8421 58.7991 91.6136 59.0749L91.4639 59.2558L91.2964 59.105C90.2025 58.12 89.4604 57.3636 89.5277 57.286C89.5949 57.2083 90.451 57.8326 91.5847 58.7711L91.2675 58.8012C91.4838 58.5158 91.7231 58.2072 91.9751 57.8891C93.2382 56.2954 94.3437 55.068 94.4442 55.1477Z" fill="#FF725E"/>
</svg>
