<svg xmlns="http://www.w3.org/2000/svg" fill="none" viewBox="36.962332928311056 0 49.59902794653706 49.138" style="max-height: 500px" width="49.59902794653706" height="49.138">
<path fill="url(#paint0_radial_2_1303)" d="M66.8514 41.1089C62.3173 35.3657 57.7833 29.6226 53.2492 23.9046C57.0024 23.9046 60.7556 23.955 64.5088 23.955C65.7179 23.955 66.9018 23.4008 67.6071 22.4185C68.136 21.688 68.3628 20.7812 68.2116 19.9247C68.0857 19.1942 67.6826 18.5141 67.0781 18.0103C66.4232 17.4562 65.5667 17.1791 64.7103 17.1791L38.715 17.1035C38.0097 19.3706 37.6318 21.7887 37.6318 24.2825C37.6318 37.7083 48.5136 48.5901 61.9395 48.5901C75.3654 48.5901 74.9875 45.7437 79.3957 41.1845C75.2142 41.1593 71.0328 41.1341 66.8262 41.0837L66.8514 41.1089Z"/>
<path fill="url(#paint1_radial_2_1303)" d="M68.6398 8.18651C74.6853 9.01776 79.043 14.1816 78.8415 19.7232C78.6904 24.358 75.3654 28.5898 70.5542 30.0508C73.9044 33.3254 77.2546 36.5748 80.6048 39.8494C84.1061 35.6428 86.222 30.2271 86.222 24.3076C86.222 10.8818 75.3402 0 61.9143 0C48.4884 0 48.2617 3.12347 43.8032 8.08576L68.6147 8.18651H68.6398Z"/>
<path fill="#201D1E" d="M22.216 68.8423H16.1202L12.8456 64.8875H5.84298V68.8423H1.28372V61.2099H14.0799C15.4905 61.2099 16.5988 60.555 16.5988 59.5474C16.5988 58.5398 15.6416 57.8094 14.0799 57.8094H1.28372L4.25606 53.9302H13.7272C17.0774 53.9302 21.3092 54.9882 21.3092 59.2451C21.3092 63.5021 19.8734 63.4769 17.4552 63.9807C17.959 64.3586 18.5132 64.8875 19.5208 65.9455L22.216 68.8423Z"/>
<path fill="#201D1E" d="M41.2339 64.9883L38.312 68.8171H24.1304V53.905H41.1835L38.2364 57.7842H28.7148V59.5726H40.3775L37.7578 62.948H28.7148V64.9883H41.2339Z"/>
<path fill="#201D1E" d="M55.9192 68.2881L46.9015 60.0764V68.8423H42.7704V56.4743C42.7704 54.4844 43.9543 53.6783 45.2642 53.6783C46.574 53.6783 46.3725 53.8043 47.103 54.4844L56.1208 62.6961V53.9302H60.277V66.273C60.277 68.2629 59.0931 69.069 57.7581 69.069C56.423 69.069 56.6245 68.943 55.9192 68.2629V68.2881Z"/>
<path fill="#201D1E" d="M81.6123 54.2073L78.6651 58.0864H73.4006V69.1193H68.8413V58.0864H61.9395L64.8866 54.2073H81.6123Z"/>
<path fill="#201D1E" d="M100.781 64.5601C100.781 67.079 99.4211 68.9934 94.7359 68.9934H81.6627V59.7237H94.8367C95.4916 59.7237 96.1213 59.4718 96.1213 58.691C96.1213 57.9101 95.4664 57.7086 94.8367 57.7086H81.6627L84.7861 53.7539H94.6351C98.1868 53.7539 100.479 55.1645 100.479 57.9605C100.479 60.7565 99.4715 60.7565 98.4639 61.1595C99.7485 61.5374 100.806 62.7213 100.806 64.5601H100.781ZM86.2723 62.9732V65.0639H94.7359C95.7435 65.0639 96.1717 64.7112 96.1717 63.9807C96.1717 63.2502 95.7435 62.948 94.7359 62.948H86.2723V62.9732Z"/>
<path fill="#201D1E" d="M107.935 69.0186H103.325V53.8295H107.935V69.0186Z"/>
<path fill="#201D1E" d="M126.323 68.9934H112.217C111.059 68.9934 110.076 68.3133 110.076 67.079C110.076 65.8447 110.454 65.6936 111.084 65.1898L116.499 60.8069C118.968 58.7665 120.026 58.0361 120.58 57.6078C119.774 57.6834 118.414 57.7086 115.467 57.7086H109.497L112.444 53.7539H126.172C127.331 53.7539 128.313 54.434 128.313 55.6683C128.313 56.9025 127.935 57.0537 127.306 57.5323L121.814 61.9908C119.371 63.9807 118.338 64.7364 117.759 65.1646C118.489 65.1142 121.336 65.0639 123.678 65.0639H129.094L126.323 68.9934Z"/>
<path fill="black" d="M0.905884 72.7466H4.45757V73.5527H1.71194V74.8373H4.30644V75.6434H1.71194V77.1799H4.55833V77.986H0.905884V72.7214V72.7466Z"/>
<path fill="black" d="M6.14526 72.7466H6.97651L8.61381 75.3159C8.94127 75.8197 9.31911 76.5502 9.31911 76.5502V72.7214H10.1504V77.986H9.29392L7.73219 75.5426C7.32916 74.9129 6.97651 74.2076 6.97651 74.2076V77.986H6.14526V72.7214V72.7466Z"/>
<path fill="black" d="M12.0647 72.7466H15.6164V73.5527H12.8708V74.8373H15.4653V75.6434H12.8708V77.1799H15.7172V77.986H12.0647V72.7214V72.7466Z"/>
<path fill="black" d="M17.3041 72.7466H19.2437C20.5535 72.7466 21.2588 73.6534 21.2588 74.7618C21.2588 75.8701 20.9314 76.122 20.3268 76.4746L21.3344 78.0112H20.3772L19.5711 76.7265C19.4452 76.7265 19.2941 76.7769 19.1681 76.7769H18.1354V78.0112H17.3041V72.7466ZM19.2689 75.9456C19.9238 75.9456 20.3772 75.4167 20.3772 74.7618C20.3772 74.1068 19.9238 73.5527 19.2689 73.5527H18.1102V75.9456H19.2689Z"/>
<path fill="black" d="M22.7702 75.3663C22.7702 73.8549 23.8029 72.671 25.1883 72.671C26.5737 72.671 26.347 72.9229 26.7501 73.3008L26.2715 73.9305C25.9692 73.6282 25.6166 73.5023 25.1883 73.5023C24.2815 73.5023 23.6266 74.3335 23.6266 75.3663C23.6266 76.3991 24.2815 77.2303 25.1883 77.2303C26.0952 77.2303 26.0952 76.9784 26.3722 76.6006V75.6937H25.541V74.9129H27.1783V76.9532C26.7753 77.6585 26.0196 78.0867 25.1883 78.0867C23.8029 78.0867 22.7702 76.8776 22.7702 75.3915V75.3663Z"/>
<path fill="black" d="M29.0171 72.7466H29.8484V78.0112H29.0171V72.7466Z"/>
<path fill="black" d="M31.4857 77.2807L33.7779 74.1068C34.0298 73.729 34.2061 73.5527 34.2061 73.5527H31.6116V72.7466H35.2389V73.4771L33.0474 76.5502C32.7703 76.928 32.5436 77.2051 32.5436 77.2051H35.3144V78.0112H31.5108V77.3059L31.4857 77.2807Z"/>
<path fill="black" d="M36.9265 72.7466H37.7578V78.0112H36.9265V72.7466Z"/>
<path fill="black" d="M39.647 72.7466H40.4782L42.1155 75.3159C42.443 75.8197 42.8208 76.5502 42.8208 76.5502V72.7214H43.6521V77.986H42.7956L41.2339 75.5426C40.8309 74.9129 40.4782 74.2076 40.4782 74.2076V77.986H39.647V72.7214V72.7466Z"/>
<path fill="black" d="M45.3649 75.3663C45.3649 73.8549 46.3977 72.671 47.7831 72.671C49.1685 72.671 48.9418 72.9229 49.3448 73.3008L48.8662 73.9305C48.564 73.6282 48.2113 73.5023 47.7831 73.5023C46.8763 73.5023 46.2214 74.3335 46.2214 75.3663C46.2214 76.3991 46.8763 77.2303 47.7831 77.2303C48.6899 77.2303 48.6899 76.9784 48.967 76.6006V75.6937H48.1357V74.9129H49.7731V76.9532C49.37 77.6585 48.6143 78.0867 47.7831 78.0867C46.3977 78.0867 45.3649 76.8776 45.3649 75.3915V75.3663Z"/>
<path fill="black" d="M54.0804 72.7466H56.02C57.3299 72.7466 58.0352 73.6534 58.0352 74.7618C58.0352 75.8701 57.7077 76.122 57.1032 76.4746L58.1107 78.0112H57.1535L56.3475 76.7265C56.2215 76.7265 56.0704 76.7769 55.9444 76.7769H54.9117V78.0112H54.0804V72.7466ZM56.0704 75.9456C56.7253 75.9456 57.1787 75.4167 57.1787 74.7618C57.1787 74.1068 56.7253 73.5527 56.0704 73.5527H54.9117V75.9456H56.0704Z"/>
<path fill="black" d="M59.7228 72.7466H63.2745V73.5527H60.5289V74.8373H63.1234V75.6434H60.5289V77.1799H63.3753V77.986H59.7228V72.7214V72.7466Z"/>
<path fill="black" d="M64.9622 72.7466H65.7935L67.4308 75.3159C67.7582 75.8197 68.1361 76.5502 68.1361 76.5502V72.7214H68.9673V77.986H68.1109L66.5491 75.5426C66.1461 74.9129 65.7935 74.2076 65.7935 74.2076V77.986H64.9622V72.7214V72.7466Z"/>
<path fill="black" d="M72.1412 73.5527H70.5291V72.7466H74.5845V73.5527H72.9724V77.986H72.1412V73.5527Z"/>
<path fill="black" d="M77.2294 72.7466H78.0102L80.0757 78.0112H79.2445L78.8919 77.1044H76.3729L76.0203 78.0112H75.189L77.2545 72.7466H77.2294ZM78.6148 76.3235L78.0858 74.9633C77.8843 74.4343 77.6324 73.729 77.6324 73.729C77.6324 73.729 77.3805 74.4343 77.179 74.9633L76.65 76.3235H78.6148Z"/>
<path fill="black" d="M81.562 72.7466H82.3932V77.1799H85.1388V77.986H81.562V72.7214V72.7466Z"/>
<path fill="black" d="M89.2698 72.7466H91.4109C92.1666 72.7466 92.7963 73.1496 92.7963 74.0816C92.7963 75.0136 92.5696 74.8877 92.3177 75.0136C92.8467 75.1396 93.2246 75.6686 93.2246 76.3487C93.2246 77.4318 92.5192 77.986 91.4865 77.986H89.295V72.7214L89.2698 72.7466ZM91.3605 74.7114C91.7132 74.7114 91.9147 74.4847 91.9147 74.132C91.9147 73.7794 91.7132 73.5275 91.3102 73.5275H90.0759V74.7114H91.3605ZM91.4109 77.1799C91.9903 77.1799 92.3429 76.9028 92.3429 76.3739C92.3429 75.8449 92.0155 75.5426 91.4865 75.5426H90.0759V77.2051H91.4109V77.1799Z"/>
<path fill="black" d="M94.887 75.8953V72.7214H95.7183V75.8449C95.7183 76.7013 96.1465 77.2051 96.8518 77.2051C97.5571 77.2051 97.9853 76.7013 97.9853 75.8449V72.7214H98.8166V75.8953C98.8166 77.2555 98.0609 78.0615 96.877 78.0615C95.6931 78.0615 94.9122 77.2303 94.9122 75.8953H94.887Z"/>
<path fill="black" d="M100.454 77.3059L100.781 76.6006C101.159 76.9532 101.613 77.2051 102.293 77.2051C102.973 77.2051 103.275 76.928 103.275 76.4494C103.275 75.9708 102.797 75.8197 102.343 75.6938C101.512 75.467 100.63 75.1648 100.63 74.1068C100.63 73.0489 101.436 72.6207 102.293 72.6207C103.149 72.6207 103.451 72.8222 103.93 73.2L103.603 73.9305C103.2 73.6282 102.771 73.5023 102.293 73.5023C101.814 73.5023 101.461 73.6534 101.461 74.132C101.461 74.6106 101.865 74.6862 102.419 74.8373C103.3 75.064 104.132 75.4419 104.132 76.4746C104.132 77.5074 103.174 78.0615 102.268 78.0615C101.361 78.0615 100.731 77.6333 100.429 77.3059H100.454Z"/>
<path fill="black" d="M105.895 72.7466H106.726V78.0112H105.895V72.7466Z"/>
<path fill="black" d="M108.615 72.7466H109.446L111.084 75.3159C111.411 75.8197 111.789 76.5502 111.789 76.5502V72.7214H112.62V77.986H111.764L110.202 75.5426C109.799 74.9129 109.446 74.2076 109.446 74.2076V77.986H108.615V72.7214V72.7466Z"/>
<path fill="black" d="M114.51 72.7466H118.061V73.5527H115.316V74.8373H117.91V75.6434H115.316V77.1799H118.162V77.986H114.51V72.7214V72.7466Z"/>
<path fill="black" d="M119.547 77.3059L119.875 76.6006C120.253 76.9532 120.706 77.2051 121.386 77.2051C122.066 77.2051 122.369 76.928 122.369 76.4494C122.369 75.9708 121.89 75.8197 121.437 75.6938C120.605 75.467 119.724 75.1648 119.724 74.1068C119.724 73.0489 120.53 72.6207 121.386 72.6207C122.243 72.6207 122.545 72.8222 123.023 73.2L122.696 73.9305C122.293 73.6282 121.865 73.5023 121.386 73.5023C120.908 73.5023 120.555 73.6534 120.555 74.132C120.555 74.6106 120.958 74.6862 121.512 74.8373C122.394 75.064 123.225 75.4419 123.225 76.4746C123.225 77.5074 122.268 78.0615 121.361 78.0615C120.454 78.0615 119.824 77.6333 119.522 77.3059H119.547Z"/>
<path fill="black" d="M124.787 77.3059L125.114 76.6006C125.492 76.9532 125.945 77.2051 126.626 77.2051C127.306 77.2051 127.608 76.928 127.608 76.4494C127.608 75.9708 127.129 75.8197 126.676 75.6938C125.845 75.467 124.963 75.1648 124.963 74.1068C124.963 73.0489 125.769 72.6207 126.626 72.6207C127.482 72.6207 127.784 72.8222 128.263 73.2L127.935 73.9305C127.532 73.6282 127.104 73.5023 126.626 73.5023C126.147 73.5023 125.794 73.6534 125.794 74.132C125.794 74.6106 126.197 74.6862 126.751 74.8373C127.633 75.064 128.464 75.4419 128.464 76.4746C128.464 77.5074 127.507 78.0615 126.6 78.0615C125.694 78.0615 125.064 77.6333 124.762 77.3059H124.787Z"/>
<defs>
<radialGradient gradientTransform="translate(58.5389 32.8468) scale(18.4889 18.4889)" gradientUnits="userSpaceOnUse" r="1" cy="0" cx="0" id="paint0_radial_2_1303">
<stop stop-color="#2892CE"/>
<stop stop-color="#1458A2" offset="1"/>
</radialGradient>
<radialGradient gradientTransform="translate(65.063 19.8995) scale(20.5796 20.5796)" gradientUnits="userSpaceOnUse" r="1" cy="0" cx="0" id="paint1_radial_2_1303">
<stop stop-color="#2892CE"/>
<stop stop-color="#1458A2" offset="1"/>
</radialGradient>
</defs>
</svg>