<svg width="18" height="17" viewBox="0 0 18 17" fill="none" xmlns="http://www.w3.org/2000/svg">
<g id="elements">
<path id="Rectangle 2256" d="M5.51547 13C3.92313 13 3.12696 13 2.56012 12.6601C2.18965 12.438 1.89119 12.1203 1.69856 11.7431C1.40384 11.1661 1.48307 10.403 1.64151 8.87686C1.77377 7.60289 1.83991 6.96591 2.16513 6.4981C2.37865 6.19097 2.66744 5.93923 3.00598 5.76515C3.52161 5.5 4.18623 5.5 5.51547 5.5H12.4845C13.8138 5.5 14.4784 5.5 14.994 5.76515C15.3326 5.93923 15.6214 6.19097 15.8349 6.4981C16.1601 6.96591 16.2262 7.60289 16.3585 8.87686C16.5169 10.403 16.5962 11.1661 16.3014 11.7431C16.1088 12.1203 15.8104 12.438 15.4399 12.6601C14.873 13 14.0769 13 12.4845 13" stroke="#898989" stroke-width="1.5"/>
<path id="Vector 249" d="M12.75 5.5V4C12.75 2.58579 12.75 1.87868 12.3107 1.43934C11.8713 1 11.1642 1 9.75 1H8.25C6.83579 1 6.12868 1 5.68934 1.43934C5.25 1.87868 5.25 2.58579 5.25 4V5.5" stroke="#898989" stroke-width="1.5" stroke-linejoin="round"/>
<path id="Vector 250" d="M10.4915 11.5L7.50849 11.5C6.99452 11.5 6.73753 11.5 6.51887 11.5816C6.22733 11.6905 5.9777 11.902 5.80965 12.1824C5.68361 12.3928 5.62128 12.6633 5.49663 13.2043C5.30185 14.0496 5.20446 14.4723 5.2707 14.8112C5.35901 15.263 5.63428 15.6455 6.01689 15.8481C6.30384 16 6.70539 16 7.50849 16L10.4915 16C11.2946 16 11.6962 16 11.9831 15.8481C12.3657 15.6455 12.641 15.263 12.7293 14.8112C12.7955 14.4723 12.6982 14.0496 12.5034 13.2043C12.3787 12.6633 12.3164 12.3928 12.1904 12.1824C12.0223 11.902 11.7727 11.6905 11.4811 11.5816C11.2625 11.5 11.0055 11.5 10.4915 11.5Z" stroke="#898989" stroke-width="1.5" stroke-linejoin="round"/>
<path id="Vector" d="M13.5 8.5H13.5067" stroke="#898989" stroke-width="2" stroke-linecap="round" stroke-linejoin="round"/>
</g>
</svg>
