<svg width="18" height="19" viewBox="0 0 18 19" fill="none" xmlns="http://www.w3.org/2000/svg">
<path d="M16.2537 5.85019L15.8835 5.20774C15.6036 4.72186 15.4636 4.47893 15.2254 4.38205C14.9872 4.28518 14.7179 4.36162 14.1791 4.5145L13.2639 4.77228C12.92 4.85159 12.5591 4.8066 12.245 4.64524L11.9924 4.49945C11.7231 4.32697 11.5159 4.07264 11.4013 3.7737L11.1508 3.02566C10.9861 2.53064 10.9038 2.28314 10.7077 2.14157C10.5117 2 10.2513 2 9.73056 2H8.89448C8.37371 2 8.11333 2 7.91729 2.14157C7.72126 2.28314 7.63892 2.53064 7.47424 3.02566L7.22377 3.7737C7.10911 4.07264 6.90197 4.32697 6.63265 4.49945L6.37999 4.64524C6.06593 4.8066 5.70507 4.85159 5.36111 4.77228L4.44593 4.5145C3.90719 4.36162 3.63781 4.28518 3.39963 4.38205C3.16145 4.47893 3.02146 4.72186 2.74149 5.20774L2.3713 5.85019C2.10887 6.30562 1.97765 6.53334 2.00312 6.77576C2.02859 7.01817 2.20425 7.21352 2.55557 7.60423L3.32885 8.46876C3.51785 8.70803 3.65203 9.125 3.65203 9.49988C3.65203 9.875 3.51789 10.2919 3.32887 10.5312L2.55557 11.3957C2.20425 11.7864 2.02859 11.9818 2.00312 12.2242C1.97765 12.4666 2.10887 12.6943 2.3713 13.1498L2.74148 13.7922C3.02145 14.278 3.16145 14.521 3.39963 14.6179C3.63781 14.7148 3.90719 14.6383 4.44595 14.4854L5.36108 14.2276C5.7051 14.1483 6.06603 14.1933 6.38013 14.3547L6.63275 14.5005C6.90201 14.673 7.10911 14.9273 7.22375 15.2262L7.47424 15.9743C7.63892 16.4694 7.72126 16.7169 7.91729 16.8584C8.11333 17 8.37371 17 8.89448 17H9.73056C10.2513 17 10.5117 17 10.7077 16.8584C10.9038 16.7169 10.9861 16.4694 11.1508 15.9743L11.4013 15.2262C11.5159 14.9273 11.723 14.673 11.9923 14.5005L12.2449 14.3547C12.559 14.1933 12.9199 14.1483 13.264 14.2276L14.1791 14.4854C14.7178 14.6383 14.9872 14.7148 15.2254 14.6179C15.4636 14.521 15.6036 14.278 15.8836 13.7922L16.2537 13.1498L16.2537 13.1497C16.5162 12.6943 16.6474 12.4666 16.6219 12.2242C16.5965 11.9818 16.4208 11.7864 16.0695 11.3957L16.0695 11.3957L15.2962 10.5312C15.1071 10.2919 14.973 9.875 14.973 9.49988C14.973 9.125 15.1072 8.70803 15.2962 8.46876L16.0695 7.60423C16.4208 7.21352 16.5965 7.01817 16.6219 6.77576C16.6474 6.53334 16.5162 6.30562 16.2537 5.85019Z" stroke="#898989" stroke-width="1.5" stroke-linecap="round"/>
<path d="M11.9054 9.49609C11.9054 10.9458 10.7301 12.1211 9.2804 12.1211C7.83065 12.1211 6.6554 10.9458 6.6554 9.49609C6.6554 8.04635 7.83065 6.87109 9.2804 6.87109C10.7301 6.87109 11.9054 8.04635 11.9054 9.49609Z" stroke="#898989" stroke-width="1.5"/>
</svg>
