<svg width="20" height="20" viewBox="0 0 20 20" fill="none" xmlns="http://www.w3.org/2000/svg">
<path d="M6.12813 14.9993C4.35887 14.9993 3.47423 14.9993 2.84442 14.6217C2.43278 14.3749 2.10116 14.0219 1.88713 13.6028C1.55966 12.9616 1.64769 12.1138 1.82374 10.4181C1.9707 9.00256 2.04418 8.2948 2.40553 7.77502C2.64278 7.43376 2.96366 7.15405 3.33981 6.96063C3.91274 6.66602 4.6512 6.66602 6.12813 6.66602H13.8715C15.3485 6.66602 16.0869 6.66602 16.6599 6.96063C17.036 7.15405 17.3569 7.43376 17.5941 7.77502C17.9555 8.2948 18.029 9.00256 18.1759 10.4181C18.352 12.1138 18.44 12.9616 18.1125 13.6028C17.8985 14.0219 17.5669 14.3749 17.1553 14.6217C16.5254 14.9993 15.6408 14.9993 13.8715 14.9993" stroke="#2892CE" stroke-width="1.5"/>
<path d="M14.1668 6.66602V4.99935C14.1668 3.428 14.1668 2.64233 13.6787 2.15417C13.1905 1.66602 12.4048 1.66602 10.8335 1.66602H9.16683C7.59548 1.66602 6.80981 1.66602 6.32165 2.15417C5.8335 2.64233 5.8335 3.428 5.8335 4.99935V6.66602" stroke="#2892CE" stroke-width="1.5" stroke-linejoin="round"/>
<path d="M11.6574 13.334L8.34293 13.334C7.77185 13.334 7.4863 13.334 7.24335 13.4247C6.91942 13.5457 6.64205 13.7806 6.45533 14.0923C6.31529 14.326 6.24603 14.6265 6.10753 15.2276C5.89111 16.1669 5.78289 16.6365 5.85649 17.0131C5.95462 17.5151 6.26047 17.9401 6.68559 18.1652C7.00443 18.334 7.4506 18.334 8.34293 18.334L11.6574 18.334C12.5497 18.334 12.9959 18.334 13.3147 18.1652C13.7399 17.9401 14.0457 17.5151 14.1438 17.0131C14.2174 16.6365 14.1092 16.1669 13.8928 15.2276C13.7543 14.6265 13.685 14.326 13.545 14.0923C13.3583 13.7806 13.0809 13.5457 12.757 13.4247C12.514 13.334 12.2285 13.334 11.6574 13.334Z" stroke="#2892CE" stroke-width="1.5" stroke-linejoin="round"/>
<path d="M15 10H15.0075" stroke="#2892CE" stroke-width="2" stroke-linecap="round" stroke-linejoin="round"/>
</svg>
