<svg width="22" height="22" viewBox="0 0 22 22" fill="none" xmlns="http://www.w3.org/2000/svg">
<path d="M6 21V11.2757C6 10.1939 6 9.65296 6.24458 9.19927C6.48915 8.74558 6.93843 8.45308 7.83697 7.86808L9.91849 6.51291C10.4437 6.17097 10.7063 6 11 6C11.2937 6 11.5563 6.17097 12.0815 6.51291L14.163 7.86808C15.0616 8.45308 15.5108 8.74558 15.7554 9.19927C16 9.65296 16 10.1939 16 11.2757V21" stroke="white" stroke-width="1.5" stroke-linecap="round" stroke-linejoin="round"/>
<path d="M11 12H11.009" stroke="white" stroke-width="2" stroke-linecap="round" stroke-linejoin="round"/>
<path d="M19 21V16.1623C19 13.8707 18.0556 13.6852 16 13" stroke="white" stroke-width="1.5" stroke-linecap="round" stroke-linejoin="round"/>
<path d="M3 21V16.1623C3 13.8707 3.94437 13.6852 6 13" stroke="white" stroke-width="1.5" stroke-linecap="round" stroke-linejoin="round"/>
<path d="M1 21H21" stroke="white" stroke-width="1.5" stroke-linecap="round" stroke-linejoin="round"/>
<path d="M11 6V3.98221M11 3.98221V1.97035C11 1.49615 11 1.25905 11.1464 1.11173C11.6061 0.649394 13.5 1.74303 14.2203 2.18653C14.8285 2.56105 15 3.30914 15 3.98221H11Z" stroke="white" stroke-width="1.5" stroke-linecap="round" stroke-linejoin="round"/>
<path d="M9 21L9 18C9 17.0572 9 16.5858 9.29289 16.2929C9.58579 16 10.0572 16 11 16C11.9428 16 12.4142 16 12.7071 16.2929C13 16.5858 13 17.0572 13 18V21" stroke="white" stroke-width="1.5" stroke-linecap="round" stroke-linejoin="round"/>
</svg>
