<svg width="22" height="22" viewBox="0 0 22 22" fill="none" xmlns="http://www.w3.org/2000/svg">
<path d="M1 21H21" stroke="white" stroke-width="1.5" stroke-linecap="round" stroke-linejoin="round"/>
<path d="M13 3H9C7.34533 3 7 3.34533 7 5V21H15V5C15 3.34533 14.6547 3 13 3Z" stroke="white" stroke-width="1.5" stroke-linejoin="round"/>
<path d="M7 12H4C2.34533 12 2 12.3453 2 14V21H7V12Z" stroke="white" stroke-width="1.5" stroke-linejoin="round"/>
<path d="M18 12H15V21H20V14C20 12.3453 19.6547 12 18 12Z" stroke="white" stroke-width="1.5" stroke-linejoin="round"/>
<path d="M11 3L11 1" stroke="white" stroke-width="1.5" stroke-linecap="round" stroke-linejoin="round"/>
<path d="M11 21L11 19" stroke="white" stroke-width="1.5" stroke-linecap="round" stroke-linejoin="round"/>
<path d="M10 14H12M10 10.5H12M10 7L12 7" stroke="white" stroke-width="1.5" stroke-linecap="round" stroke-linejoin="round"/>
</svg>
