<svg width="129" height="79" viewBox="0 0 129 79" fill="none" xmlns="http://www.w3.org/2000/svg">
<path d="M66.1351 41.5655C61.601 35.8224 57.0669 30.0792 52.5329 24.3613C56.2861 24.3613 60.0393 24.4116 63.7925 24.4116C65.0016 24.4116 66.1855 23.8575 66.8908 22.8751C67.4197 22.1446 67.6464 21.2378 67.4953 20.3813C67.3694 19.6509 66.9663 18.9707 66.3618 18.467C65.7069 17.9128 64.8504 17.6357 63.994 17.6357L37.9987 17.5602C37.2934 19.8272 36.9155 22.2454 36.9155 24.7391C36.9155 38.165 47.7973 49.0467 61.2232 49.0467C74.6491 49.0467 74.2712 46.2003 78.6793 41.6411C74.4979 41.6159 70.3165 41.5907 66.1099 41.5403L66.1351 41.5655Z" fill="url(#paint0_radial_538_18504)"/>
<path d="M67.9235 8.64315C73.969 9.47439 78.3267 14.6382 78.1252 20.1798C77.9741 24.8147 74.6491 29.0465 69.8379 30.5074C73.1881 33.782 76.5383 37.0315 79.8884 40.3061C83.3898 36.0995 85.5057 30.6838 85.5057 24.7643C85.5057 11.3384 74.6239 0.456635 61.198 0.456635C47.7721 0.456635 47.5454 3.58011 43.0869 8.54239L67.8983 8.64315H67.9235Z" fill="url(#paint1_radial_538_18504)"/>
<path d="M21.4997 69.2989H15.4039L12.1293 65.3442H5.12664V69.2989H0.567383V61.6665H13.3635C14.7741 61.6665 15.8825 61.0116 15.8825 60.004C15.8825 58.9965 14.9253 58.266 13.3635 58.266H0.567383L3.53972 54.3868H13.0109C16.3611 54.3868 20.5929 55.4448 20.5929 59.7018C20.5929 63.9588 19.1571 63.9336 16.7389 64.4374C17.2427 64.8152 17.7968 65.3442 18.8044 66.4021L21.4997 69.2989Z" fill="#201D1E"/>
<path d="M40.5176 65.4449L37.5956 69.2737H23.4141V54.3616H40.4672L37.5201 58.2408H27.9985V60.0292H39.6611L37.0415 63.4046H27.9985V65.4449H40.5176Z" fill="#201D1E"/>
<path d="M55.203 68.7447L46.1852 60.533V69.2989H42.0542V56.9309C42.0542 54.941 43.2381 54.1349 44.5479 54.1349C45.8578 54.1349 45.6563 54.2609 46.3867 54.941L55.4045 63.1527V54.3868H59.5607V66.7296C59.5607 68.7195 58.3768 69.5256 57.0418 69.5256C55.7068 69.5256 55.9083 69.3996 55.203 68.7195V68.7447Z" fill="#201D1E"/>
<path d="M80.896 54.6639L77.9488 58.5431H72.6843V69.576H68.125V58.5431H61.2231L64.1703 54.6639H80.896Z" fill="#201D1E"/>
<path d="M100.065 65.0167C100.065 67.5356 98.7047 69.45 94.0195 69.45H80.9463V60.1804H94.1203C94.7752 60.1804 95.4049 59.9285 95.4049 59.1476C95.4049 58.3667 94.75 58.1652 94.1203 58.1652H80.9463L84.0698 54.2105H93.9188C97.4704 54.2105 99.7627 55.6211 99.7627 58.4171C99.7627 61.2131 98.7551 61.2131 97.7475 61.6162C99.0322 61.994 100.09 63.1779 100.09 65.0167H100.065ZM85.5559 63.4298V65.5205H94.0195C95.0271 65.5205 95.4553 65.1678 95.4553 64.4374C95.4553 63.7069 95.0271 63.4046 94.0195 63.4046H85.5559V63.4298Z" fill="#201D1E"/>
<path d="M107.219 69.4752H102.609V54.2861H107.219V69.4752Z" fill="#201D1E"/>
<path d="M125.607 69.45H111.501C110.342 69.45 109.36 68.7699 109.36 67.5356C109.36 66.3014 109.737 66.1502 110.367 65.6464L115.783 61.2635C118.251 59.2232 119.309 58.4927 119.864 58.0645C119.057 58.14 117.697 58.1652 114.75 58.1652H108.78L111.727 54.2105H125.456C126.614 54.2105 127.597 54.8906 127.597 56.1249C127.597 57.3592 127.219 57.5103 126.589 57.9889L121.098 62.4474C118.654 64.4374 117.622 65.193 117.042 65.6213C117.773 65.5709 120.619 65.5205 122.962 65.5205H128.378L125.607 69.45Z" fill="#201D1E"/>
<path d="M0.189453 73.2032H3.74114V74.0093H0.995509V75.2939H3.59V76.1H0.995509V77.6365H3.8419V78.4426H0.189453V73.178V73.2032Z" fill="black"/>
<path d="M5.42871 73.2032H6.25996L7.89726 75.7725C8.22472 76.2763 8.60256 77.0068 8.60256 77.0068V73.178H9.4338V78.4426H8.57737L7.01564 75.9992C6.61261 75.3695 6.25996 74.6642 6.25996 74.6642V78.4426H5.42871V73.178V73.2032Z" fill="black"/>
<path d="M11.3481 73.2032H14.8998V74.0093H12.1542V75.2939H14.7487V76.1H12.1542V77.6365H15.0006V78.4426H11.3481V73.178V73.2032Z" fill="black"/>
<path d="M16.5879 73.2032H18.5275C19.8373 73.2032 20.5426 74.1101 20.5426 75.2184C20.5426 76.3267 20.2151 76.5786 19.6106 76.9313L20.6182 78.4678H19.661L18.8549 77.1831C18.729 77.1831 18.5778 77.2335 18.4519 77.2335H17.4191V78.4678H16.5879V73.2032ZM18.5527 76.4023C19.2076 76.4023 19.661 75.8733 19.661 75.2184C19.661 74.5635 19.2076 74.0093 18.5527 74.0093H17.3939V76.4023H18.5527Z" fill="black"/>
<path d="M22.0537 75.8229C22.0537 74.3116 23.0865 73.1277 24.4719 73.1277C25.8573 73.1277 25.6306 73.3796 26.0336 73.7574L25.555 74.3871C25.2528 74.0849 24.9001 73.9589 24.4719 73.9589C23.5651 73.9589 22.9101 74.7902 22.9101 75.8229C22.9101 76.8557 23.5651 77.6869 24.4719 77.6869C25.3787 77.6869 25.3787 77.4351 25.6558 77.0572V76.1504H24.8245V75.3695H26.4618V77.4099C26.0588 78.1152 25.3031 78.5434 24.4719 78.5434C23.0865 78.5434 22.0537 77.3343 22.0537 75.8481V75.8229Z" fill="black"/>
<path d="M28.3008 73.2032H29.132V78.4678H28.3008V73.2032Z" fill="black"/>
<path d="M30.769 77.7373L33.0613 74.5635C33.3132 74.1856 33.4895 74.0093 33.4895 74.0093H30.895V73.2032H34.5222V73.9337L32.3308 77.0068C32.0537 77.3847 31.827 77.6617 31.827 77.6617H34.5978V78.4678H30.7942V77.7625L30.769 77.7373Z" fill="black"/>
<path d="M36.21 73.2032H37.0412V78.4678H36.21V73.2032Z" fill="black"/>
<path d="M38.9307 73.2032H39.7619L41.3992 75.7725C41.7267 76.2763 42.1045 77.0068 42.1045 77.0068V73.178H42.9358V78.4426H42.0793L40.5176 75.9992C40.1146 75.3695 39.7619 74.6642 39.7619 74.6642V78.4426H38.9307V73.178V73.2032Z" fill="black"/>
<path d="M44.6484 75.8229C44.6484 74.3116 45.6812 73.1277 47.0666 73.1277C48.452 73.1277 48.2253 73.3796 48.6283 73.7574L48.1497 74.3871C47.8475 74.0849 47.4948 73.9589 47.0666 73.9589C46.1598 73.9589 45.5049 74.7902 45.5049 75.8229C45.5049 76.8557 46.1598 77.6869 47.0666 77.6869C47.9734 77.6869 47.9734 77.4351 48.2505 77.0572V76.1504H47.4193V75.3695H49.0566V77.4099C48.6535 78.1152 47.8979 78.5434 47.0666 78.5434C45.6812 78.5434 44.6484 77.3343 44.6484 75.8481V75.8229Z" fill="black"/>
<path d="M53.3638 73.2032H55.3033C56.6132 73.2032 57.3185 74.1101 57.3185 75.2184C57.3185 76.3267 56.991 76.5786 56.3865 76.9313L57.3941 78.4678H56.4369L55.6308 77.1831C55.5049 77.1831 55.3537 77.2335 55.2278 77.2335H54.195V78.4678H53.3638V73.2032ZM55.3537 76.4023C56.0086 76.4023 56.462 75.8733 56.462 75.2184C56.462 74.5635 56.0086 74.0093 55.3537 74.0093H54.195V76.4023H55.3537Z" fill="black"/>
<path d="M59.0063 73.2032H62.558V74.0093H59.8124V75.2939H62.4069V76.1H59.8124V77.6365H62.6588V78.4426H59.0063V73.178V73.2032Z" fill="black"/>
<path d="M64.2456 73.2032H65.0769L66.7142 75.7725C67.0416 76.2763 67.4195 77.0068 67.4195 77.0068V73.178H68.2507V78.4426H67.3943L65.8325 75.9992C65.4295 75.3695 65.0769 74.6642 65.0769 74.6642V78.4426H64.2456V73.178V73.2032Z" fill="black"/>
<path d="M71.4246 74.0093H69.8125V73.2032H73.868V74.0093H72.2559V78.4426H71.4246V74.0093Z" fill="black"/>
<path d="M76.513 73.2032H77.2939L79.3594 78.4678H78.5281L78.1755 77.561H75.6566L75.3039 78.4678H74.4727L76.5382 73.2032H76.513ZM77.8984 76.7801L77.3694 75.4199C77.1679 74.8909 76.916 74.1856 76.916 74.1856C76.916 74.1856 76.6641 74.8909 76.4626 75.4199L75.9336 76.7801H77.8984Z" fill="black"/>
<path d="M80.8457 73.2032H81.6769V77.6365H84.4226V78.4426H80.8457V73.178V73.2032Z" fill="black"/>
<path d="M88.5532 73.2032H90.6943C91.45 73.2032 92.0797 73.6063 92.0797 74.5383C92.0797 75.4703 91.853 75.3443 91.6011 75.4703C92.1301 75.5962 92.5079 76.1252 92.5079 76.8053C92.5079 77.8884 91.8026 78.4426 90.7699 78.4426H88.5784V73.178L88.5532 73.2032ZM90.6439 75.168C90.9966 75.168 91.1981 74.9413 91.1981 74.5886C91.1981 74.236 90.9966 73.9841 90.5936 73.9841H89.3593V75.168H90.6439ZM90.6943 77.6365C91.2737 77.6365 91.6263 77.3595 91.6263 76.8305C91.6263 76.3015 91.2989 75.9992 90.7699 75.9992H89.3593V77.6617H90.6943V77.6365Z" fill="black"/>
<path d="M94.1704 76.3519V73.178H95.0017V76.3015C95.0017 77.1579 95.4299 77.6617 96.1352 77.6617C96.8405 77.6617 97.2687 77.1579 97.2687 76.3015V73.178H98.0999V76.3519C98.0999 77.7121 97.3443 78.5182 96.1604 78.5182C94.9765 78.5182 94.1956 77.6869 94.1956 76.3519H94.1704Z" fill="black"/>
<path d="M99.7376 77.7625L100.065 77.0572C100.443 77.4099 100.896 77.6617 101.576 77.6617C102.257 77.6617 102.559 77.3847 102.559 76.9061C102.559 76.4275 102.08 76.2763 101.627 76.1504C100.796 75.9237 99.9139 75.6214 99.9139 74.5635C99.9139 73.5055 100.72 73.0773 101.576 73.0773C102.433 73.0773 102.735 73.2788 103.214 73.6567L102.886 74.3871C102.483 74.0849 102.055 73.9589 101.576 73.9589C101.098 73.9589 100.745 74.1101 100.745 74.5887C100.745 75.0673 101.148 75.1428 101.702 75.294C102.584 75.5207 103.415 75.8985 103.415 76.9313C103.415 77.964 102.458 78.5182 101.551 78.5182C100.644 78.5182 100.015 78.09 99.7124 77.7625H99.7376Z" fill="black"/>
<path d="M105.178 73.2032H106.009V78.4678H105.178V73.2032Z" fill="black"/>
<path d="M107.899 73.2032H108.73L110.367 75.7725C110.695 76.2763 111.073 77.0068 111.073 77.0068V73.178H111.904V78.4426H111.048L109.486 75.9992C109.083 75.3695 108.73 74.6642 108.73 74.6642V78.4426H107.899V73.178V73.2032Z" fill="black"/>
<path d="M113.793 73.2032H117.345V74.0093H114.599V75.2939H117.194V76.1H114.599V77.6365H117.445V78.4426H113.793V73.178V73.2032Z" fill="black"/>
<path d="M118.831 77.7625L119.158 77.0572C119.536 77.4099 119.99 77.6617 120.67 77.6617C121.35 77.6617 121.652 77.3847 121.652 76.9061C121.652 76.4275 121.173 76.2763 120.72 76.1504C119.889 75.9237 119.007 75.6214 119.007 74.5635C119.007 73.5055 119.813 73.0773 120.67 73.0773C121.526 73.0773 121.828 73.2788 122.307 73.6567L121.98 74.3871C121.576 74.0849 121.148 73.9589 120.67 73.9589C120.191 73.9589 119.838 74.1101 119.838 74.5887C119.838 75.0673 120.241 75.1428 120.796 75.294C121.677 75.5207 122.508 75.8985 122.508 76.9313C122.508 77.964 121.551 78.5182 120.644 78.5182C119.738 78.5182 119.108 78.09 118.806 77.7625H118.831Z" fill="black"/>
<path d="M124.07 77.7625L124.398 77.0572C124.775 77.4099 125.229 77.6617 125.909 77.6617C126.589 77.6617 126.891 77.3847 126.891 76.9061C126.891 76.4275 126.413 76.2763 125.959 76.1504C125.128 75.9237 124.246 75.6214 124.246 74.5635C124.246 73.5055 125.052 73.0773 125.909 73.0773C126.765 73.0773 127.068 73.2788 127.546 73.6567L127.219 74.3871C126.816 74.0849 126.388 73.9589 125.909 73.9589C125.43 73.9589 125.078 74.1101 125.078 74.5887C125.078 75.0673 125.481 75.1428 126.035 75.294C126.916 75.5207 127.748 75.8985 127.748 76.9313C127.748 77.964 126.791 78.5182 125.884 78.5182C124.977 78.5182 124.347 78.09 124.045 77.7625H124.07Z" fill="black"/>
<defs>
<radialGradient id="paint0_radial_538_18504" cx="0" cy="0" r="1" gradientUnits="userSpaceOnUse" gradientTransform="translate(57.8226 33.3034) scale(18.4889 18.4889)">
<stop stop-color="#2892CE"/>
<stop offset="1" stop-color="#1458A2"/>
</radialGradient>
<radialGradient id="paint1_radial_538_18504" cx="0" cy="0" r="1" gradientUnits="userSpaceOnUse" gradientTransform="translate(64.3467 20.3562) scale(20.5796 20.5796)">
<stop stop-color="#2892CE"/>
<stop offset="1" stop-color="#1458A2"/>
</radialGradient>
</defs>
</svg>
