<svg width="22" height="19" viewBox="0 0 22 19" fill="none" xmlns="http://www.w3.org/2000/svg">
<path d="M1 1.81333L2.28 0.543335L19 17.2633L17.73 18.5433L14.65 15.4633C13.5 15.8433 12.28 16.0433 11 16.0433C6 16.0433 1.73 12.9333 0 8.54333C0.69 6.78333 1.79 5.23334 3.19 4.00333L1 1.81333ZM11 5.54333C11.7956 5.54333 12.5587 5.85941 13.1213 6.42201C13.6839 6.98462 14 7.74769 14 8.54333C14 8.89334 13.94 9.23333 13.83 9.54333L10 5.71334C10.31 5.60333 10.65 5.54333 11 5.54333ZM11 1.04333C16 1.04333 20.27 4.15334 22 8.54333C21.18 10.6233 19.79 12.4233 18 13.7333L16.58 12.3033C17.94 11.3633 19.06 10.0833 19.82 8.54333C18.17 5.18334 14.76 3.04333 11 3.04333C9.91 3.04333 8.84 3.22334 7.84 3.54333L6.3 2.01333C7.74 1.39333 9.33 1.04333 11 1.04333ZM2.18 8.54333C3.83 11.9033 7.24 14.0433 11 14.0433C11.69 14.0433 12.37 13.9733 13 13.8333L10.72 11.5433C9.29 11.3933 8.15 10.2533 8 8.82333L4.6 5.41333C3.61 6.26333 2.78 7.32333 2.18 8.54333Z" fill="#9A999C"/>
</svg>
