<svg width="18" height="19" viewBox="0 0 18 19" fill="none" xmlns="http://www.w3.org/2000/svg">
<path d="M14.8333 3.25348C15.1198 3.29531 15.3981 3.34765 15.6667 3.40969C16.1593 3.52348 16.4057 3.58038 16.7008 3.8159C16.8692 3.95022 17.0793 4.21612 17.1716 4.41158C17.3333 4.75431 17.3333 5.08665 17.3333 5.75133V14.8034C17.3333 15.631 16.4666 16.1994 15.6667 16.0146C14.9003 15.8376 14.0549 15.7395 13.1667 15.7395C11.5691 15.7395 10.1104 16.0568 8.99999 16.5798C7.88954 17.1028 6.43088 17.4201 4.83332 17.4201C3.94506 17.4201 3.09973 17.322 2.33332 17.145C1.84065 17.0312 1.59432 16.9743 1.29914 16.7388C1.13079 16.6045 0.92068 16.3386 0.82842 16.1431C0.666656 15.8004 0.666656 15.4681 0.666656 14.8034V5.75133C0.666656 4.92375 1.53335 4.35534 2.33332 4.5401C2.60192 4.60214 2.88022 4.65449 3.16666 4.69632" stroke="#201D1E" stroke-width="1.2" stroke-linecap="round"/>
<path d="M11.0833 10.3368C11.0833 11.4874 10.1506 12.4201 8.99999 12.4201C7.8494 12.4201 6.91666 11.4874 6.91666 10.3368C6.91666 9.18622 7.8494 8.25348 8.99999 8.25348C10.1506 8.25348 11.0833 9.18622 11.0833 10.3368Z" stroke="#201D1E" stroke-width="1.2"/>
<path d="M3.58331 11.1702L3.58331 11.1777" stroke="#201D1E" stroke-width="2" stroke-linecap="round" stroke-linejoin="round"/>
<path d="M14.4167 9.49695L14.4167 9.50443" stroke="#201D1E" stroke-width="2" stroke-linecap="round" stroke-linejoin="round"/>
<path d="M8.99999 0.753479V4.08681M5.66666 3.25348L5.66666 4.92015M12.3333 1.58681V3.25348" stroke="#201D1E" stroke-width="1.2" stroke-linecap="round"/>
</svg>
