<svg width="18" height="19" viewBox="0 0 18 19" fill="none" xmlns="http://www.w3.org/2000/svg">
<path d="M0.666656 7.42017C0.666656 4.65588 2.90237 2.42017 5.66666 2.42017L4.95237 3.84874" stroke="#201D1E" stroke-width="1.2" stroke-linecap="round" stroke-linejoin="round"/>
<path d="M17.3333 10.7535C17.3333 13.5178 15.0976 15.7535 12.3333 15.7535L13.0476 14.3249" stroke="#201D1E" stroke-width="1.2" stroke-linecap="round" stroke-linejoin="round"/>
<path d="M13.375 1.18314C14.9003 0.554212 16.2429 0.763618 16.9709 0.897099C17.1782 0.935094 17.3333 1.13832 17.3333 1.37455V6.75703C17.3333 7.03917 17.115 7.2496 16.8673 7.20579C16.1197 7.07361 14.8305 6.91036 13.375 7.51053C11.81 8.15583 10.235 8.27722 9.37543 8.24998C9.16157 8.2432 9 8.04154 9 7.80085V2.4157C9 2.13824 9.21271 1.91996 9.4593 1.92472C10.3348 1.94161 11.8597 1.80798 13.375 1.18314Z" stroke="#201D1E" stroke-width="1.2" stroke-linecap="round" stroke-linejoin="round"/>
<path d="M5.04166 10.3498C6.56692 9.7209 7.90953 9.93031 8.6376 10.0638C8.84485 10.1018 8.99999 10.305 8.99999 10.5412V15.9237C8.99999 16.2059 8.78167 16.4163 8.53392 16.3725C7.78638 16.2403 6.49719 16.077 5.04166 16.6772C3.47671 17.3225 1.90163 17.4439 1.04209 17.4167C0.828229 17.4099 0.666656 17.2082 0.666656 16.9675V11.5824C0.666656 11.3049 0.879362 11.0867 1.12596 11.0914C2.00148 11.1083 3.52631 10.9747 5.04166 10.3498Z" stroke="#201D1E" stroke-width="1.2" stroke-linecap="round" stroke-linejoin="round"/>
<path d="M13.1665 4.50348H13.174" stroke="#201D1E" stroke-width="2" stroke-linecap="round" stroke-linejoin="round"/>
<path d="M4.83315 13.6702H4.84064" stroke="#201D1E" stroke-width="2" stroke-linecap="round" stroke-linejoin="round"/>
</svg>
