<svg width="20" height="19" viewBox="0 0 20 19" fill="none" xmlns="http://www.w3.org/2000/svg">
<path d="M8.33333 4.08674C8.33333 2.24579 6.84095 0.753408 5 0.753408C3.15905 0.753408 1.66667 2.24579 1.66667 4.08674C1.66667 5.92769 3.15905 7.42007 5 7.42007C6.84095 7.42007 8.33333 5.92769 8.33333 4.08674Z" stroke="#201D1E" stroke-width="1.5"/>
<path d="M8.33333 14.0867C8.33333 12.2458 6.84095 10.7534 5 10.7534C3.15905 10.7534 1.66667 12.2458 1.66667 14.0867C1.66667 15.9277 3.15905 17.4201 5 17.4201C6.84095 17.4201 8.33333 15.9277 8.33333 14.0867Z" stroke="#201D1E" stroke-width="1.5"/>
<path d="M18.3333 4.08674C18.3333 2.24579 16.841 0.753408 15 0.753408C13.1591 0.753408 11.6667 2.24579 11.6667 4.08674C11.6667 5.92769 13.1591 7.42007 15 7.42007C16.841 7.42007 18.3333 5.92769 18.3333 4.08674Z" stroke="#201D1E" stroke-width="1.5"/>
<path d="M18.3333 14.0867C18.3333 12.2458 16.841 10.7534 15 10.7534C13.1591 10.7534 11.6667 12.2458 11.6667 14.0867C11.6667 15.9277 13.1591 17.4201 15 17.4201C16.841 17.4201 18.3333 15.9277 18.3333 14.0867Z" stroke="#201D1E" stroke-width="1.5"/>
</svg>
