<svg width="18" height="19" viewBox="0 0 18 19" fill="none" xmlns="http://www.w3.org/2000/svg">
<path d="M0.666656 9.42013C0.666656 6.90597 0.666656 5.64889 1.45522 4.86784C2.24377 4.08679 3.51294 4.08679 6.05127 4.08679H6.94871C9.48704 4.08679 10.7562 4.08679 11.5448 4.86784C12.3333 5.64889 12.3333 6.90597 12.3333 9.42013V12.0868C12.3333 14.6009 12.3333 15.858 11.5448 16.6391C10.7562 17.4201 9.48704 17.4201 6.94871 17.4201H6.05127C3.51294 17.4201 2.24377 17.4201 1.45522 16.6391C0.666656 15.858 0.666656 14.601 0.666656 12.0868V9.42013Z" stroke="#201D1E" stroke-width="1.2" stroke-linejoin="round"/>
<path d="M11.948 12.4201H12.7173C14.8933 12.4201 15.9813 12.4201 16.6573 11.7367C17.3333 11.0533 17.3333 9.95337 17.3333 7.75348V5.42015C17.3333 3.22026 17.3333 2.12031 16.6573 1.4369C15.9813 0.753479 14.8933 0.753479 12.7173 0.753479H11.948C9.77197 0.753479 8.68397 0.753479 8.00797 1.4369C7.41683 2.03453 7.34263 2.95068 7.33331 4.64237" stroke="#201D1E" stroke-width="1.2" stroke-linejoin="round"/>
<path d="M4 9.08679H6.5M4 13.2535H8.16667" stroke="#201D1E" stroke-width="1.2" stroke-linecap="round"/>
<path d="M7.75 1.58679L11.0833 4.50346" stroke="#201D1E" stroke-width="1.2" stroke-linejoin="round"/>
</svg>
