<svg width="18" height="18" viewBox="0 0 18 18" fill="none" xmlns="http://www.w3.org/2000/svg">
<path d="M13.1667 14.0868L13.1667 12.4202" stroke="#201D1E" stroke-width="1.2" stroke-linecap="round"/>
<path d="M9 14.0868L9 11.5868" stroke="#201D1E" stroke-width="1.2" stroke-linecap="round"/>
<path d="M4.83334 14.0868L4.83334 9.92017" stroke="#201D1E" stroke-width="1.2" stroke-linecap="round"/>
<path d="M4 4.92017C6.66422 7.64376 10.0281 8.32124 13.2844 7.41337M12.0734 6.14628L13.8014 6.99383C14.0064 7.09434 14.0617 7.32708 13.925 7.51365L12.7724 9.08683" stroke="#201D1E" stroke-width="1.2" stroke-linecap="round" stroke-linejoin="round"/>
<path d="M1.08334 9.08683C1.08334 5.35488 1.08334 3.4889 2.24271 2.32953C3.40208 1.17017 5.26806 1.17017 9.00001 1.17017C12.732 1.17017 14.5979 1.17017 15.7573 2.32953C16.9167 3.4889 16.9167 5.35488 16.9167 9.08683C16.9167 12.8188 16.9167 14.6848 15.7573 15.8441C14.5979 17.0035 12.732 17.0035 9.00001 17.0035C5.26806 17.0035 3.40208 17.0035 2.24271 15.8441C1.08334 14.6848 1.08334 12.8188 1.08334 9.08683Z" stroke="#201D1E" stroke-width="1.2" stroke-linejoin="round"/>
</svg>
