<svg width="18" height="19" viewBox="0 0 18 19" fill="none" xmlns="http://www.w3.org/2000/svg">
<path d="M15.68 0.753479C14.7522 0.753479 14 2.99206 14 5.75348H15.68C16.4897 5.75348 16.8945 5.75348 17.1451 5.47393C17.3957 5.19439 17.3521 4.82625 17.2648 4.08999C17.0345 2.14634 16.4119 0.753479 15.68 0.753479Z" stroke="#201D1E" stroke-width="1.2"/>
<path d="M14 5.7987V14.625C14 15.8847 14 16.5146 13.615 16.7625C12.9859 17.1677 12.0134 16.318 11.5243 16.0095C11.1201 15.7547 10.918 15.6272 10.6938 15.6199C10.4514 15.6119 10.2458 15.7341 9.80905 16.0095L8.21665 17.0138C7.78711 17.2847 7.57232 17.4201 7.33332 17.4201C7.09433 17.4201 6.87954 17.2847 6.44999 17.0138L4.85759 16.0095C4.45345 15.7547 4.25137 15.6272 4.0271 15.6199C3.78475 15.6119 3.57909 15.7341 3.14239 16.0095C2.65328 16.318 1.68072 17.1677 1.05162 16.7625C0.666656 16.5146 0.666656 15.8847 0.666656 14.625V5.7987C0.666656 3.42036 0.666656 2.23119 1.39889 1.49233C2.13112 0.753479 3.30963 0.753479 5.66666 0.753479H15.6667" stroke="#201D1E" stroke-width="1.2" stroke-linecap="round" stroke-linejoin="round"/>
<path d="M7.33332 5.7535C6.41285 5.7535 5.66666 6.31314 5.66666 7.0035C5.66666 7.69386 6.41285 8.2535 7.33332 8.2535C8.2538 8.2535 8.99999 8.81314 8.99999 9.5035C8.99999 10.1939 8.2538 10.7535 7.33332 10.7535M7.33332 5.7535C8.059 5.7535 8.67636 6.10134 8.90515 6.58683M7.33332 5.7535V4.92017M7.33332 10.7535C6.60765 10.7535 5.99029 10.4057 5.76149 9.92017M7.33332 10.7535V11.5868" stroke="#201D1E" stroke-width="1.2" stroke-linecap="round"/>
</svg>
