<svg width="20" height="21" viewBox="0 0 20 21" fill="none" xmlns="http://www.w3.org/2000/svg">
<path d="M12.5 14.7744C12.4387 16.3177 11.1526 17.6281 9.4297 17.5859C9.02887 17.5761 8.53344 17.4364 7.5426 17.1569C5.15801 16.4843 3.08796 15.3539 2.5913 12.8215C2.5 12.356 2.5 11.8322 2.5 10.7846L2.5 9.3892C2.5 8.34159 2.5 7.81779 2.5913 7.3523C3.08796 4.81996 5.15801 3.68955 7.5426 3.01694C8.53345 2.73745 9.02887 2.59771 9.4297 2.5879C11.1526 2.54576 12.4387 3.85614 12.5 5.39942" stroke="#201D1E" stroke-width="1.2" stroke-linecap="round"/>
<path d="M17.5002 10.0869H8.3335M17.5002 10.0869C17.5002 9.50335 15.8382 8.41315 15.4168 8.00354M17.5002 10.0869C17.5002 10.6704 15.8382 11.7606 15.4168 12.1702" stroke="#201D1E" stroke-width="1.2" stroke-linecap="round" stroke-linejoin="round"/>
</svg>
