<svg width="16" height="19" viewBox="0 0 16 19" fill="none" xmlns="http://www.w3.org/2000/svg">
<path d="M11.3333 13.2535L5.49998 13.2535" stroke="#201D1E" stroke-width="1.2" stroke-linecap="round" stroke-linejoin="round"/>
<path d="M11.3333 9.92017L8.83331 9.92017" stroke="#201D1E" stroke-width="1.2" stroke-linecap="round" stroke-linejoin="round"/>
<path d="M15.0833 10.7535C15.0833 13.8962 15.0833 15.4675 14.046 16.4439C13.0087 17.4202 11.3391 17.4202 7.99998 17.4202H7.35604C4.63837 17.4202 3.27953 17.4202 2.33587 16.7553C2.0655 16.5648 1.82546 16.3389 1.62306 16.0844C0.916646 15.1963 0.916646 13.9174 0.916646 11.3596V9.23835C0.916646 6.76904 0.916646 5.53438 1.30743 4.54829C1.93566 2.96302 3.26426 1.71257 4.94861 1.12129C5.99634 0.753499 7.30816 0.753499 9.9318 0.753499C11.431 0.753499 12.1806 0.753499 12.7793 0.963666C13.7418 1.30154 14.501 2.01608 14.86 2.92195C15.0833 3.48543 15.0833 4.19095 15.0833 5.60198V10.7535Z" stroke="#201D1E" stroke-width="1.2" stroke-linejoin="round"/>
<path d="M0.916667 9.08679C0.916667 7.55267 2.16032 6.30901 3.69444 6.30901C4.24926 6.30901 4.90336 6.40623 5.4428 6.26169C5.9221 6.13326 6.29647 5.75889 6.4249 5.2796C6.56944 4.74016 6.47222 4.08606 6.47222 3.53124C6.47222 1.99711 7.71588 0.753459 9.25 0.753459" stroke="#201D1E" stroke-width="1.2" stroke-linecap="round" stroke-linejoin="round"/>
</svg>
