<svg width="18" height="19" viewBox="0 0 18 19" fill="none" xmlns="http://www.w3.org/2000/svg">
<path d="M10.6666 5.75345H7.33331C5.26498 5.75345 4.83331 6.18512 4.83331 8.25345V17.4201H13.1666V8.25345C13.1666 6.18512 12.735 5.75345 10.6666 5.75345Z" stroke="#201D1E" stroke-width="1.2" stroke-linejoin="round"/>
<path d="M8.16666 9.08676L9.83332 9.08676M8.16666 11.5868H9.83332M8.16666 14.0868H9.83332" stroke="#201D1E" stroke-width="1.2" stroke-linecap="round" stroke-linejoin="round"/>
<path d="M16.5 17.4201V5.90814C16.5 4.88457 16.5 4.37278 16.2511 3.9615C16.0021 3.55022 15.5539 3.32134 14.6574 2.86358L11.0393 1.01625C10.0723 0.522485 9.83331 0.6965 9.83331 1.77739V5.50637" stroke="#201D1E" stroke-width="1.2" stroke-linecap="round" stroke-linejoin="round"/>
<path d="M1.5 17.4201V9.92009C1.5 9.23065 1.64389 9.08676 2.33333 9.08676H4.83333" stroke="#201D1E" stroke-width="1.2" stroke-linecap="round" stroke-linejoin="round"/>
<path d="M17.3333 17.4201H0.666656" stroke="#201D1E" stroke-width="1.2" stroke-linecap="round" stroke-linejoin="round"/>
</svg>
