<svg width="18" height="18" viewBox="0 0 18 18" fill="none" xmlns="http://www.w3.org/2000/svg">
<path d="M9.00163 6.58687C8.08115 6.58687 7.33496 7.14652 7.33496 7.83687C7.33496 8.52723 8.08115 9.08687 9.00163 9.08687C9.9221 9.08687 10.6683 9.64652 10.6683 10.3369C10.6683 11.0272 9.9221 11.5869 9.00163 11.5869M9.00163 6.58687C9.7273 6.58687 10.3447 6.93471 10.5735 7.42021M9.00163 6.58687V5.75354M9.00163 11.5869C8.27595 11.5869 7.6586 11.239 7.4298 10.7535M9.00163 11.5869V12.4202" stroke="#201D1E" stroke-width="1.2" stroke-linecap="round"/>
<path d="M9.83334 1.17017C9.83334 1.17017 9.56993 1.17017 9.00001 1.17017C5.26806 1.17017 3.40208 1.17017 2.24271 2.32954C1.08334 3.48891 1.08334 5.35488 1.08334 9.08684C1.08334 12.8188 1.08334 14.6848 2.24271 15.8441C3.40208 17.0035 5.26806 17.0035 9.00001 17.0035C12.732 17.0035 14.5979 17.0035 15.7573 15.8441C16.9167 14.6848 16.9167 12.8188 16.9167 9.08684C16.9167 8.51692 16.9167 8.2535 16.9167 8.2535" stroke="#201D1E" stroke-width="1.2" stroke-linecap="round"/>
<path d="M12.7094 4.49397C12.474 4.72719 12.4722 5.10709 12.7055 5.34249C12.9387 5.57789 13.3186 5.57965 13.554 5.34643L12.7094 4.49397ZM17.339 1.59639C17.5744 1.36317 17.5761 0.983274 17.3429 0.747875C17.1097 0.512476 16.7298 0.510713 16.4944 0.743938L17.339 1.59639ZM13.5597 5.14765L13.6644 4.55684L13.5597 5.14765ZM12.9394 4.52708L12.3485 4.6316V4.6316L12.9394 4.52708ZM16.4919 5.93332C16.8233 5.93785 17.0956 5.67292 17.1001 5.34159C17.1046 5.01025 16.8397 4.73797 16.5084 4.73343L16.4919 5.93332ZM13.3536 1.57861C13.3491 1.24727 13.0768 0.982364 12.7454 0.986921C12.4141 0.991478 12.1492 1.26378 12.1537 1.59512L13.3536 1.57861ZM13.554 5.34643L17.339 1.59639L16.4944 0.743938L12.7094 4.49397L13.554 5.34643ZM13.6644 4.55684C13.5864 4.54303 13.544 4.50068 13.5302 4.42255L12.3485 4.6316C12.4501 5.20574 12.8808 5.63674 13.4551 5.73845L13.6644 4.55684ZM13.4551 5.73845C14.2983 5.88778 15.7941 5.92377 16.4919 5.93332L16.5084 4.73343C15.7859 4.72354 14.3934 4.68595 13.6644 4.55684L13.4551 5.73845ZM12.1537 1.59512C12.1633 2.29297 12.1994 3.78851 12.3485 4.6316L13.5302 4.42255C13.4012 3.69345 13.3636 2.301 13.3536 1.57861L12.1537 1.59512Z" fill="#201D1E"/>
</svg>
