<svg width="18" height="19" viewBox="0 0 18 19" fill="none" xmlns="http://www.w3.org/2000/svg">
<path d="M14 3.6219C14 3.6219 15.6667 2.78564 16.7008 3.63233C16.8692 3.76846 17.0793 4.03794 17.1716 4.23605C17.3333 4.58339 17.3333 4.92021 17.3333 5.59386V14.768C17.3333 15.6067 16.4666 16.1828 15.6667 15.9955C14.9003 15.8161 14.0549 15.7167 13.1667 15.7167C11.5691 15.7167 10.1104 16.0383 8.99999 16.5684C7.88954 17.0984 6.43088 17.42 4.83332 17.42C3.94506 17.42 3.09973 17.3206 2.33332 17.1412C1.84065 17.0259 1.59432 16.9682 1.29914 16.7295C1.13079 16.5934 0.92068 16.3239 0.82842 16.1258C0.666656 15.7785 0.666656 15.4416 0.666656 14.768V5.59386C0.666656 4.75512 1.53335 4.17904 2.33332 4.3663C2.97893 4.51743 3.68055 4.6118 4.41666 4.6378" stroke="#201D1E" stroke-width="1.2" stroke-linecap="round"/>
<path d="M11.0833 10.3368C11.0833 11.4873 10.1506 12.4201 8.99999 12.4201C7.8494 12.4201 6.91666 11.4873 6.91666 10.3368C6.91666 9.18616 7.8494 8.25342 8.99999 8.25342C10.1506 8.25342 11.0833 9.18616 11.0833 10.3368Z" stroke="#201D1E" stroke-width="1.2"/>
<path d="M3.58331 11.17L3.58331 11.1775" stroke="#201D1E" stroke-width="2" stroke-linecap="round" stroke-linejoin="round"/>
<path d="M14.4167 9.49695L14.4167 9.50443" stroke="#201D1E" stroke-width="2" stroke-linecap="round" stroke-linejoin="round"/>
<path d="M6.91666 3.67008C7.32626 4.0915 8.41647 5.75342 8.99999 5.75342M11.0833 3.67009C10.6737 4.0915 9.58351 5.75342 8.99999 5.75342M8.99999 5.75342V0.753418" stroke="#201D1E" stroke-width="1.2" stroke-linecap="round" stroke-linejoin="round"/>
</svg>
