<svg width="18" height="19" viewBox="0 0 18 19" fill="none" xmlns="http://www.w3.org/2000/svg">
<path d="M6.49957 17.4201L6.2907 14.496C6.17841 12.9239 7.42349 11.5867 8.99957 11.5867C10.5756 11.5867 11.8207 12.9239 11.7084 14.496L11.4996 17.4201" stroke="#201D1E" stroke-width="1.2"/>
<path d="M0.959635 10.098C0.665452 8.18362 0.51836 7.22645 0.88028 6.3779C1.2422 5.52935 2.04516 4.94878 3.65109 3.78764L4.85097 2.92008C6.84872 1.47564 7.84759 0.753418 9.00014 0.753418C10.1527 0.753418 11.1516 1.47564 13.1493 2.92008L14.3492 3.78764C15.9551 4.94878 16.7581 5.52935 17.12 6.3779C17.4819 7.22645 17.3348 8.18362 17.0406 10.098L16.7898 11.7304C16.3727 14.4442 16.1642 15.8011 15.191 16.6106C14.2177 17.4201 12.7949 17.4201 9.94915 17.4201H8.05113C5.20542 17.4201 3.78257 17.4201 2.80931 16.6106C1.83605 15.8011 1.62753 14.4442 1.2105 11.7304L0.959635 10.098Z" stroke="#201D1E" stroke-width="1.2" stroke-linejoin="round"/>
</svg>
