<svg width="18" height="18" viewBox="0 0 18 18" fill="none" xmlns="http://www.w3.org/2000/svg">
<path d="M4.41669 13.6702L4.41669 11.1702M8.58336 13.6702L8.58336 6.17017M12.75 13.6702V10.3368" stroke="#201D1E" stroke-width="1.2" stroke-linecap="round"/>
<path d="M16.9167 3.67017C16.9167 5.05088 15.7974 6.17017 14.4167 6.17017C13.036 6.17017 11.9167 5.05088 11.9167 3.67017C11.9167 2.28945 13.036 1.17017 14.4167 1.17017C15.7974 1.17017 16.9167 2.28945 16.9167 3.67017Z" stroke="#201D1E" stroke-width="1.2"/>
<path d="M16.913 8.2535C16.913 8.2535 16.9167 8.53644 16.9167 9.08686C16.9167 12.8188 16.9167 14.6848 15.7573 15.8442C14.5979 17.0035 12.732 17.0035 9.00001 17.0035C5.26806 17.0035 3.40208 17.0035 2.24271 15.8442C1.08334 14.6848 1.08334 12.8188 1.08334 9.08686C1.08334 5.35491 1.08334 3.48893 2.24271 2.32956C3.40208 1.17019 5.26806 1.17019 9.00001 1.17019L9.83334 1.17017" stroke="#201D1E" stroke-width="1.2" stroke-linecap="round" stroke-linejoin="round"/>
</svg>
