<svg width="18" height="16" viewBox="0 0 18 16" fill="none" xmlns="http://www.w3.org/2000/svg">
<path d="M0.666656 8.08683C0.666656 5.13893 0.666656 3.66498 1.54399 2.68092C1.68431 2.52352 1.83897 2.37796 2.0062 2.24589C3.05177 1.42017 4.61784 1.42017 7.74999 1.42017H10.25C13.3821 1.42017 14.9482 1.42017 15.9938 2.24589C16.161 2.37796 16.3157 2.52352 16.456 2.68092C17.3333 3.66498 17.3333 5.13893 17.3333 8.08683C17.3333 11.0347 17.3333 12.5087 16.456 13.4927C16.3157 13.6501 16.161 13.7957 15.9938 13.9278C14.9482 14.7535 13.3821 14.7535 10.25 14.7535H7.74999C4.61784 14.7535 3.05177 14.7535 2.0062 13.9278C1.83897 13.7957 1.68431 13.6501 1.54399 13.4927C0.666656 12.5087 0.666656 11.0347 0.666656 8.08683Z" stroke="#201D1E" stroke-width="1.2" stroke-linecap="round" stroke-linejoin="round"/>
<path d="M11.1258 8.08687C11.1258 9.23747 10.1931 10.1702 9.04249 10.1702C7.89189 10.1702 6.95915 9.23747 6.95915 8.08687C6.95915 6.93628 7.89189 6.00354 9.04249 6.00354C10.1931 6.00354 11.1258 6.93628 11.1258 8.08687Z" stroke="#201D1E" stroke-width="1.2"/>
<path d="M3.16666 8.08679L3.99999 8.08679" stroke="#201D1E" stroke-width="1.2" stroke-linecap="round"/>
<path d="M14 8.08679L14.8333 8.08679" stroke="#201D1E" stroke-width="1.2" stroke-linecap="round"/>
</svg>
