<svg width="20" height="17" viewBox="0 0 20 17" fill="none" xmlns="http://www.w3.org/2000/svg">
<path d="M15.5134 14.7534H15.9219C16.8801 14.7534 17.6422 14.3168 18.3266 13.7064C20.065 12.1555 15.9784 10.5867 14.5833 10.5867M12.9167 2.31069C13.1059 2.27316 13.3024 2.25339 13.504 2.25339C15.0205 2.25339 16.25 3.37268 16.25 4.75339C16.25 6.1341 15.0205 7.25339 13.504 7.25339C13.3024 7.25339 13.1059 7.23361 12.9167 7.19608" stroke="#201D1E" stroke-width="1.2" stroke-linecap="round"/>
<path d="M3.73443 11.5127C2.75195 12.0392 0.175948 13.1143 1.7449 14.4596C2.51133 15.1167 3.36492 15.5867 4.4381 15.5867H10.5619C11.6351 15.5867 12.4887 15.1167 13.2551 14.4596C14.8241 13.1143 12.2481 12.0392 11.2656 11.5127C8.96167 10.2781 6.03832 10.2781 3.73443 11.5127Z" stroke="#201D1E" stroke-width="1.2"/>
<path d="M10.8333 4.33672C10.8333 6.17767 9.34095 7.67005 7.5 7.67005C5.65905 7.67005 4.16667 6.17767 4.16667 4.33672C4.16667 2.49577 5.65905 1.00339 7.5 1.00339C9.34095 1.00339 10.8333 2.49577 10.8333 4.33672Z" stroke="#201D1E" stroke-width="1.2"/>
</svg>
