<svg width="339" height="108" viewBox="0 0 339 108" fill="none" xmlns="http://www.w3.org/2000/svg">
<path d="M289.811 47.5068V105.746" stroke="#64A2E7" stroke-width="0.377923" stroke-miterlimit="10" stroke-linecap="round"/>
<path d="M259.939 63.0194L289.811 47.5068" stroke="#64A2E7" stroke-width="0.377923" stroke-miterlimit="10" stroke-linecap="round"/>
<path d="M289.811 47.5068L338.199 72.6249" stroke="#64A2E7" stroke-width="0.377923" stroke-miterlimit="10" stroke-linecap="round"/>
<path d="M259.939 63.019V103.177" stroke="#64A2E7" stroke-width="0.377923" stroke-miterlimit="10" stroke-linecap="round"/>
<path d="M210.111 1L244.952 19.0809" stroke="#64A2E7" stroke-width="0.377923" stroke-miterlimit="10" stroke-linecap="round"/>
<path d="M146.302 34.1312L210.111 1" stroke="#64A2E7" stroke-width="0.377923" stroke-miterlimit="10" stroke-linecap="round"/>
<path d="M210.111 1V345" stroke="#64A2E7" stroke-width="0.377923" stroke-miterlimit="10" stroke-linecap="round"/>
<path d="M244.953 19.0806V110.954" stroke="#64A2E7" stroke-width="0.377923" stroke-miterlimit="10" stroke-linecap="round"/>
<path d="M272.391 96.7056L314.508 118.567" stroke="#64A2E7" stroke-width="0.377923" stroke-miterlimit="10" stroke-linecap="round"/>
<path d="M221.58 123.087L272.39 96.7056" stroke="#64A2E7" stroke-width="0.377923" stroke-miterlimit="10" stroke-linecap="round"/>
<path d="M272.391 96.7056V345" stroke="#64A2E7" stroke-width="0.377923" stroke-miterlimit="10" stroke-linecap="round"/>
<path d="M338.199 72.625V345" stroke="#64A2E7" stroke-width="0.377923" stroke-miterlimit="10" stroke-linecap="round"/>
<path d="M155.223 97.9688L112.227 75.6348" stroke="#64A2E7" stroke-width="0.377923" stroke-miterlimit="10" stroke-linecap="round"/>
<path d="M112.227 75.6348L90.7168 86.8018" stroke="#64A2E7" stroke-width="0.377923" stroke-miterlimit="10" stroke-linecap="round"/>
<path d="M112.227 75.6348V344.999" stroke="#64A2E7" stroke-width="0.377923" stroke-miterlimit="10" stroke-linecap="round"/>
<path d="M90.7168 86.8022V345" stroke="#64A2E7" stroke-width="0.377923" stroke-miterlimit="10" stroke-linecap="round"/>
<path d="M23.4004 70.6425L46.3495 58.7358" stroke="#64A2E7" stroke-width="0.377923" stroke-miterlimit="10" stroke-linecap="round"/>
<path d="M46.3506 58.7358L69.2997 70.6425" stroke="#64A2E7" stroke-width="0.377923" stroke-miterlimit="10" stroke-linecap="round"/>
<path d="M23.4004 70.6426V120.694" stroke="#64A2E7" stroke-width="0.377923" stroke-miterlimit="10" stroke-linecap="round"/>
<path d="M69.2988 70.6426V131.614" stroke="#64A2E7" stroke-width="0.377923" stroke-miterlimit="10" stroke-linecap="round"/>
<path d="M146.302 34.1304V93.3351" stroke="#64A2E7" stroke-width="0.377923" stroke-miterlimit="10" stroke-linecap="round"/>
<path d="M46.3506 58.7358V119.697" stroke="#64A2E7" stroke-width="0.377923" stroke-miterlimit="10" stroke-linecap="round"/>
<path d="M155.224 97.9697V121.516" stroke="#64A2E7" stroke-width="0.377923" stroke-miterlimit="10" stroke-linecap="round"/>
</svg>
