<svg width="225" height="168" viewBox="0 0 225 168" fill="none" xmlns="http://www.w3.org/2000/svg">
<path d="M225 147.352H0V147.464H225V147.352Z" fill="#EBEBEB"/>
<path d="M106.657 127.282H19.762C18.3458 127.282 17.1934 126.129 17.1934 124.713V2.5686C17.1934 1.15245 18.3458 0 19.762 0H106.657C108.072 0 109.225 1.15245 109.225 2.5686V124.713C109.225 126.129 108.072 127.282 106.657 127.282ZM19.762 0.11295C18.4075 0.11295 17.3059 1.21455 17.3059 2.56905V124.713C17.3059 126.068 18.4075 127.17 19.762 127.17H106.657C108.011 127.17 109.112 126.068 109.112 124.713V2.5686C109.112 1.21455 108.011 0.1125 106.657 0.1125L19.762 0.11295Z" fill="#EBEBEB"/>
<path d="M203.99 127.282H117.095C115.679 127.282 114.527 126.129 114.527 124.713V2.5686C114.527 1.15245 115.68 0 117.095 0H203.99C205.406 0 206.558 1.15245 206.558 2.5686V124.713C206.559 126.129 205.406 127.282 203.99 127.282ZM117.095 0.11295C115.741 0.11295 114.64 1.21455 114.64 2.56905V124.713C114.64 126.068 115.741 127.17 117.095 127.17H203.99C205.344 127.17 206.446 126.068 206.446 124.713V2.5686C206.446 1.21455 205.344 0.1125 203.99 0.1125L117.095 0.11295Z" fill="#EBEBEB"/>
<path d="M202.455 154.594H190.757V154.706H202.455V154.594Z" fill="#EBEBEB"/>
<path d="M160.212 155.814H139.95V155.927H160.212V155.814Z" fill="#EBEBEB"/>
<path d="M190.307 150.416H162.95V150.529H190.307V150.416Z" fill="#EBEBEB"/>
<path d="M32.2622 151.172H23.6064V151.284H32.2622V151.172Z" fill="#EBEBEB"/>
<path d="M61.15 151.172H36.2686V151.284H61.15V151.172Z" fill="#EBEBEB"/>
<path d="M109.86 153.072H76.3501V153.185H109.86V153.072Z" fill="#EBEBEB"/>
<path d="M170.369 145.047H173.967V78.423H170.369V145.047Z" fill="#F0F0F0"/>
<path d="M153.087 147.344H173.018V145.045H153.087V147.344Z" fill="#F0F0F0"/>
<path d="M170.369 78.4219H152.137V145.046H170.369V78.4219Z" fill="#F5F5F5"/>
<path d="M168.425 113.113H154.081V125.01H168.425V113.113Z" fill="#F0F0F0"/>
<path d="M168.425 128.686H154.081V140.582H168.425V128.686Z" fill="#F0F0F0"/>
<path d="M159.342 119.877H163.164C163.456 119.877 163.694 119.639 163.694 119.347V118.776C163.694 118.485 163.456 118.246 163.164 118.246H159.342C159.051 118.246 158.812 118.485 158.812 118.776V119.347C158.812 119.638 159.051 119.877 159.342 119.877Z" fill="#F5F5F5"/>
<path d="M159.342 135.448H163.164C163.456 135.448 163.694 135.209 163.694 134.918V134.347C163.694 134.055 163.456 133.816 163.164 133.816H159.342C159.051 133.816 158.812 134.055 158.812 134.347V134.918C158.812 135.209 159.051 135.448 159.342 135.448Z" fill="#F5F5F5"/>
<path d="M168.425 82.0957H154.081V93.9924H168.425V82.0957Z" fill="#F0F0F0"/>
<path d="M168.425 97.543H154.081V109.44H168.425V97.543Z" fill="#F0F0F0"/>
<path d="M159.342 88.8598H163.164C163.456 88.8598 163.694 88.6213 163.694 88.3297V87.7586C163.694 87.467 163.456 87.2285 163.164 87.2285H159.342C159.051 87.2285 158.812 87.467 158.812 87.7586V88.3297C158.812 88.6213 159.051 88.8598 159.342 88.8598Z" fill="#F5F5F5"/>
<path d="M159.342 104.309H163.164C163.456 104.309 163.694 104.07 163.694 103.778V103.208C163.694 102.916 163.456 102.678 163.164 102.678H159.342C159.051 102.678 158.812 102.916 158.812 103.208V103.778C158.812 104.07 159.051 104.309 159.342 104.309Z" fill="#F5F5F5"/>
<path d="M190.32 145.047H201.119V78.423H190.32V145.047Z" fill="#F0F0F0"/>
<path d="M173.038 147.344H200.014V145.045H173.038V147.344Z" fill="#F0F0F0"/>
<path d="M190.32 78.4219H172.088V145.046H190.32V78.4219Z" fill="#F5F5F5"/>
<path d="M188.376 113.113H174.032V125.01H188.376V113.113Z" fill="#F0F0F0"/>
<path d="M188.376 128.686H174.032V140.582H188.376V128.686Z" fill="#F0F0F0"/>
<path d="M179.294 119.877H183.116C183.407 119.877 183.646 119.639 183.646 119.347V118.776C183.646 118.485 183.407 118.246 183.116 118.246H179.294C179.002 118.246 178.764 118.485 178.764 118.776V119.347C178.763 119.638 179.002 119.877 179.294 119.877Z" fill="#F5F5F5"/>
<path d="M179.294 135.448H183.116C183.407 135.448 183.646 135.209 183.646 134.918V134.347C183.646 134.055 183.407 133.816 183.116 133.816H179.294C179.002 133.816 178.764 134.055 178.764 134.347V134.918C178.763 135.209 179.002 135.448 179.294 135.448Z" fill="#F5F5F5"/>
<path d="M188.376 82.0957H174.032V93.9924H188.376V82.0957Z" fill="#F0F0F0"/>
<path d="M188.376 97.543H174.032V109.44H188.376V97.543Z" fill="#F0F0F0"/>
<path d="M179.294 88.8598H183.116C183.407 88.8598 183.646 88.6213 183.646 88.3297V87.7586C183.646 87.467 183.407 87.2285 183.116 87.2285H179.294C179.002 87.2285 178.764 87.467 178.764 87.7586V88.3297C178.763 88.6213 179.002 88.8598 179.294 88.8598Z" fill="#F5F5F5"/>
<path d="M179.294 104.309H183.116C183.407 104.309 183.646 104.07 183.646 103.778V103.208C183.646 102.916 183.407 102.678 183.116 102.678H179.294C179.002 102.678 178.764 102.916 178.764 103.208V103.778C178.763 104.07 179.002 104.309 179.294 104.309Z" fill="#F5F5F5"/>
<path d="M131.683 64.5156L192.304 64.5156V11.2982L131.683 11.2982V64.5156Z" fill="#E6E6E6"/>
<path d="M125.187 9.22852H196.228C196.56 9.22852 196.829 9.49806 196.829 9.83016C196.829 10.1627 196.56 10.4318 196.228 10.4318H125.187C124.855 10.4318 124.585 10.1623 124.585 9.83016C124.585 9.49761 124.855 9.22852 125.187 9.22852Z" fill="#E6E6E6"/>
<path d="M129.111 64.5156L191.102 64.5156V11.2982L129.111 11.2982V64.5156Z" fill="#F0F0F0"/>
<path d="M131.683 64.5156H192.304V66.2207H129.911L131.683 64.5156Z" fill="#E6E6E6"/>
<path d="M124.826 64.5156H186.816L185.044 66.2207H123.054L124.826 64.5156Z" fill="#F0F0F0"/>
<path d="M187.5 60.9156V14.9004L132.712 14.9004V60.9156L187.5 60.9156Z" fill="#FAFAFA"/>
<path d="M175.063 60.9156L153.927 14.9004H143.95L165.086 60.9156H175.063Z" fill="white"/>
<path d="M162.943 60.9156L141.807 14.9004H137.917L159.053 60.9156H162.943Z" fill="white"/>
<path d="M133.169 60.9156V14.9004H132.712V60.9156H133.169Z" fill="#E6E6E6"/>
<g opacity="0.4">
<path d="M187.457 52.0664H193.655V8.15001H187.457V52.0664Z" fill="#F0F0F0"/>
<path d="M185.043 52.0664H189.872V8.15001H185.043V52.0664Z" fill="#E6E6E6"/>
<path d="M181.26 52.0664H187.458V8.15001H181.26V52.0664Z" fill="#F0F0F0"/>
<path d="M178.845 52.0664H183.674V8.15001H178.845V52.0664Z" fill="#E6E6E6"/>
<path d="M175.061 52.0664H181.259V8.15001H175.061V52.0664Z" fill="#F0F0F0"/>
</g>
<g opacity="0.4">
<path d="M135.02 52.0664H138.591V8.15001H135.02V52.0664Z" fill="#F0F0F0"/>
<path d="M133.629 52.0664H136.411V8.15001H133.629V52.0664Z" fill="#E6E6E6"/>
<path d="M131.448 52.0664H135.02V8.15001H131.448V52.0664Z" fill="#F0F0F0"/>
<path d="M130.057 52.0664H132.839V8.15001H130.057V52.0664Z" fill="#E6E6E6"/>
<path d="M127.877 52.0664H131.448V8.15001H127.877V52.0664Z" fill="#F0F0F0"/>
</g>
<path d="M73.897 43.5342H82.4776L81.4642 21.7812H73.897V43.5342Z" fill="#F5F5F5"/>
<path d="M87.3205 44.7109L89.1714 54.3738H87.3205L75.9756 44.7109H87.3205Z" fill="#F5F5F5"/>
<path d="M89.1716 44.7109V54.3738L77.8267 44.7109H89.1716Z" fill="#E6E6E6"/>
<path d="M42.8313 44.7109L44.6821 54.3738H42.8313L31.4863 44.7109H42.8313Z" fill="#F5F5F5"/>
<path d="M44.6824 44.7109V54.3738L33.3374 44.7109H44.6824Z" fill="#E6E6E6"/>
<path d="M97.5002 43.5664H85.1616V44.9601H97.5002V43.5664Z" fill="#E6E6E6"/>
<path d="M23.8176 44.9609L85.1616 44.9609V43.5673L23.8176 43.5673V44.9609Z" fill="#F5F5F5"/>
<path d="M61.2939 43.5335H79.7102L81.9872 17.1738H63.5709L61.2939 43.5335Z" fill="#E6E6E6"/>
<path d="M60.3398 43.5335H78.7561L81.0331 17.1738H62.6168L60.3398 43.5335Z" fill="#F0F0F0"/>
<path d="M77.2097 40.6154L79.2923 20.0918H64.1646L62.082 40.6154H77.2097Z" fill="white"/>
<path d="M53.0503 43.5344H58.9579L58.2608 28.5566H53.0503V43.5344Z" fill="#E0E0E0"/>
<path d="M44.373 43.5327H57.0536L58.6214 25.3828H45.9408L44.373 43.5327Z" fill="#F0F0F0"/>
<path d="M43.7158 43.5327H56.3964L57.9642 25.3828H45.2841L43.7158 43.5327Z" fill="#F5F5F5"/>
<path d="M55.3317 41.5239L56.7658 27.3926H46.3492L44.9155 41.5239H55.3317Z" fill="#E0E0E0"/>
<path d="M118.062 81.6673C118.177 83.0708 117.133 84.302 115.729 84.4177C114.326 84.5333 113.094 83.4889 112.979 82.0853C112.863 80.6818 113.908 79.4501 115.311 79.3349C116.715 79.2193 117.946 80.2637 118.062 81.6673Z" fill="#E0E0E0"/>
<path d="M122.8 83.0013C122.915 84.4048 121.871 85.636 120.467 85.7517C119.064 85.8673 117.832 84.8229 117.717 83.4193C117.601 82.0158 118.646 80.7841 120.049 80.6689C121.453 80.5533 122.684 81.5977 122.8 83.0013Z" fill="#E0E0E0"/>
<path d="M126.224 81.4778C126.339 82.8814 125.295 84.113 123.891 84.2282C122.488 84.3439 121.256 83.2994 121.141 81.8959C121.025 80.4923 122.07 79.2611 123.473 79.1455C124.877 79.0298 126.108 80.0738 126.224 81.4778Z" fill="#E0E0E0"/>
<path d="M129.838 82.4211C129.954 83.8247 128.909 85.0563 127.506 85.1715C126.102 85.2872 124.871 84.2427 124.755 82.8392C124.64 81.4356 125.684 80.2044 127.088 80.0888C128.491 79.9736 129.723 81.0176 129.838 82.4211Z" fill="#E0E0E0"/>
<path d="M133.085 82.834C133.085 82.834 132.788 89.9165 121.409 89.9165C110.029 89.9165 109.732 82.834 109.732 82.834H133.085Z" fill="#F0F0F0"/>
<path d="M26.9464 147.348H31.0801L31.0801 89.9155H26.9464L26.9464 147.348Z" fill="#E6E6E6"/>
<path d="M25.84 147.348H28.2749L28.2749 89.9155H25.84L25.84 147.348Z" fill="#F0F0F0"/>
<path d="M83.7916 89.916H25.0859V94.2239H83.7916V89.916Z" fill="#F0F0F0"/>
<path d="M139.394 147.348H143.527V89.9155H139.394V147.348Z" fill="#E6E6E6"/>
<path d="M138.618 147.348H141.053V89.9155H138.618V147.348Z" fill="#F0F0F0"/>
<path d="M144.266 89.916H85.5601V94.2239H144.266V89.916Z" fill="#E6E6E6"/>
<path d="M84.1436 147.348H88.2773V89.9155H84.1436V147.348Z" fill="#E6E6E6"/>
<path d="M83.0367 147.348H85.4717V89.9155H83.0367V147.348Z" fill="#F0F0F0"/>
<path d="M97.7146 70.8145H67.0615L61.6021 88.9153H92.2551L97.7146 70.8145Z" fill="#E6E6E6"/>
<path d="M92.2552 88.916L92.131 89.9168H61.4766L61.6003 88.916H92.2552Z" fill="#E6E6E6"/>
<path d="M96.7707 70.8145H66.1176L60.6582 88.9153H91.3113L96.7707 70.8145Z" fill="#F0F0F0"/>
<path d="M90.71 88.0877L95.6704 71.6406H66.7201L61.7593 88.0877H90.71Z" fill="white"/>
<path d="M83.3245 88.916L83.2007 89.9168H49.4453L49.5691 88.916H83.3245Z" fill="#F0F0F0"/>
<path d="M112.5 167.673C160.687 167.673 199.75 165.392 199.75 162.578C199.75 159.764 160.687 157.482 112.5 157.482C64.3132 157.482 25.25 159.764 25.25 162.578C25.25 165.392 64.3132 167.673 112.5 167.673Z" fill="#F5F5F5"/>
<path d="M169.898 24.3887H118.108C114.491 24.3887 111.34 27.3483 111.105 30.9654L103.068 154.969C102.834 158.586 105.602 161.546 109.219 161.546H161.008C164.625 161.546 167.777 158.586 168.012 154.969L173.788 65.844C174.276 65.673 174.651 65.2199 174.686 64.6857L175.72 48.74C175.754 48.2058 175.438 47.7527 174.972 47.5812L176.049 30.9654C176.284 27.3488 173.516 24.3887 169.898 24.3887Z" fill="#2892CE"/>
<path d="M106.913 56.4969H107.927C108.569 56.4969 109.128 55.9717 109.17 55.3296L109.601 48.6732C109.643 48.031 109.152 47.5059 108.51 47.5059H107.496C106.854 47.5059 106.294 48.031 106.253 48.6732L105.821 55.3296C105.779 55.9717 106.271 56.4969 106.913 56.4969Z" fill="#2892CE"/>
<path d="M106.143 68.3831H107.156C107.799 68.3831 108.358 67.8575 108.399 67.2158L108.831 60.5599C108.872 59.9177 108.381 59.3926 107.739 59.3926H106.725C106.083 59.3926 105.524 59.9182 105.482 60.5599L105.051 67.2158C105.009 67.8575 105.5 68.3831 106.143 68.3831Z" fill="#2892CE"/>
<path d="M158.256 161.546H106.466C102.849 161.546 100.081 158.586 100.316 154.969L108.353 30.9654C108.587 27.3483 111.738 24.3887 115.356 24.3887H167.146C170.763 24.3887 173.531 27.3483 173.296 30.9654L165.259 154.969C165.025 158.586 161.873 161.546 158.256 161.546Z" fill="#263238"/>
<path opacity="0.2" d="M135.894 156.267C137.708 154.511 137.844 151.71 136.199 150.01C134.553 148.31 131.748 148.355 129.934 150.111C128.12 151.867 127.984 154.669 129.63 156.369C131.276 158.069 134.08 158.024 135.894 156.267Z" fill="white"/>
<path d="M162.938 145.447H104.061C103.215 145.447 102.544 144.731 102.599 143.887L109.491 37.5426C109.541 36.7717 110.181 36.1719 110.953 36.1719H169.83C170.677 36.1719 171.347 36.8874 171.293 37.732L164.4 144.076C164.35 144.847 163.711 145.447 162.938 145.447Z" fill="white"/>
<path opacity="0.2" d="M146.519 103.528C153.104 97.153 153.598 86.9818 147.623 80.8099C141.648 74.6381 131.466 74.8028 124.881 81.1778C118.297 87.5528 117.802 97.724 123.777 103.896C129.753 110.068 139.934 109.903 146.519 103.528Z" fill="#2892CE"/>
<path opacity="0.2" d="M134.085 117.137C120.418 117.137 110.019 106.018 110.905 92.3509C111.791 78.6835 123.631 67.5645 137.298 67.5645C150.965 67.5645 161.364 78.6835 160.478 92.3509C159.592 106.018 147.752 117.137 134.085 117.137ZM137.269 68.0145C123.85 68.0145 112.225 78.9314 111.355 92.3509C110.485 105.77 120.695 116.687 134.114 116.687C147.533 116.687 159.158 105.77 160.028 92.3509C160.898 78.9319 150.688 68.0145 137.269 68.0145Z" fill="#2892CE"/>
<path d="M131.854 100.141L130.514 97.5393C127.59 91.8639 120.85 86.791 118.5 85.3155L120.723 81.9895C123.506 83.7369 129.074 88.0623 132.568 93.1986C139.021 85.5544 148.148 77.6691 160.368 69.1699L162.452 72.3105C149.394 81.3919 140.01 89.6953 133.764 97.6959L131.854 100.141Z" fill="#2892CE"/>
<path opacity="0.2" d="M131.216 31.4613C131.951 30.7499 132.006 29.615 131.34 28.9264C130.673 28.2379 129.537 28.2564 128.802 28.9678C128.067 29.6792 128.012 30.814 128.679 31.5026C129.345 32.1912 130.481 32.1727 131.216 31.4613Z" fill="white"/>
<path opacity="0.2" d="M136.312 28.4258H151.203C152.189 28.4258 152.944 29.2326 152.88 30.2181C152.816 31.2041 151.957 32.0105 150.971 32.0105H136.079C135.093 32.0105 134.339 31.2036 134.403 30.2181C134.467 29.2322 135.326 28.4258 136.312 28.4258Z" fill="white"/>
<path d="M80.8823 61.691C80.1223 62.4668 79.3073 63.325 78.559 64.1822C77.798 65.0422 77.0533 65.9156 76.3477 66.8147C75.6398 67.7134 74.9734 68.6341 74.3326 69.5651L73.8659 70.2707L73.4285 70.988C73.2782 71.2261 73.1428 71.4686 73.0127 71.713L72.6523 72.3754C72.5317 72.6157 72.4439 73.076 72.4048 73.558C72.3647 74.0467 72.3728 74.5817 72.4061 75.1249C72.4759 76.2148 72.6352 77.347 72.8386 78.4774C73.0339 79.6118 73.2782 80.7508 73.5527 81.8852C73.8119 83.0215 74.1121 84.1667 74.4095 85.2841L72.7423 85.9082C71.7248 83.6942 70.8982 81.4424 70.2137 79.0849C69.8843 77.9036 69.5945 76.6994 69.4199 75.4277C69.3353 74.7901 69.2741 74.1371 69.2791 73.4396C69.2899 72.7403 69.343 72.0014 69.6701 71.1383C69.7718 70.8877 69.829 70.7855 69.8992 70.6357L70.1048 70.2086C70.2398 69.922 70.3798 69.6389 70.5323 69.3662L70.9805 68.5396L71.4553 67.7341C72.0992 66.6698 72.7841 65.6362 73.5307 64.6588C74.2705 63.6751 75.0323 62.7134 75.8383 61.79C76.6591 60.8666 77.461 59.9846 78.3947 59.0977L80.8823 61.691Z" fill="#B55B52"/>
<path d="M81.0751 56.2661C78.6366 56.3768 76.3218 60.4236 76.3218 60.4236L79.5415 67.0008C79.5415 67.0008 83.9061 63.3635 83.9619 59.7905C83.9988 57.4671 83.4732 56.1572 81.0751 56.2661Z" fill="#2892CE"/>
<path opacity="0.7" d="M81.0751 56.2661C78.6366 56.3768 76.3218 60.4236 76.3218 60.4236L79.5415 67.0008C79.5415 67.0008 83.9061 63.3635 83.9619 59.7905C83.9988 57.4671 83.4732 56.1572 81.0751 56.2661Z" fill="white"/>
<path opacity="0.2" d="M81.6571 60.9956C80.9461 62.0711 80.6041 64.8611 80.4961 66.1031C81.3061 65.2931 82.4401 64.0016 83.1826 62.5436C82.7146 61.3421 82.1251 60.2891 81.6571 60.9956Z" fill="black"/>
<path d="M73.9471 84.5801L76.913 85.4612L74.9393 87.4596C74.9393 87.4596 72.8027 86.8008 72.5044 85.3482L73.9471 84.5801Z" fill="#B55B52"/>
<path d="M78.7082 87.7442L78.2087 89.6545L74.9395 87.4594L76.9127 85.4609L78.7082 87.7442Z" fill="#B55B52"/>
<path d="M98.2215 48.4617C98.1288 48.7281 98.1954 48.9977 98.3696 49.0638C98.5437 49.13 98.7602 48.9671 98.8529 48.7007C98.9456 48.4343 98.879 48.1647 98.7048 48.0986C98.5302 48.0329 98.3138 48.1953 98.2215 48.4617Z" fill="#263238"/>
<path d="M98.6226 48.084L99.3273 48.142C99.3273 48.142 98.8251 48.5178 98.6226 48.084Z" fill="#263238"/>
<path d="M98.3561 48.8047C98.3561 48.8047 98.4101 50.1232 98.7161 50.8652C98.2499 51.0605 97.7036 50.6839 97.7036 50.6839L98.3561 48.8047Z" fill="#A02724"/>
<path d="M99.0936 47.4267C99.031 47.4159 98.9775 47.3691 98.9604 47.3038C98.7759 46.5802 98.212 46.3593 98.1882 46.3498C98.1022 46.3174 98.0586 46.2216 98.0905 46.1361C98.1225 46.0501 98.2179 46.006 98.3038 46.0375C98.3344 46.0488 99.0544 46.3224 99.283 47.2215C99.306 47.3106 99.252 47.4015 99.1629 47.424C99.1399 47.4303 99.1161 47.4307 99.0936 47.4267Z" fill="#263238"/>
<path d="M88.9777 49.5938C89.0434 51.7195 88.8265 55.549 87.1602 56.6362C87.1602 56.6362 87.3802 58.8223 91.2066 59.5635C95.4141 60.3784 93.5605 57.876 93.5605 57.876C91.3542 56.886 91.6935 55.2034 92.3563 53.6901L88.9777 49.5938Z" fill="#B55B52"/>
<path d="M101.483 64.1562C101.864 65.1904 102.294 66.3055 102.751 67.363C103.206 68.4322 103.678 69.4928 104.189 70.5301C104.7 71.5687 105.248 72.5794 105.814 73.5734C106.104 74.0653 106.398 74.554 106.713 75.0224C106.865 75.2632 107.023 75.4963 107.189 75.7208L107.434 76.0633L107.557 76.2347L107.618 76.3202L107.659 76.3679C107.855 76.6231 108.24 76.9408 108.656 77.2333C109.078 77.528 109.55 77.8088 110.042 78.0739C111.031 78.6013 112.085 79.0859 113.161 79.5382C114.236 79.9976 115.334 80.426 116.446 80.8292C117.55 81.2468 118.682 81.636 119.79 82.0194L119.374 83.7502C116.953 83.3533 114.601 82.7885 112.239 82.073C111.064 81.7027 109.89 81.2936 108.722 80.7725C108.138 80.5093 107.554 80.219 106.966 79.8689C106.377 79.5125 105.787 79.1102 105.196 78.4586L105.088 78.338L105.013 78.2444L104.864 78.0577L104.566 77.6837C104.363 77.4358 104.172 77.1824 103.99 76.9246C103.611 76.4161 103.259 75.8945 102.913 75.3703C102.23 74.3186 101.591 73.2436 101.027 72.1388C100.456 71.0372 99.9125 69.9253 99.4216 68.7908C98.9374 67.6438 98.4806 66.53 98.0752 65.2993L101.483 64.1562Z" fill="#B55B52"/>
<path d="M119.195 81.994L121.851 80.9648L121.72 84.0311C121.72 84.0311 119.57 84.6044 118.572 83.5177L119.195 81.994Z" fill="#B55B52"/>
<path d="M123.852 82.0187L124.764 83.9771L121.72 84.0311L121.851 80.9648L123.852 82.0187Z" fill="#B55B52"/>
<path d="M79.8228 158.822L83.3364 159.081L84.3799 151.013L80.8663 150.754L79.8228 158.822Z" fill="#B55B52"/>
<path d="M51.9844 140.57L54.2789 143.296L61.0937 138.917L58.7992 136.191L51.9844 140.57Z" fill="#B55B52"/>
<path d="M55.361 142.943L53.511 139.387C53.4435 139.258 53.3018 139.198 53.1699 139.244L50.2283 140.26C49.9232 140.366 49.7855 140.756 49.9461 141.052C50.6117 142.281 50.9933 142.842 51.8069 144.406C52.3073 145.368 52.9418 146.823 53.633 148.152C54.3089 149.451 55.6364 148.887 55.464 148.274C54.6914 145.524 55.2017 144.76 55.4478 143.57C55.4919 143.356 55.4595 143.133 55.361 142.943Z" fill="#263238"/>
<path d="M83.5558 158.582H79.6066C79.463 158.582 79.3438 158.682 79.3199 158.822L78.7898 161.947C78.7349 162.271 79.0058 162.578 79.3375 162.572C80.7149 162.548 81.3805 162.468 83.1175 162.468C84.1858 162.468 86.393 162.579 87.869 162.579C89.3122 162.579 89.4607 161.12 88.8496 160.988C86.11 160.395 85.0466 159.578 84.1385 158.798C83.9743 158.658 83.7659 158.582 83.5558 158.582Z" fill="#263238"/>
<path opacity="0.2" d="M84.3788 151.017L83.7997 155.501L80.2969 155.15L80.8639 150.758L84.3788 151.017Z" fill="black"/>
<path opacity="0.2" d="M58.7966 136.193L61.0925 138.919L58.2724 140.73L55.8892 138.06L58.7966 136.193Z" fill="black"/>
<path d="M80.0864 77.6693C82.8112 78.1958 88.5905 79.3164 94.1804 80.4009C100.84 60.7944 99.2465 60.1599 99.2465 60.1599C99.2465 60.1599 97.8326 59.3724 96.0479 58.6749C95.9795 58.6479 95.9161 58.6254 95.8567 58.6029C94.9558 58.2744 94.7654 58.2249 93.5581 57.8739C91.4827 57.3834 89.549 56.9829 87.1586 56.6364C87.0052 56.6139 86.8513 56.5914 86.7023 56.5734C86.2685 56.5194 85.8401 56.4744 85.4248 56.4339C85.1449 56.4024 84.8654 56.3844 84.5995 56.3664C84.284 56.3484 83.9771 56.3304 83.6891 56.3169C82.1479 56.2404 81.0463 56.2629 81.0463 56.2629C81.8536 68.4984 81.2645 72.0128 80.0864 77.6693Z" fill="#2892CE"/>
<path opacity="0.7" d="M80.0864 77.6693C82.8112 78.1958 88.5905 79.3164 94.1804 80.4009C100.84 60.7944 99.2465 60.1599 99.2465 60.1599C99.2465 60.1599 97.8326 59.3724 96.0479 58.6749C95.9795 58.6479 95.9161 58.6254 95.8567 58.6029C94.9558 58.2744 94.7654 58.2249 93.5581 57.8739C91.4827 57.3834 89.549 56.9829 87.1586 56.6364C87.0052 56.6139 86.8513 56.5914 86.7023 56.5734C86.2685 56.5194 85.8401 56.4744 85.4248 56.4339C85.1449 56.4024 84.8654 56.3844 84.5995 56.3664C84.284 56.3484 83.9771 56.3304 83.6891 56.3169C82.1479 56.2404 81.0463 56.2629 81.0463 56.2629C81.8536 68.4984 81.2645 72.0128 80.0864 77.6693Z" fill="white"/>
<path opacity="0.2" d="M97.2361 64.7265L95.9626 64.5195C95.9491 66.198 96.6016 69.078 97.2226 70.9095C97.7491 69.1185 98.1586 67.629 98.4691 66.3821L97.2361 64.7265Z" fill="black"/>
<path d="M98.7726 59.9092C100.854 60.577 102.37 64.6995 102.94 66.4779L98.9044 71.2317C98.9044 71.2317 94.7406 65.2705 95.3809 63.4219C96.0478 61.4968 97.7614 59.5848 98.7726 59.9092Z" fill="#2892CE"/>
<path opacity="0.7" d="M98.7726 59.9092C100.854 60.577 102.37 64.6995 102.94 66.4779L98.9044 71.2317C98.9044 71.2317 94.7406 65.2705 95.3809 63.4219C96.0478 61.4968 97.7614 59.5848 98.7726 59.9092Z" fill="white"/>
<path d="M100.119 44.692C99.7021 45.9209 97.8805 46.4141 96.0499 45.7931C94.2193 45.1726 93.0736 43.6732 93.4903 42.4438C93.907 41.2148 95.7286 40.7216 97.5592 41.3426C99.3894 41.9636 100.536 43.463 100.119 44.692Z" fill="#263238"/>
<path d="M89.5532 44.3538C88.6181 47.7027 88.151 49.0982 89.2216 51.404C90.8326 54.8726 95.1454 55.4153 97.061 52.4444C98.7854 49.77 100.025 44.7426 97.2712 42.2271C94.5586 39.7485 90.4883 41.0049 89.5532 44.3538Z" fill="#B55B52"/>
<path d="M94.7791 40.4457C93.4129 41.2197 90.5635 36.371 87.004 40.4457C84.4557 43.3631 86.0788 47.6494 86.0788 47.6494C86.0788 47.6494 84.053 44.0808 82.4289 45.8205C80.3166 48.0836 82.504 56.1206 89.479 55.5707C96.454 55.0208 95.7849 49.3553 95.7849 49.3553C95.7849 49.3553 99.0519 46.0325 98.8881 43.0706C98.763 40.8161 97.0291 39.1709 94.7791 40.4457Z" fill="#263238"/>
<path d="M95.6273 47.2298C95.4315 47.831 95.4927 48.5541 95.6858 49.1256C95.9765 49.9851 96.6371 49.9905 96.9876 49.3961C97.3035 48.8615 97.5326 47.7693 97.0331 47.0781C96.5412 46.3968 95.8509 46.5426 95.6273 47.2298Z" fill="#B55B52"/>
<path d="M90.459 79.6808C90.459 79.6808 88.956 84.8918 87.0255 91.7678C85.743 96.3488 84.267 101.668 82.9215 106.676C82.152 109.543 81.4275 112.306 80.802 114.772C77.265 128.744 59.625 140.755 59.625 140.755L56.2095 136.997C56.2095 136.997 68.0625 127.016 71.4915 113.98C78.453 87.5153 74.538 83.0513 80.0865 77.6738L90.459 79.6808Z" fill="#263238"/>
<path opacity="0.2" d="M88.929 84.3417C88.407 86.3622 87.75 88.9137 87.0255 91.7667C85.743 96.3477 84.267 101.667 82.9215 106.675C82.3455 100.285 82.0035 88.5357 86.724 84.8817C87.651 84.1617 88.3845 84.0222 88.929 84.3417Z" fill="black"/>
<path d="M59.9099 141.291L55.6426 136.595L56.9323 135.301L62.1653 140.233L59.9099 141.291Z" fill="#2892CE"/>
<path opacity="0.7" d="M59.9099 141.291L55.6426 136.595L56.9323 135.301L62.1653 140.233L59.9099 141.291Z" fill="white"/>
<path d="M55.9943 144.855C55.9525 144.852 55.9102 144.844 55.8688 144.829C55.4476 144.677 55.183 143.878 55.0628 143.415C55.0543 143.383 55.066 143.348 55.0925 143.328C55.1195 143.307 55.1555 143.305 55.1843 143.322C55.3108 143.395 56.4182 144.045 56.4412 144.497C56.4461 144.597 56.402 144.684 56.3134 144.748C56.2072 144.824 56.1001 144.86 55.9943 144.855ZM55.2793 143.573C55.4611 144.185 55.6978 144.59 55.925 144.672C56.0182 144.706 56.1136 144.687 56.2157 144.613C56.2711 144.573 56.2765 144.535 56.2747 144.505C56.263 144.267 55.7153 143.847 55.2793 143.573Z" fill="#2892CE"/>
<path d="M93.9685 80.4017C93.9685 80.4017 94.846 108.221 92.8804 118.699C90.8361 129.598 84.6099 154.392 84.6099 154.392L79.542 153.737C79.542 153.737 82.7469 128.692 84.1072 117.862C85.5904 106.056 83.6473 78.4023 83.6473 78.4023L93.9685 80.4017Z" fill="#263238"/>
<path d="M85.6878 154.68L78.4644 153.748L78.5539 152.031L86.4118 152.374L85.6878 154.68Z" fill="#2892CE"/>
<path opacity="0.7" d="M85.6878 154.68L78.4644 153.748L78.5539 152.031L86.4118 152.374L85.6878 154.68Z" fill="white"/>
<path d="M56.1653 143.765C55.7729 143.745 55.3031 143.601 55.097 143.464C55.0727 143.448 55.0588 143.42 55.0601 143.39C55.0619 143.361 55.0786 143.334 55.1047 143.321C55.1416 143.302 56.02 142.849 56.4974 143.032C56.6275 143.081 56.7179 143.172 56.7665 143.3C56.8426 143.5 56.7521 143.611 56.6914 143.659C56.5793 143.748 56.3845 143.776 56.1653 143.765ZM55.3252 143.4C55.7126 143.579 56.398 143.68 56.5874 143.529C56.6189 143.504 56.65 143.462 56.6108 143.359C56.5793 143.276 56.5226 143.22 56.438 143.188C56.1545 143.079 55.6258 143.265 55.3252 143.4Z" fill="#2892CE"/>
<path d="M84.8627 159.195C84.4753 159.195 84.0563 159.129 83.7589 159.069C83.7242 159.063 83.6977 159.034 83.6927 158.999C83.6878 158.964 83.7053 158.93 83.7373 158.914C83.8979 158.831 85.3222 158.114 85.7443 158.354C85.8262 158.4 85.8725 158.476 85.8788 158.575C85.8896 158.741 85.8356 158.877 85.7182 158.98C85.5337 159.141 85.211 159.195 84.8627 159.195ZM84.0374 158.951C84.811 159.08 85.3897 159.046 85.6084 158.855C85.6858 158.787 85.7195 158.699 85.7123 158.586C85.7096 158.543 85.6948 158.517 85.6619 158.498C85.4324 158.368 84.6215 158.674 84.0374 158.951Z" fill="#2892CE"/>
<path d="M83.7747 159.072C83.7576 159.072 83.74 159.067 83.7256 159.057C83.7018 159.039 83.6887 159.01 83.6919 158.981C83.6991 158.916 83.8651 157.395 84.7156 157.484C84.9433 157.508 85.0086 157.622 85.0234 157.715C85.0873 158.112 84.2373 158.874 83.8089 159.065C83.7976 159.07 83.7859 159.072 83.7747 159.072ZM84.6504 157.647C84.1437 157.647 83.9434 158.482 83.8813 158.839C84.3192 158.577 84.8974 157.979 84.8592 157.741C84.856 157.722 84.847 157.665 84.699 157.649C84.6823 157.648 84.6661 157.647 84.6504 157.647Z" fill="#2892CE"/>
<path d="M80.012 76.808L79.1692 77.9393C79.1039 78.0271 79.2034 78.1486 79.3663 78.1805L94.1479 81.0434C94.2748 81.0682 94.3904 81.0263 94.4116 80.9485L94.7459 79.7186C94.7689 79.6336 94.6712 79.5386 94.5322 79.5116L80.2591 76.7473C80.1542 76.727 80.0543 76.7513 80.012 76.808Z" fill="#2892CE"/>
<path d="M81.6672 78.7652L81.2847 78.6909C81.2087 78.6761 81.1569 78.6261 81.17 78.5793L81.6186 76.9841C81.6317 76.9373 81.7046 76.9112 81.7811 76.926L82.1636 77.0003C82.2396 77.0151 82.2914 77.0655 82.2783 77.1119L81.8297 78.7071C81.8162 78.7539 81.7433 78.78 81.6672 78.7652Z" fill="#263238"/>
<path d="M91.3201 80.6578L90.9381 80.5835C90.862 80.5687 90.8103 80.5187 90.8233 80.4719L91.272 78.8767C91.285 78.8299 91.3579 78.8038 91.4344 78.8186L91.8165 78.8929C91.8925 78.9077 91.9443 78.9577 91.9312 79.0045L91.4826 80.5993C91.4691 80.6465 91.3962 80.6726 91.3201 80.6578Z" fill="#263238"/>
</svg>
