<svg width="168" height="170" viewBox="0 0 168 170" fill="none" xmlns="http://www.w3.org/2000/svg">
<path d="M147.985 146.345C144.548 149.963 141.296 152.297 138.726 154.141C108.522 175.812 72.7825 169.495 65.1869 167.953C53.9704 165.674 32.2894 161.271 16.6143 142.837C-7.10065 114.949 -3.40789 71.0119 14.9871 42.0084C18.3518 36.7031 36.1253 7.25785 72.2497 2.53569C94.1119 -0.322059 119.596 5.44171 138.051 20.9033C176.79 53.3585 174.032 118.924 147.985 146.345Z" fill="url(#paint0_linear_677_63276)"/>
<path d="M114.429 164.318C114.139 164.278 113.878 164.125 113.703 163.889C111.154 160.454 92.6168 133.566 117.287 108.989C140.707 85.658 151.323 80.8675 152.735 67.1593C152.9 65.5585 155.064 65.1743 155.776 66.6174C161.098 77.4032 169.389 102.572 141.951 119.091C111.684 137.314 114.165 157.29 115.628 162.967C115.822 163.717 115.197 164.422 114.429 164.318Z" fill="#91B3FA"/>
<path d="M118.184 164.829C117.495 164.735 116.949 164.204 116.843 163.517C116.121 158.842 114.346 141.371 127.217 136.738C141.386 131.638 152.825 144.834 163.241 134.506C163.789 133.962 164.71 134.436 164.58 135.197C163.652 140.592 159.523 153.088 141.152 155.603C121.489 158.294 119.277 160.55 119.674 163.348C119.796 164.211 119.047 164.947 118.184 164.829Z" fill="#91B3FA"/>
<path opacity="0.47" d="M152.05 81.1353C151.81 82.1524 151.49 83.1065 151.109 84.0539C150.735 85.0001 150.304 85.9229 149.834 86.8257C148.904 88.6376 147.788 90.3514 146.565 91.9842C144.104 95.2417 141.127 98.1031 137.845 100.53C136.209 101.736 134.459 102.845 132.729 103.846C131.045 104.823 129.425 105.916 127.873 107.1C124.766 109.466 121.95 112.212 119.463 115.223C114.507 121.25 110.991 128.523 109.833 136.267C109.242 140.13 109.235 144.085 109.767 147.98C110.293 151.88 111.405 155.7 112.871 159.382C112.95 159.578 112.855 159.801 112.659 159.881C112.47 159.957 112.255 159.869 112.169 159.689C110.454 156.05 109.174 152.181 108.465 148.187C108.102 146.191 107.888 144.165 107.827 142.131C107.778 140.097 107.863 138.055 108.12 136.031C108.612 131.979 109.755 128.01 111.401 124.274C113.052 120.536 115.233 117.044 117.781 113.859C120.327 110.67 123.282 107.816 126.512 105.323C128.131 104.08 129.823 102.929 131.59 101.895C133.319 100.903 134.961 99.8947 136.551 98.7471C139.725 96.48 142.658 93.8628 145.182 90.8759C146.459 89.3956 147.616 87.8111 148.673 86.1593C149.709 84.5043 150.677 82.7581 151.374 80.9525L151.383 80.9291C151.452 80.7487 151.655 80.6591 151.835 80.7286C152 80.7922 152.09 80.9676 152.05 81.1353Z" fill="white"/>
<path opacity="0.47" d="M117.367 161.659C117.427 161.489 117.408 161.332 117.403 161.17L117.388 160.688L117.377 159.725C117.378 159.083 117.392 158.441 117.42 157.8C117.477 156.517 117.586 155.236 117.758 153.961C118.108 151.415 118.684 148.877 119.712 146.486C120.728 144.112 122.267 141.843 124.5 140.361C125.613 139.633 126.868 139.115 128.168 138.852C129.468 138.578 130.803 138.537 132.109 138.652C137.228 139.246 142.245 140.227 147.275 141.024C149.781 141.398 152.322 141.731 154.782 141.395C155.393 141.305 155.995 141.172 156.58 140.984C157.159 140.782 157.728 140.545 158.259 140.234C159.329 139.623 160.27 138.788 161.11 137.861L161.113 137.858C161.229 137.731 161.426 137.721 161.554 137.837C161.68 137.951 161.69 138.145 161.58 138.273C160.728 139.253 159.755 140.16 158.617 140.842C158.052 141.189 157.443 141.46 156.822 141.691C156.195 141.908 155.55 142.065 154.899 142.174C152.28 142.558 149.682 142.231 147.148 141.884C144.606 141.522 142.097 141.051 139.578 140.644C137.068 140.235 134.528 139.84 132.027 139.547C130.793 139.427 129.545 139.456 128.342 139.699C127.136 139.932 125.984 140.397 124.953 141.057C122.875 142.381 121.368 144.486 120.344 146.766C119.308 149.057 118.692 151.537 118.302 154.039C118.11 155.293 117.978 156.557 117.899 157.825C117.859 158.459 117.834 159.094 117.821 159.729L117.815 160.682L117.821 161.158C117.825 161.315 117.818 161.477 117.895 161.627C117.969 161.769 117.914 161.944 117.772 162.017C117.63 162.091 117.455 162.035 117.381 161.893C117.343 161.82 117.34 161.737 117.365 161.664L117.367 161.659Z" fill="white"/>
<path d="M90.6235 1.93184C82.9117 1.87101 75.133 3.09397 68.251 5.94942C52.2306 12.5965 38.6347 30.1847 43.9553 48.1499C45.6837 53.9859 44.7757 60.4244 50.5896 62.9607C53.7353 64.3329 62.3019 65.1497 65.559 64.0683C74.2161 61.194 79.9065 53.3275 75.1982 44.6039C73.6904 41.8103 71.7389 39.2582 70.4369 36.363C69.1349 33.4678 68.5415 30.0313 69.8689 27.1473C72.4746 21.4866 81.1306 19.6871 86.7438 19.8569C93.3692 20.0573 99.3725 23.3343 102.938 28.9559C107.381 35.9621 108.507 44.4838 107.857 52.6166C107.161 61.3188 103.492 67.9643 97.9926 74.6401C93.2584 80.3876 88.0448 85.9047 84.8982 92.6535C82.0095 98.8492 81.0655 105.714 80.935 112.492C80.9097 113.806 74.3762 126.187 74.4042 129.969C74.4082 130.504 81.8144 132.274 82.3487 132.28C85.1371 132.311 93.0352 132.399 95.9422 132.432C96.54 132.439 97.0328 131.961 97.0395 131.363C97.2464 112.961 102.907 95.4166 117.235 83.0576C122.449 78.5606 128.064 74.8986 132.118 69.2224C137.896 61.1322 140.747 53.1705 139.924 43.1858C139.173 34.0668 136.17 24.9428 130.226 17.8676C123.837 10.2631 114.487 5.51428 104.768 3.46494C100.236 2.5093 95.4431 1.96985 90.6235 1.93184Z" fill="url(#paint1_linear_677_63276)"/>
<path d="M104.845 153.061C104.845 161.523 100.155 169.009 91.6927 169.009C89.8647 169.009 83.6473 169.026 82.0219 168.439C76.1228 166.308 76.1016 161.776 76.1016 155.142C76.1016 146.68 78.9591 138.357 87.4211 138.357C95.8832 138.357 104.845 144.599 104.845 153.061Z" fill="url(#paint2_linear_677_63276)"/>
<path d="M83.2964 0.0021575C75.5846 -0.058678 67.8059 1.16428 60.9238 4.01973C44.9035 10.6668 31.3076 28.255 36.6281 46.2202C38.3566 52.0562 42.3528 59.4024 48.1668 61.9386C51.3125 63.3109 54.9747 63.22 58.2319 62.1386C66.8889 59.2643 72.5793 51.3978 67.871 42.6742C66.3633 39.8806 64.4117 37.3286 63.1098 34.4333C61.8078 31.5381 61.2144 28.1016 62.5418 25.2176C65.1475 19.5569 73.8034 17.7574 79.4167 17.9272C86.042 18.1276 92.0453 21.4046 95.6107 27.0262C100.054 34.0324 101.18 42.5542 100.529 50.6869C99.8336 59.3891 96.1644 66.0346 90.6655 72.7104C85.9312 78.4579 80.7176 83.975 77.5711 90.7238C74.6823 96.9195 73.7383 103.785 73.6079 110.563C73.5826 111.877 74.0249 125.596 74.0529 129.378C74.0569 129.913 74.4873 130.344 75.0216 130.35C77.81 130.381 85.708 130.47 88.615 130.502C89.2129 130.509 89.7057 130.031 89.7124 129.433C89.9193 111.031 95.5796 93.4869 109.908 81.1279C115.122 76.6309 120.737 72.9689 124.791 67.2927C130.569 59.2025 133.42 51.2408 132.597 41.2562C131.846 32.1371 128.843 23.0132 122.899 15.9379C116.51 8.3334 107.16 3.58459 97.4413 1.53525C92.9092 0.579609 88.1159 0.0402252 83.2964 0.0021575Z" fill="url(#paint3_linear_677_63276)"/>
<path d="M84.0954 168.534C92.5575 168.534 99.4174 161.675 99.4174 153.213C99.4174 144.75 92.5575 137.891 84.0954 137.891C75.6333 137.891 68.7734 144.75 68.7734 153.213C68.7734 161.675 75.6333 168.534 84.0954 168.534Z" fill="url(#paint4_linear_677_63276)"/>
<path opacity="0.63" d="M41.6991 44.4605C41.6089 44.4605 41.5276 44.3981 41.5073 44.3064C40.4336 39.4582 40.2759 31.8659 45.6226 23.2291C50.8411 14.7993 58.1613 9.15877 67.3798 6.46403C77.2342 3.58382 88.9337 4.20043 102.155 8.29687C102.258 8.32905 102.316 8.43924 102.284 8.54294C102.252 8.64664 102.141 8.70493 102.038 8.67257C76.6389 0.802262 56.7225 6.04559 45.9568 23.4361C40.6797 31.9605 40.8332 39.4443 41.8912 44.2214C41.9146 44.3274 41.8477 44.4324 41.7417 44.4558C41.7275 44.459 41.7131 44.4605 41.6991 44.4605Z" fill="white"/>
<path opacity="0.63" d="M44.9227 52.2622C44.862 52.2622 44.8023 52.2343 44.7638 52.1816C44.7173 52.1179 43.6131 50.5924 42.5862 47.9055C42.5475 47.804 42.5982 47.6904 42.6998 47.6516C42.8006 47.6131 42.9148 47.6635 42.9537 47.765C43.9601 50.3986 45.0701 51.9344 45.0813 51.9496C45.1453 52.0373 45.126 52.1603 45.0385 52.2243C45.0034 52.2499 44.9628 52.2622 44.9227 52.2622Z" fill="white"/>
<path opacity="0.63" d="M89.223 143.281C89.1931 143.281 89.1627 143.274 89.1342 143.259C87.5641 142.463 85.869 142.059 84.096 142.059C83.9874 142.059 83.8994 141.971 83.8994 141.863C83.8994 141.754 83.9874 141.666 84.096 141.666C85.9313 141.666 87.6863 142.084 89.3121 142.909C89.4089 142.958 89.4475 143.076 89.3984 143.173C89.3638 143.241 89.2947 143.281 89.223 143.281Z" fill="white"/>
<path opacity="0.63" d="M77.7499 162.821C77.712 162.821 77.6737 162.81 77.6401 162.787C74.4527 160.634 72.5498 157.055 72.5498 153.213C72.5498 148.955 74.8823 145.055 78.6367 143.037C78.7323 142.986 78.8515 143.022 78.903 143.117C78.9545 143.213 78.9186 143.332 78.8231 143.384C75.196 145.333 72.9429 149.1 72.9429 153.213C72.9429 156.924 74.7813 160.381 77.8601 162.461C77.9501 162.522 77.974 162.644 77.913 162.734C77.8751 162.79 77.813 162.821 77.7499 162.821Z" fill="white"/>
<g opacity="0.3">
<path d="M33.1279 28.6646C32.9667 28.8636 32.6746 28.8943 32.4757 28.7331C32.089 28.4201 31.683 28.119 31.2689 27.8386C31.0593 27.6967 31.0028 27.4135 31.14 27.2022C31.1417 27.1997 31.1433 27.1972 31.145 27.1946C31.2885 26.9826 31.5769 26.9272 31.7889 27.0708C32.2248 27.3661 32.6523 27.6828 33.0593 28.0125C33.2455 28.1631 33.2843 28.4285 33.1566 28.625C33.1478 28.6385 33.1383 28.6518 33.1279 28.6646ZM29.1595 26.6118C28.7113 26.3905 28.2493 26.1863 27.7861 26.0047C27.5478 25.9113 27.4301 25.6423 27.5235 25.4038C27.6181 25.1648 27.8861 25.0479 28.1245 25.1414C28.6119 25.3324 29.0982 25.5473 29.5699 25.7801C29.7995 25.8934 29.8937 26.1716 29.7804 26.4012C29.7721 26.4179 29.763 26.4339 29.7532 26.449C29.627 26.6433 29.3725 26.7169 29.1595 26.6118ZM25.459 25.2748C24.9741 25.1592 24.4782 25.0632 23.9849 24.9897C23.7317 24.9519 23.5569 24.7158 23.5947 24.4627C23.6327 24.2097 23.8684 24.0348 24.1218 24.0725C24.6412 24.1499 25.1635 24.251 25.6741 24.3728C25.9232 24.4322 26.0769 24.6823 26.0176 24.9314C26.0049 24.9845 25.9836 25.0333 25.9555 25.0766C25.8516 25.2363 25.6549 25.3216 25.459 25.2748ZM21.5523 24.7991C21.0532 24.7948 20.5481 24.8121 20.051 24.8505C19.7956 24.8701 19.5727 24.6791 19.553 24.4239C19.5336 24.1686 19.7246 23.9458 19.9797 23.9259C20.5031 23.8856 21.0349 23.8674 21.5602 23.8717C21.8162 23.874 22.0221 24.0833 22.0198 24.3394C22.019 24.431 21.9918 24.5162 21.9453 24.5877C21.8619 24.7161 21.7168 24.8004 21.5523 24.7991ZM17.6371 25.2056C17.1506 25.3119 16.6617 25.4406 16.1843 25.5883C15.9395 25.6638 15.6799 25.5268 15.6043 25.2822C15.5286 25.0374 15.6657 24.7778 15.9105 24.7024C16.4128 24.5471 16.9271 24.4116 17.439 24.2997C17.6891 24.2449 17.9363 24.4034 17.991 24.6536C18.0186 24.7796 17.992 24.905 17.9268 25.0053C17.8627 25.104 17.7612 25.1784 17.6371 25.2056ZM13.9094 26.4682C13.4578 26.6798 13.0098 26.9134 12.5777 27.1627C12.3559 27.2906 12.0722 27.2145 11.9444 26.9927C11.8164 26.7709 11.8924 26.4874 12.1143 26.3593C12.5691 26.097 13.0407 25.8511 13.516 25.6284C13.7479 25.5198 14.0238 25.6196 14.1326 25.8516C14.2032 26.0022 14.1856 26.1714 14.1012 26.3013C14.0556 26.3715 13.9907 26.4301 13.9094 26.4682ZM3.45906 40.1526C3.20588 40.1144 3.03151 39.8782 3.0697 39.625C3.14802 39.1063 3.25008 38.5838 3.37303 38.0726C3.43289 37.8235 3.68328 37.6702 3.93227 37.7302C4.18113 37.7899 4.33444 38.0404 4.27464 38.2893C4.15788 38.7748 4.06104 39.2708 3.98673 39.7634C3.97653 39.831 3.95231 39.8928 3.91727 39.9467C3.82128 40.0945 3.64472 40.1807 3.45906 40.1526ZM10.5563 28.5244C10.1633 28.831 9.77881 29.1583 9.41367 29.4976C9.22595 29.6718 8.93251 29.6609 8.75832 29.4733C8.58395 29.2856 8.59585 28.9931 8.78261 28.818C9.16723 28.4608 9.57208 28.1161 9.98591 27.7933C10.1878 27.6358 10.4791 27.6718 10.6367 27.8737C10.7617 28.0338 10.7648 28.2503 10.66 28.4116C10.6328 28.4536 10.598 28.4918 10.5563 28.5244ZM4.40772 36.2244C4.16954 36.1305 4.05254 35.8612 4.14647 35.6229C4.33893 35.135 4.55501 34.6488 4.7884 34.178C4.90127 33.9478 5.18043 33.8549 5.40987 33.9686C5.63925 34.0823 5.73299 34.3606 5.61927 34.5901C5.39742 35.0375 5.19203 35.4995 5.00922 35.9632C4.99756 35.9928 4.98305 36.0204 4.96635 36.0461C4.84875 36.2271 4.61627 36.3066 4.40772 36.2244ZM7.74737 31.278C7.43311 31.6646 7.13136 32.0697 6.85062 32.4825C6.70667 32.6944 6.41827 32.7492 6.20644 32.6052C5.99752 32.4631 5.9413 32.1803 6.07834 31.9693C6.0801 31.9666 6.08198 31.9638 6.08386 31.9612C6.3793 31.5265 6.69689 31.0999 7.0276 30.693C7.18928 30.4944 7.48126 30.4642 7.68004 30.6258C7.86564 30.7766 7.90414 31.0415 7.77658 31.2377C7.76765 31.2514 7.75781 31.2649 7.74737 31.278Z" fill="#91B3FA"/>
<path d="M3.72493 43.1975C3.77465 43.121 3.80246 43.029 3.79936 42.9307C3.79178 42.6918 3.78922 42.4487 3.79135 42.2082C3.79378 41.9522 3.58802 41.7426 3.33205 41.7403C3.07595 41.7378 2.86607 41.9435 2.86412 42.1997C2.86169 42.4527 2.86455 42.7083 2.87238 42.9598C2.88039 43.2157 3.09447 43.4168 3.35026 43.4087C3.50818 43.4038 3.64503 43.3205 3.72493 43.1975Z" fill="#91B3FA"/>
</g>
<g opacity="0.3">
<path d="M9.65057 56.0312C9.77248 55.8435 9.74376 55.59 9.57249 55.435C9.39514 55.2747 9.21816 55.108 9.04664 54.9395C8.86389 54.7601 8.57034 54.7627 8.39093 54.9454C8.21079 55.1289 8.21419 55.4218 8.39682 55.6012C8.5775 55.7785 8.76384 55.9542 8.95047 56.123C9.14045 56.2947 9.43363 56.2799 9.6054 56.09C9.62233 56.0714 9.63733 56.0516 9.65057 56.0312Z" fill="#91B3FA"/>
<path d="M36.389 53.2534C36.2391 53.4611 35.9493 53.5079 35.7415 53.3579C35.5339 53.208 35.4874 52.9186 35.6371 52.7106C35.9224 52.3153 36.1953 51.9017 36.4517 51.4767C36.5825 51.258 36.869 51.1869 37.0883 51.3191C37.3076 51.4514 37.3781 51.7363 37.2459 51.9556C37.1349 52.1398 37.0212 52.3214 36.905 52.5003C36.739 52.7555 36.5655 53.0089 36.389 53.2534ZM37.7916 49.9504C37.5566 49.8491 37.4481 49.5763 37.5494 49.3412C37.7439 48.8897 37.9216 48.4252 38.0772 47.9604C38.1577 47.7176 38.4212 47.5865 38.6642 47.6678C38.9068 47.7491 39.0379 48.0119 38.9566 48.2546C38.7928 48.7441 38.6059 49.2331 38.401 49.7082C38.3904 49.7328 38.3779 49.7562 38.3637 49.7778C38.2429 49.9637 38.0023 50.0412 37.7916 49.9504ZM34.7732 55.196C34.4169 55.569 34.0397 55.932 33.6521 56.2747C33.4602 56.4443 33.1672 56.4262 32.9975 56.2343C32.8279 56.0424 32.8462 55.7497 33.0378 55.5798C33.4061 55.2544 33.7642 54.9099 34.1024 54.5555C34.2793 54.3704 34.5728 54.3636 34.7581 54.5404C34.9219 54.6969 34.946 54.9447 34.8269 55.128C34.8114 55.1518 34.7935 55.1746 34.7732 55.196ZM39.0513 46.1785C38.7996 46.1313 38.6337 45.889 38.6811 45.6373C38.7717 45.1549 38.8426 44.6628 38.8921 44.1748C38.9179 43.9198 39.1453 43.7344 39.4002 43.7602C39.655 43.786 39.8405 44.0134 39.8147 44.2682C39.7626 44.7821 39.6879 45.3003 39.5925 45.8083C39.5809 45.8697 39.5579 45.9261 39.5259 45.9754C39.4265 46.1282 39.2415 46.2142 39.0513 46.1785ZM31.6498 57.8128C31.2205 58.0982 30.7729 58.3692 30.3194 58.6183C30.095 58.7416 29.8132 58.6597 29.6899 58.4353C29.5664 58.2108 29.6485 57.9289 29.8729 57.8056C30.3036 57.5689 30.7288 57.3115 31.1365 57.0405C31.3498 56.8987 31.6376 56.9567 31.7794 57.17C31.885 57.3289 31.8797 57.5291 31.782 57.6795C31.7486 57.731 31.7042 57.7767 31.6498 57.8128ZM28.0283 59.6812C27.5458 59.8663 27.0498 60.0332 26.5542 60.1772C26.3082 60.2486 26.051 60.1073 25.9795 59.8613C25.908 59.6151 26.0494 59.3579 26.2954 59.2867C26.7663 59.1498 27.2376 58.9913 27.6962 58.8155C27.9353 58.7237 28.2035 58.8433 28.2952 59.0824C28.3504 59.2265 28.329 59.3812 28.2508 59.5013C28.1993 59.5805 28.1233 59.6448 28.0283 59.6812ZM24.0855 60.716C23.5739 60.7917 23.0533 60.8466 22.5385 60.8792C22.2828 60.8954 22.0627 60.7013 22.0464 60.4458C22.0302 60.1899 22.2244 59.9699 22.4798 59.9537C22.969 59.9228 23.4636 59.8705 23.9498 59.7986C24.2031 59.7612 24.4389 59.9362 24.4763 60.1894C24.4935 60.3058 24.4659 60.4184 24.4065 60.5098C24.3366 60.6175 24.2225 60.6957 24.0855 60.716ZM20.0109 60.8661C19.4951 60.8281 18.9751 60.7676 18.4651 60.6861C18.2122 60.6458 18.0398 60.4081 18.0803 60.1551C18.1205 59.9027 18.3584 59.7301 18.6113 59.7705C19.0955 59.8477 19.5893 59.9052 20.0793 59.9413C20.3346 59.9601 20.5264 60.1823 20.5075 60.4378C20.5015 60.5185 20.4753 60.5926 20.4342 60.656C20.3449 60.7932 20.1857 60.8789 20.0109 60.8661ZM16.0008 60.1168C15.5073 59.9664 15.0138 59.7929 14.5336 59.601C14.2958 59.5059 14.18 59.2361 14.2751 58.9983C14.37 58.7613 14.6399 58.6448 14.8777 58.7398C15.3338 58.9222 15.8026 59.0869 16.2713 59.2299C16.5162 59.3044 16.6543 59.5636 16.5796 59.8085C16.5666 59.8511 16.5481 59.8907 16.5249 59.9263C16.4152 60.0951 16.2031 60.1785 16.0008 60.1168ZM12.257 58.5069C11.9263 58.3196 11.5971 58.1198 11.2789 57.913C11.1636 57.838 11.0497 57.7622 10.9366 57.6852C10.7251 57.541 10.6644 57.2525 10.8146 57.041C10.9587 56.8293 11.2471 56.7746 11.4589 56.9188C11.5662 56.9919 11.6747 57.0642 11.7843 57.1354C12.0868 57.332 12.3995 57.5219 12.714 57.7C12.9369 57.8262 13.0152 58.1091 12.889 58.332C12.8842 58.3403 12.8793 58.3485 12.8741 58.3566C12.7415 58.5604 12.4714 58.6284 12.257 58.5069Z" fill="#91B3FA"/>
<path d="M39.8217 41.999C39.8719 41.9218 39.8996 41.8289 39.8961 41.7299C39.887 41.479 39.8724 41.2236 39.8527 40.9707C39.8328 40.7154 39.6098 40.5245 39.3545 40.5444C39.0992 40.5644 38.9082 40.7871 38.9282 41.0426C38.9468 41.2828 38.9607 41.5254 38.9694 41.7636C38.9786 42.0194 39.1936 42.2194 39.4495 42.2101C39.6064 42.2043 39.7422 42.1213 39.8217 41.999Z" fill="#91B3FA"/>
</g>
<path d="M34.0058 36.5819C33.9775 36.4939 33.8966 36.4334 33.8042 36.4314L31.1672 36.3734C30.5337 35.317 29.7272 34.3541 28.7622 33.5322L29.1385 30.9233C29.1516 30.8318 29.1053 30.742 29.0231 30.6997L26.21 29.2519C26.1278 29.2095 26.0278 29.2241 25.961 29.288L24.0567 31.1105C22.827 30.8028 21.5746 30.7061 20.3468 30.8046L18.7671 28.6924C18.7118 28.6184 18.6155 28.5876 18.5274 28.6158L15.5145 29.5812C15.4265 29.6095 15.366 29.6904 15.364 29.7829L15.3061 32.4198C14.2497 33.0532 13.2867 33.8597 12.4649 34.8249L9.85597 34.4486C9.76442 34.4353 9.67462 34.4817 9.63236 34.5639L8.18451 37.3769C8.14219 37.4591 8.15676 37.5591 8.22063 37.6259L10.0432 39.5303C9.7354 40.76 9.63874 42.0124 9.73728 43.2402L7.62503 44.8199C7.55102 44.8752 7.52018 44.9715 7.54847 45.0596L8.51389 48.0724C8.54206 48.1605 8.62311 48.2209 8.71546 48.2229L11.3525 48.2809C11.986 49.3373 12.7924 50.3002 13.7575 51.1221L13.3812 53.7311C13.368 53.8225 13.4143 53.9124 13.4965 53.9547L16.3097 55.4024C16.3919 55.4448 16.4919 55.4303 16.5586 55.3663L18.4631 53.5439C19.6928 53.8516 20.9451 53.9482 22.173 53.8498L23.7526 55.962C23.8079 56.0361 23.9042 56.0668 23.9923 56.0385L27.0052 55.0731C27.0932 55.0449 27.1537 54.964 27.1557 54.8716L27.2136 52.2346C28.2701 51.6011 29.233 50.7947 30.0549 49.8296L32.6638 50.2059C32.7552 50.219 32.8451 50.1728 32.8874 50.0905L34.3352 47.2774C34.3775 47.1952 34.363 47.0952 34.299 47.0285L32.4766 45.1241C32.7843 43.8944 32.8809 42.6421 32.7825 41.4142L34.8947 39.8345C34.9688 39.7791 34.9995 39.6828 34.9713 39.5949L34.0058 36.5819Z" fill="#91B3FA"/>
<path d="M23.6449 44.4303C22.4852 45.7455 20.4718 45.8723 19.1563 44.7125C18.519 44.1508 18.1388 43.3744 18.0855 42.5267C18.0322 41.6791 18.3121 40.8612 18.874 40.224C20.0337 38.9087 22.0472 38.782 23.3626 39.9418C24.5593 40.9969 24.7721 42.7586 23.9274 44.0584C23.8437 44.1872 23.7494 44.3117 23.6449 44.4303ZM18.8259 42.4802C18.8669 43.1303 19.1584 43.7254 19.647 44.1561C20.6554 45.0452 22.1994 44.9481 23.0885 43.9397C23.9782 42.9312 23.8805 41.3873 22.8719 40.4981C21.8635 39.6091 20.3196 39.7061 19.4305 40.7146C19.3499 40.8061 19.277 40.9022 19.2118 41.0026C18.9285 41.4386 18.7928 41.9519 18.8259 42.4802Z" fill="#BDD0FB"/>
<path d="M27.7441 46.6153C27.8891 46.3921 28.0239 46.1602 28.1474 45.9203C28.1863 45.8448 28.2239 45.7686 28.2603 45.6918C28.44 45.3133 28.5892 44.9212 28.7057 44.5214C28.7073 44.516 28.7089 44.5106 28.7105 44.5051C28.715 44.4896 28.7194 44.4741 28.7237 44.4586C28.7323 44.4284 28.7405 44.3981 28.7487 44.368C28.7702 44.2884 28.7365 44.2069 28.671 44.1643C28.655 44.1539 28.6371 44.1459 28.6178 44.1406C28.5189 44.114 28.4174 44.1728 28.3906 44.2715C28.2537 44.7805 28.0608 45.2781 27.8175 45.7505C26.61 48.0976 24.32 49.5314 21.8684 49.758C20.5048 49.8842 19.0912 49.6367 17.7859 48.9649C17.557 48.8472 17.3357 48.7187 17.1228 48.5802C15.6898 47.6488 14.6296 46.2645 14.1012 44.6149C13.494 42.7202 13.6611 40.7025 14.5715 38.9334C16.4522 35.2801 20.9514 33.8396 24.6031 35.7191C24.8283 35.8349 25.0467 35.9618 25.2577 36.0989C26.1717 36.6931 26.9456 37.4807 27.5209 38.4079C27.5358 38.4318 27.5552 38.4512 27.5774 38.4656C27.6357 38.5035 27.7132 38.5069 27.7762 38.4676C27.8632 38.4133 27.8903 38.2994 27.836 38.2122C27.2319 37.2388 26.4194 36.4117 25.4599 35.788C25.2385 35.644 25.0092 35.5109 24.773 35.3892C20.939 33.4159 16.2143 34.931 14.2417 38.7636C13.2858 40.6207 13.1106 42.7389 13.748 44.728C14.3027 46.4597 15.4158 47.913 16.9201 48.8908C17.1436 49.0361 17.3759 49.171 17.6161 49.2947C19.4734 50.2505 21.5916 50.4259 23.5807 49.7886C25.3127 49.2336 26.7663 48.1201 27.7441 46.6153Z" fill="#BDD0FB"/>
<g opacity="0.3">
<path d="M52.0245 22.0143C52.092 21.9104 52.0864 21.7707 52.0015 21.6719C51.8432 21.4874 51.6772 21.3051 51.508 21.1302C51.3981 21.0165 51.217 21.0136 51.1031 21.1235C50.9888 21.2332 50.9865 21.4148 51.0964 21.5285C51.2576 21.6951 51.4159 21.8689 51.567 22.0449C51.6698 22.1649 51.8506 22.1787 51.9708 22.0758C51.992 22.0575 52.0099 22.0367 52.0245 22.0143Z" fill="#91B3FA"/>
<path d="M50.4255 20.5037C50.3262 20.6268 50.1461 20.6463 50.0228 20.547C49.7118 20.2967 49.3844 20.0594 49.0498 19.842C48.9793 19.7961 48.9079 19.7509 48.8358 19.7063C48.7015 19.6229 48.6601 19.4464 48.7435 19.3119C48.8274 19.188 49.0034 19.1363 49.138 19.2196C49.2134 19.2664 49.288 19.3137 49.3619 19.3617C49.7127 19.5897 50.056 19.8384 50.382 20.101C50.4974 20.1939 50.5218 20.3581 50.4427 20.4798C50.4375 20.4879 50.4317 20.4958 50.4255 20.5037ZM47.5555 19.0161C47.1162 18.8129 46.6605 18.635 46.2009 18.4876C46.0502 18.4392 45.9675 18.2782 46.0157 18.1275C46.064 17.9777 46.2253 17.8938 46.3759 17.9422C46.8575 18.0967 47.3354 18.2831 47.7959 18.4963C47.9395 18.5627 48.002 18.733 47.9357 18.8766C47.9299 18.8892 47.923 18.9012 47.9157 18.9126C47.8393 19.0301 47.6863 19.0767 47.5555 19.0161ZM44.7909 18.1307C44.316 18.0414 43.8306 17.981 43.3476 17.9512C43.1899 17.9414 43.0697 17.8055 43.0796 17.6478C43.0894 17.4894 43.2249 17.3697 43.383 17.3795C43.8894 17.4107 44.3988 17.4742 44.8967 17.5676C45.0521 17.5969 45.1546 17.7466 45.1253 17.902C45.1181 17.9398 45.1039 17.9746 45.0841 18.0051C45.0227 18.0995 44.9084 18.1527 44.7909 18.1307ZM41.8932 17.9515C41.4102 17.9814 40.9244 18.0417 40.4503 18.1307C40.2946 18.1598 40.145 18.0574 40.116 17.902C40.087 17.7469 40.1892 17.5969 40.3446 17.5677C40.8421 17.4744 41.3511 17.4113 41.8578 17.3798C42.0156 17.37 42.1516 17.4902 42.1615 17.6481C42.1652 17.7117 42.1481 17.7718 42.1158 17.8215C42.068 17.895 41.9874 17.9457 41.8932 17.9515ZM39.0396 18.4852C38.5785 18.6316 38.1224 18.808 37.6834 19.0093C37.5398 19.0753 37.3697 19.0121 37.3037 18.8684C37.2377 18.7246 37.3006 18.5545 37.4447 18.4887C37.9047 18.2777 38.383 18.0929 38.8661 17.9392C39.0168 17.8915 39.1778 17.9747 39.2257 18.1253C39.2528 18.2105 39.238 18.2989 39.1928 18.3684C39.1581 18.4219 39.1052 18.4643 39.0396 18.4852ZM36.402 19.6955C35.9908 19.9494 35.5918 20.2314 35.2158 20.5339C35.0926 20.633 34.9122 20.6135 34.8132 20.4903C34.7142 20.367 34.7336 20.1874 34.8568 20.0875C35.251 19.7703 35.6698 19.4745 36.1011 19.2081C36.2357 19.1251 36.4121 19.1667 36.4952 19.3012C36.5553 19.3986 36.5501 19.518 36.4917 19.6079C36.4693 19.6423 36.4393 19.6725 36.402 19.6955ZM34.1414 21.5132C33.8062 21.8593 33.4882 22.2309 33.1965 22.6182C33.1012 22.7444 32.9217 22.7697 32.7954 22.6745C32.6692 22.5794 32.6457 22.4014 32.739 22.2733C33.045 21.8674 33.3784 21.4777 33.7299 21.1148C33.8401 21.0012 34.0214 20.9983 34.135 21.1083C34.2349 21.2051 34.2491 21.3572 34.176 21.4698C34.1661 21.4851 34.1546 21.4996 34.1414 21.5132ZM31.3711 25.2857C31.2254 25.224 31.1574 25.0561 31.219 24.9104C31.3897 24.5072 31.5855 24.1064 31.8 23.7201C31.8323 23.6612 31.8654 23.6032 31.8987 23.5452C31.9734 23.4066 32.153 23.3612 32.2901 23.4408C32.4271 23.52 32.4738 23.695 32.3947 23.8321C32.3631 23.8863 32.3322 23.9411 32.3013 23.9972C32.0958 24.3669 31.9091 24.7491 31.7463 25.1336C31.7396 25.1495 31.7316 25.1645 31.7226 25.1782C31.6484 25.2926 31.5008 25.3406 31.3711 25.2857Z" fill="#91B3FA"/>
</g>
<g opacity="0.3">
<path d="M52.8881 36.6111C52.6108 37.0261 52.3055 37.4275 51.9813 37.8049C51.8781 37.9246 51.6974 37.9384 51.5773 37.8352C51.4572 37.732 51.4456 37.5513 51.547 37.4313C51.8564 37.0717 52.1474 36.6886 52.412 36.2927C52.4998 36.1611 52.6778 36.1259 52.8092 36.2137C52.9396 36.301 52.9755 36.4768 52.8903 36.6078C52.8896 36.6089 52.8888 36.61 52.8881 36.6111ZM53.2603 35.4419C53.1193 35.3705 53.0629 35.1981 53.1344 35.0571C53.3495 34.6328 53.5411 34.1911 53.7037 33.7443C53.7579 33.5967 53.9222 33.519 54.0709 33.5733C54.2196 33.6274 54.296 33.7916 54.242 33.9403C54.0715 34.4085 53.8708 34.8714 53.6452 35.316C53.6404 35.3254 53.6354 35.3343 53.6297 35.343C53.5511 35.464 53.3922 35.5088 53.2603 35.4419ZM50.9352 38.8803C50.5655 39.2161 50.1723 39.5323 49.7663 39.8197C49.6372 39.9111 49.4583 39.8806 49.367 39.7516C49.2755 39.6225 49.3061 39.4445 49.435 39.3523C49.8224 39.078 50.1974 38.7766 50.5502 38.4564C50.6674 38.3501 50.8485 38.3588 50.9546 38.4757C51.044 38.5742 51.0521 38.7178 50.9829 38.8243C50.9698 38.8444 50.9539 38.8633 50.9352 38.8803ZM54.3245 32.7161C54.1704 32.6807 54.0743 32.5268 54.1097 32.3727C54.2165 31.9092 54.2958 31.4345 54.3453 30.9617C54.362 30.8046 54.5029 30.6904 54.6598 30.7066C54.8172 30.7231 54.9314 30.864 54.9149 31.0213C54.8632 31.5171 54.7801 32.0152 54.6679 32.5013C54.6601 32.535 54.6467 32.5657 54.629 32.5931C54.5653 32.6911 54.4449 32.7439 54.3245 32.7161ZM48.4926 40.6097C48.054 40.8462 47.5964 41.0582 47.1322 41.2403C46.985 41.298 46.8187 41.2253 46.761 41.078C46.7033 40.9307 46.7756 40.7645 46.9232 40.7068C47.366 40.5335 47.8024 40.3311 48.2206 40.1054C48.3597 40.0304 48.5335 40.0823 48.6086 40.2217C48.6601 40.317 48.6518 40.4288 48.5965 40.5138C48.5713 40.5526 48.5363 40.5861 48.4926 40.6097ZM45.706 41.7027C45.2226 41.8275 44.7273 41.9241 44.234 41.9898C44.0773 42.0107 43.9333 41.9006 43.9125 41.7438C43.8915 41.5872 44.0017 41.443 44.1586 41.4221C44.629 41.3594 45.1014 41.2672 45.5628 41.148C45.7159 41.1084 45.8721 41.2006 45.9117 41.3537C45.9325 41.4346 45.9168 41.5164 45.8744 41.5815C45.8368 41.6395 45.7781 41.6841 45.706 41.7027ZM42.7376 42.0972C42.2381 42.1028 41.7338 42.0776 41.2392 42.0227C41.0818 42.0051 40.9687 41.8636 40.9862 41.7064C41.0035 41.5492 41.1454 41.4361 41.3023 41.4534C41.7741 41.5059 42.2548 41.5299 42.7311 41.5243C42.8893 41.5226 43.019 41.6494 43.0206 41.8076C43.0215 41.8663 43.0044 41.9209 42.9746 41.9666C42.9242 42.0442 42.8372 42.096 42.7376 42.0972Z" fill="#91B3FA"/>
<path d="M54.9331 29.6705C54.9632 29.6242 54.9802 29.5687 54.9791 29.5093C54.9746 29.2642 54.9627 29.0182 54.9441 28.778C54.9318 28.6204 54.794 28.5023 54.6363 28.5145C54.479 28.5272 54.3609 28.6647 54.3729 28.8224C54.3908 29.0514 54.402 29.2862 54.4065 29.5201C54.4094 29.6782 54.5401 29.804 54.6981 29.801C54.7968 29.7991 54.883 29.7476 54.9331 29.6705Z" fill="#91B3FA"/>
</g>
<path d="M51.0568 25.8395C51.0378 25.7806 50.9837 25.7401 50.9219 25.7387L49.1573 25.6999C48.7334 24.993 48.1938 24.3487 47.548 23.7987L47.7998 22.053C47.8086 21.9917 47.7776 21.9317 47.7226 21.9033L45.8402 20.9345C45.7852 20.9062 45.7182 20.9159 45.6736 20.9587L44.3993 22.1782C43.5764 21.9723 42.7384 21.9076 41.9168 21.9735L40.8597 20.5601C40.8227 20.5106 40.7583 20.49 40.6993 20.5089L38.6832 21.1549C38.6243 21.1738 38.5838 21.2279 38.5825 21.2898L38.5438 23.0543C37.8369 23.4782 37.1924 24.0178 36.6425 24.6637L34.8967 24.4118C34.8355 24.403 34.7754 24.434 34.7471 24.489L33.7782 26.3714C33.7499 26.4264 33.7597 26.4933 33.8024 26.538L35.022 27.8123C34.816 28.6352 34.7514 29.4732 34.8173 30.2948L33.4039 31.3518C33.3543 31.3888 33.3337 31.4533 33.3526 31.5122L33.9986 33.5283C34.0175 33.5872 34.0717 33.6276 34.1335 33.629L35.8981 33.6678C36.3219 34.3747 36.8616 35.0191 37.5074 35.569L37.2556 37.3148C37.2468 37.376 37.2777 37.4361 37.3328 37.4644L39.2152 38.4332C39.2702 38.4615 39.3371 38.4518 39.3818 38.409L40.6561 37.1895C41.479 37.3954 42.317 37.4601 43.1386 37.3941L44.1957 38.8076C44.2327 38.8571 44.2971 38.8777 44.3561 38.8588L46.3721 38.2128C46.4311 38.1939 46.4715 38.1398 46.4729 38.0779L46.5117 36.3134C47.2186 35.8895 47.8629 35.3498 48.4129 34.704L50.1586 34.9559C50.2198 34.9647 50.28 34.9337 50.3083 34.8787L51.2771 32.9963C51.3054 32.9413 51.2957 32.8744 51.2529 32.8297L50.0334 31.5554C50.2393 30.7325 50.3039 29.8945 50.2381 29.0729L51.6515 28.0158C51.701 27.9788 51.7216 27.9144 51.7027 27.8555L51.0568 25.8395Z" fill="#91B3FA"/>
<path d="M44.1523 31.1172C43.7697 31.5515 43.2408 31.8105 42.6633 31.8467C42.0859 31.8832 41.5288 31.6924 41.0948 31.3097C40.1989 30.5198 40.113 29.1506 40.9024 28.252C41.6927 27.3563 43.0641 27.27 43.9598 28.0598C44.3939 28.4424 44.6529 28.9712 44.6893 29.5486C44.7188 30.0181 44.5982 30.474 44.3465 30.8614C44.2886 30.9505 44.2237 31.0361 44.1523 31.1172ZM41.4734 30.88C41.7927 31.1616 42.2025 31.3019 42.6274 31.2752C43.0521 31.2484 43.4411 31.0578 43.7226 30.7386C44.0037 30.4189 44.1443 30.0095 44.1176 29.5846C44.0911 29.1599 43.9003 28.771 43.5811 28.4895C42.9221 27.9085 41.9133 27.9719 41.332 28.6308C41.2797 28.6903 41.2325 28.7526 41.1906 28.8172C40.7673 29.4686 40.8739 30.3515 41.4734 30.88Z" fill="#BDD0FB"/>
<path d="M47.0059 32.6376C47.1046 32.4857 47.1964 32.3275 47.2812 32.1632C47.4494 31.8366 47.5845 31.4927 47.683 31.1399C47.6873 31.124 47.6916 31.1082 47.6959 31.0923C47.729 30.9694 47.677 30.8437 47.5757 30.7777C47.5512 30.7618 47.5235 30.7493 47.4937 30.7412C47.341 30.7001 47.1844 30.7911 47.1429 30.9434C47.0541 31.2736 46.9292 31.5956 46.7719 31.9007L46.7719 31.9008C46.7633 31.9176 46.7544 31.9343 46.7457 31.9508C46.3671 32.6695 45.8236 33.2666 45.165 33.7053C44.8075 33.9434 44.4157 34.1347 43.9973 34.2729C43.9939 34.2741 43.9905 34.2752 43.9871 34.2763C43.9765 34.2797 43.9663 34.2832 43.9558 34.2864C42.7292 34.6793 41.423 34.5713 40.2778 33.9818C40.1295 33.9056 39.9864 33.8225 39.8485 33.7329C38.9209 33.1299 38.2345 32.2336 37.8922 31.1657C37.4993 29.9391 37.6076 28.6329 38.197 27.4879C38.7864 26.3437 39.7865 25.4955 41.013 25.1023C42.2396 24.7094 43.5459 24.8174 44.6911 25.4069C44.8369 25.4818 44.9783 25.564 45.1147 25.6527C45.7065 26.0374 46.2074 26.5472 46.5798 27.1474C46.6029 27.1844 46.6327 27.2143 46.667 27.2365C46.7571 27.295 46.8768 27.3002 46.9741 27.2397C47.1083 27.156 47.1499 26.9799 47.0664 26.8452C46.6497 26.1737 46.0892 25.6031 45.4273 25.1727C45.2744 25.0734 45.1163 24.9815 44.9534 24.8976C43.6719 24.2381 42.2105 24.1171 40.8382 24.5569C39.466 24.9967 38.3466 25.9432 37.6877 27.2257C37.0282 28.5069 36.9071 29.9682 37.3471 31.3405C37.7298 32.5353 38.4977 33.538 39.5355 34.2126C39.6896 34.3127 39.8499 34.4058 40.0155 34.4911C42.4963 35.7678 45.5172 34.9285 47.0059 32.6376Z" fill="#BDD0FB"/>
<path d="M110.024 52.0781L101.696 60.5973L111.686 57.9287L110.024 52.0781Z" fill="#91B3FA"/>
<path d="M159.579 55.6038L112.257 57.9004C111.042 57.9594 110.024 56.9899 110.024 55.7732V36.305C110.024 34.189 111.705 32.4555 113.82 32.3901L156.469 31.0703C159.645 31.0703 162.22 33.645 162.22 36.821V52.8317C162.22 54.3122 161.058 55.5321 159.579 55.6038Z" fill="#91B3FA"/>
<path opacity="0.85" d="M113.672 57.1188C112.918 57.1188 112.207 56.8346 111.657 56.3102C111.073 55.7526 110.751 55.0006 110.751 54.1927V36.6462C110.751 34.5784 112.409 32.9085 114.525 32.8446L155.819 31.5977C158.949 31.5977 161.493 34.0812 161.493 37.1337V52.2614C161.493 53.7172 160.327 54.9127 158.838 54.9831L113.815 57.1155C113.768 57.1176 113.72 57.1188 113.672 57.1188ZM155.822 31.8027L114.531 33.0497C112.527 33.1102 110.956 34.69 110.956 36.6462V54.1926C110.956 54.9439 111.255 55.6431 111.799 56.1616C112.343 56.68 113.055 56.9469 113.806 56.9104L158.829 54.778C160.208 54.7128 161.288 53.6074 161.288 52.2613V37.1336C161.288 34.1942 158.836 31.8027 155.822 31.8027Z" fill="white"/>
<path d="M155.685 35.3522L117.845 36.7683C117.474 36.7822 117.181 37.0285 117.194 37.3171L117.208 37.6496C117.22 37.9352 117.527 38.1546 117.894 38.1411L155.735 36.7593C156.107 36.7457 156.4 36.4994 156.387 36.2106L156.372 35.8436C156.36 35.5579 156.053 35.3385 155.685 35.3522Z" fill="url(#paint5_linear_677_63276)"/>
<path d="M152.299 44.9322L114.459 46.3412C114.087 46.3551 113.795 46.6097 113.808 46.9086L113.823 47.2531C113.835 47.5488 114.142 47.7766 114.51 47.7632L152.351 46.3898C152.723 46.3764 153.015 46.1216 153.003 45.8225L152.986 45.4423C152.974 45.1463 152.667 44.9185 152.299 44.9322Z" fill="url(#paint6_linear_677_63276)"/>
<path d="M156.719 48.9382L114.536 50.5309C114.122 50.5466 113.795 50.805 113.808 51.1068L113.823 51.4547C113.836 51.7534 114.176 51.982 114.586 51.9668L156.771 50.4101C157.185 50.3948 157.513 50.1362 157.5 49.8341L157.483 49.4502C157.471 49.1515 157.129 48.9228 156.719 48.9382Z" fill="url(#paint7_linear_677_63276)"/>
<path d="M134.938 41.0001L114.314 41.6013C114.112 41.6072 113.96 41.8852 113.977 42.2206L113.996 42.6073C114.012 42.9392 114.187 43.2026 114.388 43.1971L135.014 42.6359C135.216 42.6303 135.368 42.3523 135.351 42.0165L135.33 41.5899C135.314 41.2576 135.139 40.9943 134.938 41.0001Z" fill="url(#paint8_linear_677_63276)"/>
<path d="M157.664 40.2872L138.17 40.846C137.978 40.8515 137.836 41.1291 137.853 41.4646L137.872 41.8512C137.889 42.1832 138.055 42.4468 138.244 42.4417L157.74 41.9229C157.931 41.9178 158.074 41.64 158.057 41.3043L158.036 40.8777C158.02 40.5455 157.853 40.2817 157.664 40.2872Z" fill="url(#paint9_linear_677_63276)"/>
<path d="M38.1721 162.984C38.1721 162.984 37.782 165.193 37.5907 167.378C37.516 168.233 38.1746 168.974 39.0315 169.01C41.9424 169.131 48.1691 169.367 50.4034 169.267C50.7393 169.252 50.9589 168.909 50.8346 168.596C50.7304 168.334 50.5295 168.123 50.2735 168.005L39.9883 163.278L38.1721 162.984Z" fill="url(#paint10_linear_677_63276)"/>
<path d="M37.8516 161.687L38.165 164.328C38.165 164.328 39.9667 165.167 41.1971 164.223L40.451 161.279L37.8516 161.687Z" fill="url(#paint11_linear_677_63276)"/>
<path d="M38.0876 112.029C37.9522 112.719 37.361 146.449 40.9665 161.565C41.0253 161.812 40.9003 162.066 40.6655 162.162C40.1126 162.388 39.0284 162.715 37.7291 162.759C37.3267 162.772 36.966 162.511 36.8524 162.124C35.8218 158.617 30.8832 141.046 30.2389 124.26C29.519 105.504 30.2389 123.621 30.2389 123.621L30.6611 112.027L38.0876 112.029Z" fill="url(#paint12_linear_677_63276)"/>
<path d="M26.3404 164.137C26.3404 164.137 25.7196 165.251 25.1184 168.214C25.0099 168.749 25.3836 169.261 25.9269 169.314C26.8881 169.409 28.3678 169.53 29.5531 169.522C30.0995 169.518 30.5259 169.043 30.4601 168.5C30.3288 167.419 29.9198 165.645 28.6562 164.262L26.3404 164.137Z" fill="url(#paint13_linear_677_63276)"/>
<path d="M25.7949 160.739L26.5272 164.733C26.5272 164.733 27.2512 165.272 28.6835 164.882L28.334 160.584L25.7949 160.739Z" fill="url(#paint14_linear_677_63276)"/>
<path d="M23.8168 113.064C20.868 130.861 24.4565 157.05 25.6668 162.176C25.7408 162.49 25.9941 162.73 26.3122 162.783C26.8524 162.872 27.7418 162.945 28.6187 162.691C28.9208 162.603 29.1331 162.331 29.1453 162.016C29.3077 157.872 29.0154 132.431 31.7631 122.377C31.9023 121.867 32.2135 121.423 32.644 121.117L37.9771 117.326L38.386 111.197L23.8168 113.064Z" fill="url(#paint15_linear_677_63276)"/>
<path d="M42.6063 79.345C33.7691 79.199 24.0182 81.6654 24.0182 81.6654C21.384 97.0358 23.5576 114.764 23.5576 114.764C30.3991 116.559 38.1168 113.667 38.1168 113.667C39.2539 107.243 44.5594 89.1625 44.5594 89.1625C48.8772 88.6266 52.4342 87.3808 55.3634 85.7338C53.129 83.144 52.0757 79.8485 51.6182 77.9004C48.4937 78.8714 45.3321 79.3901 42.6063 79.345Z" fill="url(#paint16_linear_677_63276)"/>
<path d="M68.7098 66.3279C67.8417 65.2794 66.7429 65.7754 66.7429 65.7754C65.4424 71.2688 58.6236 75.7228 51.6182 77.9C52.0756 79.8481 53.129 83.1436 55.3633 85.7335C66.9895 79.1966 68.7098 66.3279 68.7098 66.3279Z" fill="url(#paint17_linear_677_63276)"/>
<path d="M68.5002 66.5936C68.5911 66.8824 67.5391 67.3221 66.9198 66.141C66.8981 65.575 66.5539 63.15 66.8922 62.6889C68.6936 60.2329 72.1861 57.1543 72.1861 57.1543C72.7764 57.7367 72.2901 58.3088 72.2901 58.3088L70.5958 60.0738C70.9502 60.7142 71.3825 61.2548 71.585 62.0294C71.7384 62.616 71.6446 63.2429 71.3483 63.7768C71.0509 64.3125 70.6451 65.0091 70.2615 65.5541C69.5355 66.5859 68.5002 66.5936 68.5002 66.5936Z" fill="url(#paint18_linear_677_63276)"/>
<path d="M69.8539 61.2188L68.3099 62.5276L67.8252 63.8307L69.2018 65.3579C69.2018 65.3579 69.6647 62.7722 70.0087 62.2126C70.3527 61.653 70.1742 61.3824 69.8539 61.2188Z" fill="url(#paint19_linear_677_63276)"/>
<path d="M27.4088 90.2211L24.0192 81.6641C24.0192 81.6641 15.7647 87.2726 14.4072 94.3836C15.9669 94.4985 18.805 94.9042 21.583 96.3068C22.1935 92.9491 27.4088 90.2211 27.4088 90.2211Z" fill="url(#paint20_linear_677_63276)"/>
<path d="M34.6219 98.2722C34.6219 98.2722 25.3542 103.51 22.2271 99.0375C21.5779 98.1088 21.4227 97.1859 21.5827 96.3061C18.8047 94.9034 15.9665 94.4976 14.4069 94.3828C13.9976 96.5266 14.214 98.8066 15.4737 101.111C20.9512 111.131 35.8485 100.557 35.8485 100.557L34.6219 98.2722Z" fill="url(#paint21_linear_677_63276)"/>
<path d="M33.5086 104.897L38.5666 87.2332C38.6239 87.0327 38.795 86.8865 39.0022 86.8623C39.9186 86.7555 42.5739 86.4553 45.6399 86.1959C49.333 85.8836 53.6216 85.6304 56.1844 85.8458C56.5488 85.8764 56.769 86.2617 56.6069 86.5895C55.1496 89.5379 49.1549 101.531 46.153 105.46C46.0535 105.59 45.8997 105.667 45.7359 105.665L34.0007 105.556C33.6591 105.553 33.4145 105.225 33.5086 104.897Z" fill="#91B3FA"/>
<path d="M46.1646 84.6655L49.8317 84.0545C50.027 84.022 50.187 84.2086 50.1249 84.3966L49.7619 85.4966C49.7302 85.5924 49.6468 85.6617 49.5468 85.675L46.0179 86.1464C45.8354 86.1708 45.6849 86.0049 45.7268 85.8255L45.9515 84.8652C45.9757 84.7618 46.0598 84.683 46.1646 84.6655Z" fill="#BDD0FB"/>
<path d="M43.4188 87.7688L43.7209 86.1952C43.7512 86.0375 43.8815 85.9182 44.0413 85.9019L51.448 85.1504C51.6973 85.125 51.897 85.3535 51.8385 85.5972L51.3675 87.558C51.3298 87.7149 51.1933 87.8282 51.0321 87.8362L43.7943 88.2006C43.5587 88.2126 43.3743 88.0005 43.4188 87.7688Z" fill="#BDD0FB"/>
<path d="M34.7311 100.63C34.7311 100.63 34.0265 97.7326 34.3107 96.7048C34.595 95.6769 35.1456 94.3554 36.981 94.649C38.8165 94.9427 40.9817 95.7159 40.9817 95.7159C40.9817 95.7159 40.8723 97.0548 39.4773 96.6228L40.3423 97.2922C40.3423 97.2922 40.2187 98.3641 39.0404 97.7914L39.845 98.6791C39.845 98.6791 39.3389 99.5595 38.472 98.9948C37.6052 98.4301 37.1896 100.979 34.7311 100.63Z" fill="url(#paint22_linear_677_63276)"/>
<path d="M33.6554 72.1699L30.8435 80.3017C30.7969 80.4363 30.8523 80.5855 30.977 80.6545C31.7435 81.0783 34.505 82.3032 37.8329 80.1933C38.1796 79.9736 38.4156 79.6151 38.4682 79.208L39.3788 72.17H33.6554V72.1699Z" fill="url(#paint23_linear_677_63276)"/>
<path d="M39.7737 64.6406C39.7737 64.6406 42.8615 70.4529 42.4657 72.8008C42.0699 75.1486 38.2431 74.9801 34.9015 73.0732L32.5664 66.7972L39.7737 64.6406Z" fill="url(#paint24_linear_677_63276)"/>
<path d="M35.0487 69.9907C35.1844 69.9305 35.2346 69.7643 35.1532 69.6401C34.9058 69.2621 34.4421 68.4912 34.2942 67.8161C34.2942 67.8161 33.7391 67.4606 35.707 66.9896C37.6749 66.5186 40.6094 65.7875 41.2263 64.1125C41.8277 62.4794 40.2476 58.3724 37.7266 61.6448C37.6307 61.7693 37.4428 61.772 37.347 61.6474C36.9337 61.1095 35.8473 59.9931 34.3388 60.6699C32.9272 61.3033 32.7683 62.3377 32.7876 62.8591C32.7933 63.0124 32.6562 63.1317 32.5054 63.1029C31.7917 62.9668 30.079 62.8499 29.2797 64.6068C28.6212 66.054 29.0492 66.8732 29.4389 67.2738C29.5653 67.4036 29.5099 67.6174 29.3367 67.6704C28.8677 67.814 28.262 68.2117 28.3226 69.3106C28.4064 70.8299 30.105 70.696 30.5886 70.6268C30.6678 70.6154 30.7477 70.6426 30.8014 70.7019C31.216 71.1608 33.0843 73.1092 35.1063 73.3442C35.2814 73.3645 35.4171 73.1916 35.3598 73.0249L34.4847 70.4812C34.4441 70.3631 34.5006 70.2335 34.6148 70.1828L35.0487 69.9907Z" fill="url(#paint25_linear_677_63276)"/>
<path d="M35.4009 70.3504C35.4009 70.3504 33.2024 68.8421 33.0418 70.1123C32.8812 71.3825 35.0215 71.9522 36.0817 71.4786L35.4009 70.3504Z" fill="url(#paint26_linear_677_63276)"/>
<defs>
<linearGradient id="paint0_linear_677_63276" x1="189.152" y1="219.635" x2="39.5126" y2="33.7913" gradientUnits="userSpaceOnUse">
<stop stop-color="#DAE3FE"/>
<stop offset="1" stop-color="#E9EFFD"/>
</linearGradient>
<linearGradient id="paint1_linear_677_63276" x1="297.069" y1="-115.25" x2="-15.6464" y2="151.297" gradientUnits="userSpaceOnUse">
<stop stop-color="#E1473D"/>
<stop offset="1" stop-color="#E9605A"/>
</linearGradient>
<linearGradient id="paint2_linear_677_63276" x1="342.68" y1="-61.7401" x2="29.9641" y2="204.808" gradientUnits="userSpaceOnUse">
<stop stop-color="#E1473D"/>
<stop offset="1" stop-color="#E9605A"/>
</linearGradient>
<linearGradient id="paint3_linear_677_63276" x1="5.13519" y1="138.468" x2="276.606" y2="-149.009" gradientUnits="userSpaceOnUse">
<stop stop-color="#FF928E"/>
<stop offset="1" stop-color="#FE7062"/>
</linearGradient>
<linearGradient id="paint4_linear_677_63276" x1="115.528" y1="118.48" x2="53.9787" y2="186.492" gradientUnits="userSpaceOnUse">
<stop stop-color="#FF928E"/>
<stop offset="1" stop-color="#FE7062"/>
</linearGradient>
<linearGradient id="paint5_linear_677_63276" x1="117.193" y1="36.7467" x2="156.388" y2="36.7467" gradientUnits="userSpaceOnUse">
<stop stop-color="#DAE3FE"/>
<stop offset="1" stop-color="#E9EFFD"/>
</linearGradient>
<linearGradient id="paint6_linear_677_63276" x1="113.808" y1="46.3477" x2="153.003" y2="46.3477" gradientUnits="userSpaceOnUse">
<stop stop-color="#DAE3FE"/>
<stop offset="1" stop-color="#E9EFFD"/>
</linearGradient>
<linearGradient id="paint7_linear_677_63276" x1="113.808" y1="50.4526" x2="157.5" y2="50.4526" gradientUnits="userSpaceOnUse">
<stop stop-color="#DAE3FE"/>
<stop offset="1" stop-color="#E9EFFD"/>
</linearGradient>
<linearGradient id="paint8_linear_677_63276" x1="113.976" y1="42.0986" x2="135.353" y2="42.0986" gradientUnits="userSpaceOnUse">
<stop stop-color="#DAE3FE"/>
<stop offset="1" stop-color="#E9EFFD"/>
</linearGradient>
<linearGradient id="paint9_linear_677_63276" x1="137.851" y1="41.3645" x2="158.059" y2="41.3645" gradientUnits="userSpaceOnUse">
<stop stop-color="#DAE3FE"/>
<stop offset="1" stop-color="#E9EFFD"/>
</linearGradient>
<linearGradient id="paint10_linear_677_63276" x1="50.0778" y1="159.932" x2="12.4136" y2="200.901" gradientUnits="userSpaceOnUse">
<stop stop-color="#09005D"/>
<stop offset="1" stop-color="#1A0F91"/>
</linearGradient>
<linearGradient id="paint11_linear_677_63276" x1="37.8516" y1="162.976" x2="41.1971" y2="162.976" gradientUnits="userSpaceOnUse">
<stop stop-color="#FEBBBA"/>
<stop offset="1" stop-color="#FF928E"/>
</linearGradient>
<linearGradient id="paint12_linear_677_63276" x1="53.0429" y1="113.601" x2="20.9944" y2="157.039" gradientUnits="userSpaceOnUse">
<stop stop-color="#09005D"/>
<stop offset="1" stop-color="#1A0F91"/>
</linearGradient>
<linearGradient id="paint13_linear_677_63276" x1="41.6282" y1="152.165" x2="3.96412" y2="193.133" gradientUnits="userSpaceOnUse">
<stop stop-color="#09005D"/>
<stop offset="1" stop-color="#1A0F91"/>
</linearGradient>
<linearGradient id="paint14_linear_677_63276" x1="25.7949" y1="162.804" x2="28.6835" y2="162.804" gradientUnits="userSpaceOnUse">
<stop stop-color="#FEBBBA"/>
<stop offset="1" stop-color="#FF928E"/>
</linearGradient>
<linearGradient id="paint15_linear_677_63276" x1="47.3313" y1="109.387" x2="15.2828" y2="152.825" gradientUnits="userSpaceOnUse">
<stop stop-color="#09005D"/>
<stop offset="1" stop-color="#1A0F91"/>
</linearGradient>
<linearGradient id="paint16_linear_677_63276" x1="35.9984" y1="90.0612" x2="87.0915" y2="2.03301" gradientUnits="userSpaceOnUse">
<stop stop-color="#4F52FF"/>
<stop offset="1" stop-color="#4042E2"/>
</linearGradient>
<linearGradient id="paint17_linear_677_63276" x1="66.0742" y1="55.7823" x2="60.1715" y2="72.6472" gradientUnits="userSpaceOnUse">
<stop stop-color="#FEBBBA"/>
<stop offset="1" stop-color="#FF928E"/>
</linearGradient>
<linearGradient id="paint18_linear_677_63276" x1="71.1205" y1="57.5471" x2="65.2178" y2="74.412" gradientUnits="userSpaceOnUse">
<stop stop-color="#FEBBBA"/>
<stop offset="1" stop-color="#FF928E"/>
</linearGradient>
<linearGradient id="paint19_linear_677_63276" x1="66.5851" y1="68.3217" x2="71.0313" y2="59.3526" gradientUnits="userSpaceOnUse">
<stop stop-color="#FEBBBA"/>
<stop offset="1" stop-color="#FF928E"/>
</linearGradient>
<linearGradient id="paint20_linear_677_63276" x1="25.3718" y1="83.8916" x2="76.4649" y2="-4.1367" gradientUnits="userSpaceOnUse">
<stop stop-color="#4F52FF"/>
<stop offset="1" stop-color="#4042E2"/>
</linearGradient>
<linearGradient id="paint21_linear_677_63276" x1="14.2187" y1="99.9039" x2="35.8484" y2="99.9039" gradientUnits="userSpaceOnUse">
<stop stop-color="#FEBBBA"/>
<stop offset="1" stop-color="#FF928E"/>
</linearGradient>
<linearGradient id="paint22_linear_677_63276" x1="34.2432" y1="97.6351" x2="40.9817" y2="97.6351" gradientUnits="userSpaceOnUse">
<stop stop-color="#FEBBBA"/>
<stop offset="1" stop-color="#FF928E"/>
</linearGradient>
<linearGradient id="paint23_linear_677_63276" x1="30.8271" y1="76.782" x2="39.3788" y2="76.782" gradientUnits="userSpaceOnUse">
<stop stop-color="#FEBBBA"/>
<stop offset="1" stop-color="#FF928E"/>
</linearGradient>
<linearGradient id="paint24_linear_677_63276" x1="41.4129" y1="71.3425" x2="32.0103" y2="65.6076" gradientUnits="userSpaceOnUse">
<stop stop-color="#FEBBBA"/>
<stop offset="1" stop-color="#FF928E"/>
</linearGradient>
<linearGradient id="paint25_linear_677_63276" x1="27.0326" y1="59.5621" x2="39.1797" y2="69.1562" gradientUnits="userSpaceOnUse">
<stop stop-color="#09005D"/>
<stop offset="1" stop-color="#1A0F91"/>
</linearGradient>
<linearGradient id="paint26_linear_677_63276" x1="38.9431" y1="73.4795" x2="30.4835" y2="68.3197" gradientUnits="userSpaceOnUse">
<stop stop-color="#FEBBBA"/>
<stop offset="1" stop-color="#FF928E"/>
</linearGradient>
</defs>
</svg>
