<svg width="24" height="19" viewBox="0 0 24 19" fill="none" xmlns="http://www.w3.org/2000/svg">
<path d="M14.25 7.25L9.75 11.7497M14.25 11.75L9.75 7.2503" stroke="#E44747" stroke-width="1.5" stroke-linecap="round" stroke-linejoin="round"/>
<path d="M4.875 9.5C4.875 6.14124 4.875 4.46186 5.91843 3.41843C6.96186 2.375 8.64124 2.375 12 2.375C15.3588 2.375 17.0381 2.375 18.0816 3.41843C19.125 4.46186 19.125 6.14124 19.125 9.5C19.125 12.8588 19.125 14.5381 18.0816 15.5816C17.0381 16.625 15.3588 16.625 12 16.625C8.64124 16.625 6.96186 16.625 5.91843 15.5816C4.875 14.5381 4.875 12.8588 4.875 9.5Z" stroke="#E44747" stroke-width="1.5"/>
</svg>
