<svg width="168" height="168" viewBox="0 0 168 168" fill="none" xmlns="http://www.w3.org/2000/svg">
<path d="M166.711 167.425H128.414C128.202 167.425 128.03 167.251 128.03 167.036V57.7489C128.03 57.6236 128.09 57.5046 128.191 57.4322C128.292 57.3583 128.42 57.3396 128.538 57.3809L166.836 70.7713C166.991 70.8249 167.095 70.9728 167.095 71.1393V167.036C167.095 167.251 166.924 167.425 166.711 167.425ZM128.798 166.647H166.329V71.417L128.798 58.2951V166.647Z" fill="#1458A2"/>
<path d="M55.6229 167.431H22.0663C21.8548 167.431 21.6831 167.257 21.6831 167.042V81.3754C21.6831 81.1606 21.8548 80.9863 22.0663 80.9863H60.3636C60.5751 80.9863 60.7468 81.1606 60.7468 81.3754V162.405C60.7468 162.619 60.5751 162.794 60.3636 162.794C60.152 162.794 59.9803 162.619 59.9803 162.405V81.7644H22.4496V166.654H55.6229C55.8344 166.654 56.0061 166.828 56.0061 167.043C56.0061 167.257 55.8344 167.431 55.6229 167.431Z" fill="#1458A2"/>
<path d="M28.5732 167.43C28.3616 167.43 28.1899 167.255 28.1899 167.041V92.9398C28.1899 92.7251 28.3616 92.5508 28.5732 92.5508C28.7847 92.5508 28.9564 92.7251 28.9564 92.9398V167.041C28.9564 167.255 28.7847 167.43 28.5732 167.43Z" fill="#1458A2"/>
<path d="M36.9995 167.43C36.7879 167.43 36.6162 167.255 36.6162 167.041V92.9398C36.6162 92.7251 36.7879 92.5508 36.9995 92.5508C37.211 92.5508 37.3827 92.7251 37.3827 92.9398V167.041C37.3827 167.255 37.211 167.43 36.9995 167.43Z" fill="#1458A2"/>
<path d="M45.4287 167.43C45.2171 167.43 45.0454 167.255 45.0454 167.041V92.9398C45.0454 92.7251 45.2171 92.5508 45.4287 92.5508C45.6402 92.5508 45.8119 92.7251 45.8119 92.9398V167.041C45.8119 167.255 45.6402 167.43 45.4287 167.43Z" fill="#1458A2"/>
<path d="M53.8559 167.43C53.6443 167.43 53.4727 167.255 53.4727 167.041V92.9398C53.4727 92.7251 53.6443 92.5508 53.8559 92.5508C54.0674 92.5508 54.2391 92.7251 54.2391 92.9398V167.041C54.2391 167.255 54.0682 167.43 53.8559 167.43Z" fill="#1458A2"/>
<path d="M60.3628 86.5984H22.0663C21.8548 86.5984 21.6831 86.4241 21.6831 86.2093C21.6831 85.9946 21.8548 85.8203 22.0663 85.8203H60.3636C60.5751 85.8203 60.7468 85.9946 60.7468 86.2093C60.746 86.4249 60.5751 86.5984 60.3628 86.5984Z" fill="#1458A2"/>
<path d="M49.3911 167.432C49.1795 167.432 49.0078 167.258 49.0078 167.043V129.993C49.0078 129.778 49.1795 129.604 49.3911 129.604C49.6026 129.604 49.7743 129.778 49.7743 129.993V167.043C49.7743 167.258 49.6026 167.432 49.3911 167.432Z" fill="#1458A2"/>
<path d="M32.7412 167.432C32.5296 167.432 32.3579 167.258 32.3579 167.043V129.993C32.3579 129.778 32.5296 129.604 32.7412 129.604C32.9527 129.604 33.1244 129.778 33.1244 129.993V167.043C33.1244 167.258 32.9535 167.432 32.7412 167.432Z" fill="#1458A2"/>
<path d="M32.7412 109.844C32.5296 109.844 32.3579 109.67 32.3579 109.455V86.6019C32.3579 86.3872 32.5296 86.2129 32.7412 86.2129C32.9527 86.2129 33.1244 86.3872 33.1244 86.6019V109.455C33.1244 109.671 32.9535 109.844 32.7412 109.844Z" fill="#1458A2"/>
<path d="M49.3911 109.844C49.1795 109.844 49.0078 109.67 49.0078 109.455V86.6019C49.0078 86.3872 49.1795 86.2129 49.3911 86.2129C49.6026 86.2129 49.7743 86.3872 49.7743 86.6019V109.455C49.7743 109.671 49.6026 109.844 49.3911 109.844Z" fill="#1458A2"/>
<path d="M122.794 167.425H86.0298C85.8183 167.425 85.6466 167.251 85.6466 167.036C85.6466 166.821 85.8183 166.647 86.0298 166.647H122.411V25.2195H66.4232V162.445C66.4232 162.66 66.2515 162.834 66.04 162.834C65.8284 162.834 65.6567 162.66 65.6567 162.445V24.8304C65.6567 24.6157 65.8284 24.4414 66.04 24.4414H122.794C123.006 24.4414 123.177 24.6157 123.177 24.8304V167.036C123.177 167.251 123.006 167.425 122.794 167.425Z" fill="#1458A2"/>
<path d="M109.839 25.2195H78.9941C78.7825 25.2195 78.6108 25.0452 78.6108 24.8305V9.16581C78.6108 4.35897 82.4624 0.449219 87.1977 0.449219H101.635C106.37 0.449219 110.222 4.35897 110.222 9.16581V24.8305C110.222 25.0452 110.051 25.2195 109.839 25.2195ZM79.3773 24.4414H109.456V9.16581C109.456 4.78845 105.947 1.22728 101.635 1.22728H87.1977C82.8855 1.22728 79.3773 4.78845 79.3773 9.16581V24.4414Z" fill="#1458A2"/>
<path d="M101.836 11.8197H86.9965C86.785 11.8197 86.6133 11.6454 86.6133 11.4307V9.32681C86.6133 6.73432 88.6912 4.625 91.2451 4.625H97.5885C100.142 4.625 102.22 6.73432 102.22 9.32681V11.4307C102.22 11.6454 102.048 11.8197 101.836 11.8197ZM87.3798 11.0416H101.453V9.32681C101.453 7.16381 99.7193 5.40306 97.5885 5.40306H91.2451C89.1143 5.40306 87.3798 7.16381 87.3798 9.32681V11.0416Z" fill="#1458A2"/>
<path d="M100.132 167.43H88.704C88.4925 167.43 88.3208 167.256 88.3208 167.041V159.58C88.3208 156.416 90.8556 153.844 93.9713 153.844H94.865C97.9815 153.844 100.516 156.417 100.516 159.58V167.041C100.516 167.256 100.345 167.43 100.132 167.43ZM89.0873 166.652H99.749V159.58C99.749 156.846 97.5584 154.622 94.865 154.622H93.9713C91.2779 154.622 89.0873 156.846 89.0873 159.58V166.652Z" fill="#1458A2"/>
<path d="M88.6236 21.226H83.2651C83.0535 21.226 82.8818 21.0517 82.8818 20.837V15.9554C82.8818 15.7407 83.0535 15.5664 83.2651 15.5664H88.6236C88.8351 15.5664 89.0068 15.7407 89.0068 15.9554V20.837C89.0068 21.0517 88.8351 21.226 88.6236 21.226ZM83.6476 20.4479H88.2395V16.3445H83.6476V20.4479Z" fill="#1458A2"/>
<path d="M97.1074 21.226H91.749C91.5374 21.226 91.3657 21.0517 91.3657 20.837V15.9554C91.3657 15.7407 91.5374 15.5664 91.749 15.5664H97.1074C97.319 15.5664 97.4907 15.7407 97.4907 15.9554V20.837C97.4907 21.0517 97.319 21.226 97.1074 21.226ZM92.1322 20.4479H96.7242V16.3445H92.1322V20.4479Z" fill="#1458A2"/>
<path d="M105.593 21.226H100.234C100.023 21.226 99.8511 21.0517 99.8511 20.837V15.9554C99.8511 15.7407 100.023 15.5664 100.234 15.5664H105.593C105.804 15.5664 105.976 15.7407 105.976 15.9554V20.837C105.976 21.0517 105.805 21.226 105.593 21.226ZM100.618 20.4479H105.21V16.3445H100.618V20.4479Z" fill="#1458A2"/>
<path d="M74.4472 163.06C74.2357 163.06 74.064 162.886 74.064 162.671V24.8304C74.064 24.6157 74.2357 24.4414 74.4472 24.4414C74.6588 24.4414 74.8304 24.6157 74.8304 24.8304V162.671C74.8304 162.886 74.6588 163.06 74.4472 163.06Z" fill="#1458A2"/>
<path d="M84.4316 167.265C84.22 167.265 84.0483 167.091 84.0483 166.876V24.8304C84.0483 24.6157 84.22 24.4414 84.4316 24.4414C84.6431 24.4414 84.8148 24.6157 84.8148 24.8304V166.876C84.8148 167.091 84.6431 167.265 84.4316 167.265Z" fill="#1458A2"/>
<path d="M94.4164 142.388C94.2049 142.388 94.0332 142.214 94.0332 141.999V24.8304C94.0332 24.6157 94.2049 24.4414 94.4164 24.4414C94.628 24.4414 94.7997 24.6157 94.7997 24.8304V142C94.7997 142.215 94.6288 142.388 94.4164 142.388Z" fill="#1458A2"/>
<path d="M104.403 167.425C104.191 167.425 104.02 167.251 104.02 167.036V24.8304C104.02 24.6157 104.191 24.4414 104.403 24.4414C104.614 24.4414 104.786 24.6157 104.786 24.8304V167.036C104.786 167.251 104.614 167.425 104.403 167.425Z" fill="#1458A2"/>
<path d="M114.388 167.425C114.176 167.425 114.004 167.251 114.004 167.036V24.8304C114.004 24.6157 114.176 24.4414 114.388 24.4414C114.599 24.4414 114.771 24.6157 114.771 24.8304V167.036C114.771 167.251 114.599 167.425 114.388 167.425Z" fill="#1458A2"/>
<path d="M114.388 34.987H74.4472C74.2357 34.987 74.064 34.8128 74.064 34.598C74.064 34.3833 74.2357 34.209 74.4472 34.209H114.388C114.599 34.209 114.771 34.3833 114.771 34.598C114.771 34.8135 114.599 34.987 114.388 34.987Z" fill="#1458A2"/>
<path d="M114.388 44.7468H74.4472C74.2357 44.7468 74.064 44.5725 74.064 44.3578C74.064 44.143 74.2357 43.9688 74.4472 43.9688H114.388C114.599 43.9688 114.771 44.143 114.771 44.3578C114.771 44.5733 114.599 44.7468 114.388 44.7468Z" fill="#1458A2"/>
<path d="M114.388 54.5105H74.4472C74.2357 54.5105 74.064 54.3362 74.064 54.1215C74.064 53.9067 74.2357 53.7324 74.4472 53.7324H114.388C114.599 53.7324 114.771 53.9067 114.771 54.1215C114.771 54.3362 114.599 54.5105 114.388 54.5105Z" fill="#1458A2"/>
<path d="M114.388 64.2781H74.4472C74.2357 64.2781 74.064 64.1038 74.064 63.889C74.064 63.6743 74.2357 63.5 74.4472 63.5H114.388C114.599 63.5 114.771 63.6743 114.771 63.889C114.771 64.1038 114.599 64.2781 114.388 64.2781Z" fill="#1458A2"/>
<path d="M114.388 74.0417H74.4472C74.2357 74.0417 74.064 73.8674 74.064 73.6527C74.064 73.438 74.2357 73.2637 74.4472 73.2637H114.388C114.599 73.2637 114.771 73.438 114.771 73.6527C114.771 73.8674 114.599 74.0417 114.388 74.0417Z" fill="#1458A2"/>
<path d="M114.388 83.8015H74.4472C74.2357 83.8015 74.064 83.6272 74.064 83.4125C74.064 83.1977 74.2357 83.0234 74.4472 83.0234H114.388C114.599 83.0234 114.771 83.1977 114.771 83.4125C114.771 83.6272 114.599 83.8015 114.388 83.8015Z" fill="#1458A2"/>
<path d="M114.388 93.5691H74.4472C74.2357 93.5691 74.064 93.3948 74.064 93.18C74.064 92.9653 74.2357 92.791 74.4472 92.791H114.388C114.599 92.791 114.771 92.9653 114.771 93.18C114.771 93.3948 114.599 93.5691 114.388 93.5691Z" fill="#1458A2"/>
<path d="M114.388 103.335H74.4472C74.2357 103.335 74.064 103.16 74.064 102.946C74.064 102.731 74.2357 102.557 74.4472 102.557H114.388C114.599 102.557 114.771 102.731 114.771 102.946C114.771 103.16 114.599 103.335 114.388 103.335Z" fill="#1458A2"/>
<path d="M114.388 113.096H74.4472C74.2357 113.096 74.064 112.922 74.064 112.707C74.064 112.493 74.2357 112.318 74.4472 112.318H114.388C114.599 112.318 114.771 112.493 114.771 112.707C114.771 112.922 114.599 113.096 114.388 113.096Z" fill="#1458A2"/>
<path d="M114.388 122.86H74.4472C74.2357 122.86 74.064 122.686 74.064 122.471C74.064 122.256 74.2357 122.082 74.4472 122.082H114.388C114.599 122.082 114.771 122.256 114.771 122.471C114.771 122.686 114.599 122.86 114.388 122.86Z" fill="#1458A2"/>
<path d="M114.388 132.626H74.4472C74.2357 132.626 74.064 132.451 74.064 132.237C74.064 132.022 74.2357 131.848 74.4472 131.848H114.388C114.599 131.848 114.771 132.022 114.771 132.237C114.771 132.451 114.599 132.626 114.388 132.626Z" fill="#1458A2"/>
<path d="M114.388 142.391H74.4472C74.2357 142.391 74.064 142.217 74.064 142.002C74.064 141.788 74.2357 141.613 74.4472 141.613H114.388C114.599 141.613 114.771 141.788 114.771 142.002C114.771 142.218 114.599 142.391 114.388 142.391Z" fill="#1458A2"/>
<path d="M94.4164 167.428C94.2049 167.428 94.0332 167.254 94.0332 167.039V159.95C94.0332 159.735 94.2049 159.561 94.4164 159.561C94.628 159.561 94.7997 159.735 94.7997 159.95V167.039C94.7997 167.254 94.6288 167.428 94.4164 167.428Z" fill="#1458A2"/>
<path d="M136.145 167.423C135.933 167.423 135.762 167.249 135.762 167.034V122.469C135.762 122.254 135.933 122.08 136.145 122.08H144.503C144.715 122.08 144.887 122.254 144.887 122.469V154.759C144.887 154.974 144.715 155.148 144.503 155.148C144.292 155.148 144.12 154.974 144.12 154.759V122.858H136.528V167.034C136.528 167.249 136.357 167.423 136.145 167.423Z" fill="#1458A2"/>
<path d="M158.98 167.423C158.769 167.423 158.597 167.249 158.597 167.034V122.858H151.005V154.759C151.005 154.974 150.834 155.148 150.622 155.148C150.41 155.148 150.239 154.974 150.239 154.759V122.469C150.239 122.254 150.41 122.08 150.622 122.08H158.98C159.192 122.08 159.364 122.254 159.364 122.469V167.034C159.364 167.249 159.192 167.423 158.98 167.423Z" fill="#1458A2"/>
<path d="M158.98 159.308H136.145C135.933 159.308 135.762 159.134 135.762 158.919V154.967C135.762 154.752 135.933 154.578 136.145 154.578H158.98C159.192 154.578 159.363 154.752 159.363 154.967V158.919C159.363 159.134 159.192 159.308 158.98 159.308ZM136.528 158.53H158.597V155.356H136.528V158.53Z" fill="#1458A2"/>
<path d="M147.564 167.427C147.353 167.427 147.181 167.252 147.181 167.038V161.948C147.181 161.733 147.353 161.559 147.564 161.559C147.776 161.559 147.948 161.733 147.948 161.948V167.038C147.948 167.252 147.776 167.427 147.564 167.427Z" fill="#1458A2"/>
<path d="M166.934 167.624H84.6112C84.4851 167.624 84.3828 167.449 84.3828 167.235C84.3828 167.02 84.4851 166.846 84.6112 166.846H166.934C167.06 166.846 167.163 167.02 167.163 167.235C167.163 167.449 167.061 167.624 166.934 167.624Z" fill="#1458A2"/>
<path d="M83.9625 167.624H1.25678C1.02474 167.624 0.836426 167.449 0.836426 167.235C0.836426 167.02 1.02474 166.846 1.25678 166.846H83.9625C84.1945 166.846 84.3829 167.02 84.3829 167.235C84.3829 167.449 84.1954 167.624 83.9625 167.624Z" fill="#1458A2"/>
<path d="M11.1432 155.295H9.89383C7.11841 155.295 4.86035 153.003 4.86035 150.186V134.25C4.86035 131.433 7.11841 129.141 9.89383 129.141H11.1432C13.9186 129.141 16.1767 131.433 16.1767 134.25V150.186C16.1767 153.003 13.9186 155.295 11.1432 155.295ZM9.89383 129.918C7.54074 129.918 5.62683 131.861 5.62683 134.249V150.185C5.62683 152.573 7.54074 154.516 9.89383 154.516H11.1432C13.4963 154.516 15.4102 152.573 15.4102 150.185V134.249C15.4102 131.861 13.4963 129.918 11.1432 129.918H9.89383Z" fill="#1458A2"/>
<path d="M10.518 167.421C10.3065 167.421 10.1348 167.247 10.1348 167.032V154.907C10.1348 154.692 10.3065 154.518 10.518 154.518C10.7296 154.518 10.9012 154.692 10.9012 154.907V167.032C10.9012 167.247 10.7303 167.421 10.518 167.421Z" fill="#1458A2"/>
<path d="M14.3246 167.421C14.1131 167.421 13.9414 167.247 13.9414 167.032V163.993C13.9414 163.778 14.1131 163.604 14.3246 163.604C14.5362 163.604 14.7079 163.778 14.7079 163.993V167.032C14.7079 167.247 14.5362 167.421 14.3246 167.421Z" fill="#1458A2"/>
<path d="M14.325 164.385C13.0818 164.385 12.0708 163.359 12.0708 162.097V159.911C12.0708 158.649 13.0818 157.623 14.325 157.623C15.5683 157.623 16.58 158.649 16.58 159.911V162.097C16.58 163.359 15.5683 164.385 14.325 164.385ZM14.325 158.4C13.5049 158.4 12.8373 159.078 12.8373 159.911V162.096C12.8373 162.929 13.5049 163.606 14.325 163.606C15.1459 163.606 15.8135 162.929 15.8135 162.096V159.911C15.8135 159.079 15.1459 158.4 14.325 158.4Z" fill="#1458A2"/>
<path d="M10.5185 156.214C10.3069 156.214 10.1353 156.039 10.1353 155.825V137.395C10.1353 137.18 10.3069 137.006 10.5185 137.006C10.73 137.006 10.9017 137.18 10.9017 137.395V155.825C10.9017 156.039 10.7308 156.214 10.5185 156.214Z" fill="#1458A2"/>
<path d="M10.5724 146.315C10.472 146.315 10.3723 146.275 10.2972 146.196C10.1508 146.042 10.1546 145.796 10.3064 145.646L14.0698 141.941C14.2216 141.793 14.4646 141.796 14.6117 141.951C14.7581 142.105 14.7551 142.351 14.6025 142.501L10.8391 146.206C10.764 146.278 10.6682 146.315 10.5724 146.315Z" fill="#1458A2"/>
<path d="M10.519 140.926C10.4232 140.926 10.3266 140.89 10.2522 140.817L6.48805 137.112C6.33628 136.962 6.33245 136.716 6.47885 136.562C6.62678 136.408 6.86975 136.404 7.02075 136.552L10.7849 140.257C10.9367 140.407 10.9405 140.653 10.7941 140.807C10.719 140.888 10.6194 140.926 10.519 140.926Z" fill="#1458A2"/>
<path d="M145.765 76.7503H134.886C134.674 76.7503 134.502 76.576 134.502 76.3613V71.307C134.502 71.0923 134.674 70.918 134.886 70.918H145.765C145.977 70.918 146.148 71.0923 146.148 71.307V76.3613C146.148 76.576 145.977 76.7503 145.765 76.7503ZM135.269 75.9722H145.382V71.696H135.269V75.9722Z" fill="#1458A2"/>
<path d="M145.765 86.1233H134.886C134.674 86.1233 134.502 85.9491 134.502 85.7343V80.68C134.502 80.4653 134.674 80.291 134.886 80.291H145.765C145.977 80.291 146.148 80.4653 146.148 80.68V85.7343C146.148 85.9491 145.977 86.1233 145.765 86.1233ZM135.269 85.3453H145.382V81.0691H135.269V85.3453Z" fill="#1458A2"/>
<path d="M160.241 86.1233H149.362C149.15 86.1233 148.979 85.9491 148.979 85.7343V80.68C148.979 80.4653 149.15 80.291 149.362 80.291H160.241C160.453 80.291 160.624 80.4653 160.624 80.68V85.7343C160.624 85.9491 160.453 86.1233 160.241 86.1233ZM149.745 85.3453H159.858V81.0691H149.745V85.3453Z" fill="#1458A2"/>
<path d="M145.765 95.7718H134.886C134.674 95.7718 134.502 95.5975 134.502 95.3828V90.3285C134.502 90.1137 134.674 89.9395 134.886 89.9395H145.765C145.977 89.9395 146.148 90.1137 146.148 90.3285V95.3828C146.148 95.5983 145.977 95.7718 145.765 95.7718ZM135.269 94.9937H145.382V90.7175H135.269V94.9937Z" fill="#1458A2"/>
<path d="M160.241 95.7718H149.362C149.15 95.7718 148.979 95.5975 148.979 95.3828V90.3285C148.979 90.1137 149.15 89.9395 149.362 89.9395H160.241C160.453 89.9395 160.624 90.1137 160.624 90.3285V95.3828C160.624 95.5983 160.453 95.7718 160.241 95.7718ZM149.745 94.9937H159.858V90.7175H149.745V94.9937Z" fill="#1458A2"/>
<path d="M145.765 105.421H134.886C134.674 105.421 134.502 105.247 134.502 105.032V99.9789C134.502 99.7641 134.674 99.5898 134.886 99.5898H145.765C145.977 99.5898 146.148 99.7641 146.148 99.9789V105.032C146.148 105.247 145.977 105.421 145.765 105.421ZM135.269 104.643H145.382V100.368H135.269V104.643Z" fill="#1458A2"/>
<path d="M160.241 105.421H149.362C149.15 105.421 148.979 105.247 148.979 105.032V99.9789C148.979 99.7641 149.15 99.5898 149.362 99.5898H160.241C160.453 99.5898 160.624 99.7641 160.624 99.9789V105.032C160.624 105.247 160.453 105.421 160.241 105.421ZM149.745 104.643H159.858V100.368H149.745V104.643Z" fill="#1458A2"/>
<path d="M145.765 115.069H134.886C134.674 115.069 134.502 114.894 134.502 114.68V109.625C134.502 109.411 134.674 109.236 134.886 109.236H145.765C145.977 109.236 146.148 109.411 146.148 109.625V114.68C146.148 114.894 145.977 115.069 145.765 115.069ZM135.269 114.291H145.382V110.014H135.269V114.291Z" fill="#1458A2"/>
<path d="M160.241 115.069H149.362C149.15 115.069 148.979 114.894 148.979 114.68V109.625C148.979 109.411 149.15 109.236 149.362 109.236H160.241C160.453 109.236 160.624 109.411 160.624 109.625V114.68C160.624 114.894 160.453 115.069 160.241 115.069ZM149.745 114.291H159.858V110.014H149.745V114.291Z" fill="#1458A2"/>
</svg>
