<svg width="22" height="22" viewBox="0 0 22 22" fill="none" xmlns="http://www.w3.org/2000/svg">
<path d="M20.1663 6.25C20.5806 6.25 20.9163 5.91421 20.9163 5.49999C20.9163 5.08578 20.5806 4.74999 20.1663 4.74999V6.25ZM12.833 4.74999C12.4188 4.74999 12.083 5.08578 12.083 5.49999C12.083 5.91421 12.4188 6.25 12.833 6.25V4.74999ZM17.2497 1.83333C17.2497 1.41911 16.9139 1.08333 16.4997 1.08333C16.0855 1.08333 15.7497 1.41911 15.7497 1.83333H17.2497ZM15.7497 9.16666C15.7497 9.58088 16.0855 9.91666 16.4997 9.91666C16.9139 9.91666 17.2497 9.58088 17.2497 9.16666H15.7497ZM20.1663 4.74999H16.4997V6.25H20.1663V4.74999ZM16.4997 4.74999H12.833V6.25H16.4997V4.74999ZM15.7497 1.83333V5.49999H17.2497V1.83333H15.7497ZM15.7497 5.49999V9.16666H17.2497V5.49999H15.7497Z" fill="white"/>
<path d="M10.5413 2.75C6.43619 2.75 4.38362 2.75 3.10831 4.02531C1.83301 5.30061 1.83301 7.35319 1.83301 11.4583C1.83301 15.5635 1.83301 17.6161 3.10831 18.8914C4.38362 20.1667 6.43619 20.1667 10.5413 20.1667C14.6465 20.1667 16.6991 20.1667 17.9744 18.8914C19.2497 17.6161 19.2497 15.5635 19.2497 11.4583V11" stroke="white" stroke-width="1.5" stroke-linecap="round"/>
<path d="M1.83301 12.9575C2.40044 12.8751 2.97411 12.8343 3.54875 12.8358C5.97969 12.7844 8.35109 13.5419 10.2398 14.973C11.9915 16.3003 13.2223 18.127 13.7497 20.1667" stroke="white" stroke-width="1.5" stroke-linejoin="round"/>
<path d="M19.25 15.4882C18.1725 14.9424 17.058 14.6656 15.9374 14.6667C14.24 14.66 12.5597 15.2839 11 16.5" stroke="white" stroke-width="1.5" stroke-linejoin="round"/>
</svg>
