<svg width="349" height="349" viewBox="0 0 349 349" fill="none" xmlns="http://www.w3.org/2000/svg">
<path d="M178.917 124.043L211.357 140.887" stroke="#64A2E7" stroke-width="0.377923" stroke-miterlimit="10" stroke-linecap="round"/>
<path d="M310.022 51.4182V115.548" stroke="#64A2E7" stroke-width="0.377923" stroke-miterlimit="10" stroke-linecap="round"/>
<path d="M277.129 68.4998L310.022 51.4182" stroke="#64A2E7" stroke-width="0.377923" stroke-miterlimit="10" stroke-linecap="round"/>
<path d="M310.022 51.4182L363.305 79.0768" stroke="#64A2E7" stroke-width="0.377923" stroke-miterlimit="10" stroke-linecap="round"/>
<path d="M277.129 68.4995V112.719" stroke="#64A2E7" stroke-width="0.377923" stroke-miterlimit="10" stroke-linecap="round"/>
<path d="M222.262 0.207031L260.627 20.1167" stroke="#64A2E7" stroke-width="0.377923" stroke-miterlimit="10" stroke-linecap="round"/>
<path d="M151.999 36.6893L222.262 0.207031" stroke="#64A2E7" stroke-width="0.377923" stroke-miterlimit="10" stroke-linecap="round"/>
<path d="M222.262 0.207031V379" stroke="#64A2E7" stroke-width="0.377923" stroke-miterlimit="10" stroke-linecap="round"/>
<path d="M260.626 20.1167V121.283" stroke="#64A2E7" stroke-width="0.377923" stroke-miterlimit="10" stroke-linecap="round"/>
<path d="M30.3521 124.891L-7.99976 144.812" stroke="#64A2E7" stroke-width="0.377923" stroke-miterlimit="10" stroke-linecap="round"/>
<path d="M90.7917 156.283L30.3521 124.891" stroke="#64A2E7" stroke-width="0.377923" stroke-miterlimit="10" stroke-linecap="round"/>
<path d="M30.3521 124.891V379" stroke="#64A2E7" stroke-width="0.377923" stroke-miterlimit="10" stroke-linecap="round"/>
<path d="M290.84 105.593L337.217 129.665" stroke="#64A2E7" stroke-width="0.377923" stroke-miterlimit="10" stroke-linecap="round"/>
<path d="M234.891 134.643L290.84 105.593" stroke="#64A2E7" stroke-width="0.377923" stroke-miterlimit="10" stroke-linecap="round"/>
<path d="M290.84 105.593V379" stroke="#64A2E7" stroke-width="0.377923" stroke-miterlimit="10" stroke-linecap="round"/>
<path d="M234.891 134.643V379" stroke="#64A2E7" stroke-width="0.377923" stroke-miterlimit="10" stroke-linecap="round"/>
<path d="M337.217 129.665V379" stroke="#64A2E7" stroke-width="0.377923" stroke-miterlimit="10" stroke-linecap="round"/>
<path d="M161.822 106.984L114.477 82.3911" stroke="#64A2E7" stroke-width="0.377923" stroke-miterlimit="10" stroke-linecap="round"/>
<path d="M114.477 82.3911L90.7915 94.6876" stroke="#64A2E7" stroke-width="0.377923" stroke-miterlimit="10" stroke-linecap="round"/>
<path d="M114.477 82.3911V379" stroke="#64A2E7" stroke-width="0.377923" stroke-miterlimit="10" stroke-linecap="round"/>
<path d="M90.7915 94.6873V379" stroke="#64A2E7" stroke-width="0.377923" stroke-miterlimit="10" stroke-linecap="round"/>
<path d="M16.6663 76.8932L41.9365 63.7822" stroke="#64A2E7" stroke-width="0.377923" stroke-miterlimit="10" stroke-linecap="round"/>
<path d="M41.9368 63.7822L67.207 76.8932" stroke="#64A2E7" stroke-width="0.377923" stroke-miterlimit="10" stroke-linecap="round"/>
<path d="M16.6663 76.8931V132.007" stroke="#64A2E7" stroke-width="0.377923" stroke-miterlimit="10" stroke-linecap="round"/>
<path d="M67.2068 76.8931V144.032" stroke="#64A2E7" stroke-width="0.377923" stroke-miterlimit="10" stroke-linecap="round"/>
<path d="M151.999 36.689V101.882" stroke="#64A2E7" stroke-width="0.377923" stroke-miterlimit="10" stroke-linecap="round"/>
<path d="M41.9368 63.7822V130.91" stroke="#64A2E7" stroke-width="0.377923" stroke-miterlimit="10" stroke-linecap="round"/>
<path d="M161.823 106.984V132.912" stroke="#64A2E7" stroke-width="0.377923" stroke-miterlimit="10" stroke-linecap="round"/>
<path d="M146.464 140.887L178.917 124.043" stroke="#64A2E7" stroke-width="0.377923" stroke-miterlimit="10" stroke-linecap="round"/>
<path d="M146.464 140.887V379" stroke="#64A2E7" stroke-width="0.377923" stroke-miterlimit="10" stroke-linecap="round"/>
<path d="M211.357 140.887V379" stroke="#64A2E7" stroke-width="0.377923" stroke-miterlimit="10" stroke-linecap="round"/>
<path d="M178.917 124.043V379" stroke="#64A2E7" stroke-width="0.377923" stroke-miterlimit="10" stroke-linecap="round"/>
</svg>
