<svg width="23" height="18" viewBox="0 0 23 18" fill="none" xmlns="http://www.w3.org/2000/svg">
<path d="M22.192 8.63675L13.021 0.496051C12.89 0.365942 12.6948 0.328357 12.5216 0.397084C12.3502 0.468561 12.2393 0.635352 12.2393 0.820443V7.86041H0.784855C0.531939 7.86046 0.32666 8.06569 0.32666 8.31861V9.64951C0.32666 9.90242 0.531939 10.1077 0.784855 10.1077H12.2394V17.1284C12.2394 17.3135 12.3512 17.4803 12.5225 17.5518C12.5794 17.5756 12.6389 17.5866 12.6976 17.5866C12.8167 17.5866 12.934 17.5399 13.022 17.4528L22.1929 9.28553C22.279 9.19941 22.3267 9.083 22.3267 8.96114C22.3267 8.83928 22.2781 8.72292 22.192 8.63675Z" fill="white"/>
</svg>
