<svg width="16" height="17" viewBox="0 0 16 17" fill="none" xmlns="http://www.w3.org/2000/svg">
<path d="M13.625 3.62509L13.1602 11.1439C13.0415 13.0649 12.9821 14.0254 12.5006 14.716C12.2625 15.0574 11.956 15.3456 11.6005 15.5621C10.8816 16.0001 9.91924 16.0001 7.99456 16.0001C6.06734 16.0001 5.10373 16.0001 4.38429 15.5613C4.0286 15.3443 3.722 15.0557 3.48401 14.7137C3.00266 14.022 2.94459 13.0602 2.82846 11.1365L2.375 3.62509" stroke="#898989" stroke-width="1.5" stroke-linecap="round"/>
<path d="M5.75 8.30124H10.25" stroke="#898989" stroke-width="1.5" stroke-linecap="round"/>
<path d="M6.875 11.2408H9.125" stroke="#898989" stroke-width="1.5" stroke-linecap="round"/>
<path d="M1.25 3.62509H14.75M11.0417 3.62509L10.5296 2.56889C10.1895 1.86728 10.0195 1.51648 9.72614 1.2977C9.66108 1.24917 9.59218 1.206 9.52013 1.16862C9.19529 1.00009 8.80545 1.00009 8.02575 1.00009C7.22648 1.00009 6.82684 1.00009 6.49662 1.17568C6.42343 1.2146 6.3536 1.25951 6.28783 1.30997C5.99109 1.53762 5.82533 1.90126 5.49381 2.62853L5.03955 3.62509" stroke="#898989" stroke-width="1.5" stroke-linecap="round"/>
</svg>
