<svg width="25" height="19" viewBox="0 0 25 19" fill="none" xmlns="http://www.w3.org/2000/svg">
<g clip-path="url(#clip0_677_61542)">
<path d="M19.3723 8.78374C19.6003 9.10348 19.7144 9.26335 19.7144 9.5C19.7144 9.73665 19.6003 9.89652 19.3723 10.2163C18.3478 11.6529 15.7313 14.75 12.2144 14.75C8.69744 14.75 6.08093 11.6529 5.05639 10.2163C4.82837 9.89652 4.71436 9.73665 4.71436 9.5C4.71436 9.26335 4.82837 9.10348 5.05639 8.78374C6.08093 7.34708 8.69744 4.25 12.2144 4.25C15.7313 4.25 18.3478 7.34708 19.3723 8.78374Z" stroke="#898989" stroke-width="1.5"/>
<path d="M14.4644 9.5C14.4644 8.25736 13.457 7.25 12.2144 7.25C10.9717 7.25 9.96436 8.25736 9.96436 9.5C9.96436 10.7426 10.9717 11.75 12.2144 11.75C13.457 11.75 14.4644 10.7426 14.4644 9.5Z" stroke="#898989" stroke-width="1.5"/>
</g>
<defs>
<clipPath id="clip0_677_61542">
<rect width="18" height="18" fill="white" transform="translate(3.21436 0.5)"/>
</clipPath>
</defs>
</svg>
