<svg width="20" height="20" viewBox="0 0 20 20" fill="none" xmlns="http://www.w3.org/2000/svg">
<g clip-path="url(#clip0_3_2)">
<path d="M15 10C15 7.23858 12.7614 5 10 5C7.23858 5 5 7.23858 5 10C5 12.7614 7.23858 15 10 15C12.7614 15 15 12.7614 15 10Z" fill="#2892CE"/>
<path d="M13.4388 1.68288C11.233 0.770846 8.75518 0.772435 6.55052 1.6873" stroke="#2892CE"/>
<path d="M1.68494 6.55619C0.771589 8.76148 0.771689 11.2393 1.68522 13.4445" stroke="#2892CE"/>
<path d="M6.56726 18.3196C8.77377 19.2301 11.2516 19.2267 13.4556 18.3102" stroke="#2892CE"/>
<path d="M18.3146 13.445C19.2282 11.2399 19.2285 8.76208 18.3153 6.55673" stroke="#2892CE"/>
</g>
<defs>
<clipPath id="clip0_3_2">
<rect width="20" height="20" fill="white"/>
</clipPath>
</defs>
</svg>
