<svg width="18" height="17" viewBox="0 0 18 17" fill="none" xmlns="http://www.w3.org/2000/svg">
<path d="M10.5553 2.41418C11.1142 1.80865 11.3936 1.50589 11.6906 1.32929C12.4071 0.903161 13.2893 0.88991 14.0178 1.29433C14.3197 1.46194 14.6077 1.75618 15.1838 2.34466C15.7598 2.93314 16.0479 3.22738 16.212 3.53579C16.6079 4.27993 16.5949 5.18119 16.1777 5.91312C16.0049 6.21646 15.7085 6.50192 15.1157 7.07285L8.06297 13.8658C6.93966 14.9477 6.378 15.4887 5.67605 15.7629C4.97409 16.0371 4.2024 16.0169 2.65902 15.9765L2.44903 15.971C1.97918 15.9588 1.74425 15.9526 1.60769 15.7976C1.47113 15.6426 1.48977 15.4033 1.52706 14.9247L1.54731 14.6648C1.65226 13.3178 1.70473 12.6442 1.96778 12.0388C2.23083 11.4333 2.68458 10.9417 3.59207 9.95847L10.5553 2.41418Z" stroke="#898989" stroke-width="1.5" stroke-linejoin="round"/>
<path d="M9.75 2.50009L15 7.75009" stroke="#898989" stroke-width="1.5" stroke-linejoin="round"/>
<path d="M10.5 16.0001L16.5 16.0001" stroke="#898989" stroke-width="1.5" stroke-linecap="round" stroke-linejoin="round"/>
</svg>
