<svg width="231" height="215" viewBox="0 0 231 215" fill="none" xmlns="http://www.w3.org/2000/svg">
<path d="M116.285 70.2598L136.418 79.7937" stroke="#64A2E7" stroke-width="0.299693" stroke-miterlimit="10" stroke-linecap="round"/>
<path d="M197.652 29.1533V65.4515" stroke="#64A2E7" stroke-width="0.299693" stroke-miterlimit="10" stroke-linecap="round"/>
<path d="M177.238 38.8217L197.652 29.1533" stroke="#64A2E7" stroke-width="0.299693" stroke-miterlimit="10" stroke-linecap="round"/>
<path d="M197.652 29.1533L230.721 44.8085" stroke="#64A2E7" stroke-width="0.299693" stroke-miterlimit="10" stroke-linecap="round"/>
<path d="M177.238 38.8213V63.8503" stroke="#64A2E7" stroke-width="0.299693" stroke-miterlimit="10" stroke-linecap="round"/>
<path d="M143.186 0.166992L166.996 11.4362" stroke="#64A2E7" stroke-width="0.299693" stroke-miterlimit="10" stroke-linecap="round"/>
<path d="M99.5781 20.8165L143.186 0.166992" stroke="#64A2E7" stroke-width="0.299693" stroke-miterlimit="10" stroke-linecap="round"/>
<path d="M143.186 0.166992V214.569" stroke="#64A2E7" stroke-width="0.299693" stroke-miterlimit="10" stroke-linecap="round"/>
<path d="M166.996 11.436V68.6975" stroke="#64A2E7" stroke-width="0.299693" stroke-miterlimit="10" stroke-linecap="round"/>
<path d="M24.0809 70.7402L0.278564 82.0158" stroke="#64A2E7" stroke-width="0.299693" stroke-miterlimit="10" stroke-linecap="round"/>
<path d="M61.5914 88.5084L24.0807 70.7402" stroke="#64A2E7" stroke-width="0.299693" stroke-miterlimit="10" stroke-linecap="round"/>
<path d="M24.0807 70.7402V214.569" stroke="#64A2E7" stroke-width="0.299693" stroke-miterlimit="10" stroke-linecap="round"/>
<path d="M0.278564 82.0156V214.569" stroke="#64A2E7" stroke-width="0.299693" stroke-miterlimit="10" stroke-linecap="round"/>
<path d="M185.747 59.8169L214.53 73.4423" stroke="#64A2E7" stroke-width="0.299693" stroke-miterlimit="10" stroke-linecap="round"/>
<path d="M151.023 76.2596L185.747 59.8169" stroke="#64A2E7" stroke-width="0.299693" stroke-miterlimit="10" stroke-linecap="round"/>
<path d="M185.747 59.8169V214.569" stroke="#64A2E7" stroke-width="0.299693" stroke-miterlimit="10" stroke-linecap="round"/>
<path d="M151.023 76.2593V214.569" stroke="#64A2E7" stroke-width="0.299693" stroke-miterlimit="10" stroke-linecap="round"/>
<path d="M214.529 73.4419V214.569" stroke="#64A2E7" stroke-width="0.299693" stroke-miterlimit="10" stroke-linecap="round"/>
<path d="M230.721 44.8081V214.569" stroke="#64A2E7" stroke-width="0.299693" stroke-miterlimit="10" stroke-linecap="round"/>
<path d="M105.675 60.6041L76.2913 46.6841" stroke="#64A2E7" stroke-width="0.299693" stroke-miterlimit="10" stroke-linecap="round"/>
<path d="M76.2914 46.6841L61.5916 53.6441" stroke="#64A2E7" stroke-width="0.299693" stroke-miterlimit="10" stroke-linecap="round"/>
<path d="M76.2913 46.6841V214.569" stroke="#64A2E7" stroke-width="0.299693" stroke-miterlimit="10" stroke-linecap="round"/>
<path d="M61.5916 53.644V214.569" stroke="#64A2E7" stroke-width="0.299693" stroke-miterlimit="10" stroke-linecap="round"/>
<path d="M15.5869 43.5724L31.2704 36.1514" stroke="#64A2E7" stroke-width="0.299693" stroke-miterlimit="10" stroke-linecap="round"/>
<path d="M31.2704 36.1514L46.9538 43.5724" stroke="#64A2E7" stroke-width="0.299693" stroke-miterlimit="10" stroke-linecap="round"/>
<path d="M15.5869 43.5723V74.7674" stroke="#64A2E7" stroke-width="0.299693" stroke-miterlimit="10" stroke-linecap="round"/>
<path d="M46.9539 43.5723V81.5737" stroke="#64A2E7" stroke-width="0.299693" stroke-miterlimit="10" stroke-linecap="round"/>
<path d="M99.5781 20.8164V57.7165" stroke="#64A2E7" stroke-width="0.299693" stroke-miterlimit="10" stroke-linecap="round"/>
<path d="M31.2704 36.1514V74.1464" stroke="#64A2E7" stroke-width="0.299693" stroke-miterlimit="10" stroke-linecap="round"/>
<path d="M105.675 60.6045V75.28" stroke="#64A2E7" stroke-width="0.299693" stroke-miterlimit="10" stroke-linecap="round"/>
<path d="M96.1433 79.7937L116.284 70.2598" stroke="#64A2E7" stroke-width="0.299693" stroke-miterlimit="10" stroke-linecap="round"/>
<path d="M96.1433 79.7939V214.569" stroke="#64A2E7" stroke-width="0.299693" stroke-miterlimit="10" stroke-linecap="round"/>
<path d="M136.417 79.7939V214.569" stroke="#64A2E7" stroke-width="0.299693" stroke-miterlimit="10" stroke-linecap="round"/>
<path d="M116.285 70.2598V214.569" stroke="#64A2E7" stroke-width="0.299693" stroke-miterlimit="10" stroke-linecap="round"/>
</svg>
