<svg width="23" height="23" viewBox="0 0 23 23" fill="none" xmlns="http://www.w3.org/2000/svg">
<path d="M2.5575 11.4132C2.5575 16.4759 6.66155 20.5799 11.7242 20.5799C16.7868 20.5799 20.8908 16.4759 20.8908 11.4132C20.8908 6.35064 16.7868 2.24658 11.7242 2.24658" stroke="#898989" stroke-width="1.3" stroke-linecap="round"/>
<path d="M4.98538 5.06894C5.1122 4.93452 5.2429 4.80378 5.37729 4.67693M8.00926 2.91535C8.17564 2.84056 8.34457 2.77042 8.51587 2.70508M3.22828 7.69351C3.15268 7.8615 3.08182 8.03208 3.01587 8.20508" stroke="#898989" stroke-width="1.3" stroke-linecap="round" stroke-linejoin="round"/>
<path d="M14.4741 8.66309L11.7241 11.4131M11.7241 11.4131L8.97412 14.1631M11.7241 11.4131L14.4741 14.1631M11.7241 11.4131L8.97412 8.66309" stroke="#898989" stroke-width="1.3" stroke-linecap="round" stroke-linejoin="round"/>
</svg>
