<svg width="31" height="19" viewBox="0 0 31 19" fill="none" xmlns="http://www.w3.org/2000/svg">
<path d="M21.125 4.625L20.6602 12.1438C20.5415 14.0648 20.4821 15.0253 20.0006 15.7159C19.7625 16.0573 19.456 16.3455 19.1005 16.562C18.3816 17 17.4192 17 15.4946 17C13.5673 17 12.6037 17 11.8843 16.5612C11.5286 16.3443 11.222 16.0556 10.984 15.7136C10.5027 15.0219 10.4446 14.0601 10.3285 12.1364L9.875 4.625" stroke="#898989" stroke-width="1.5" stroke-linecap="round"/>
<path d="M13.25 9.30078H17.75" stroke="#898989" stroke-width="1.5" stroke-linecap="round"/>
<path d="M14.375 12.2402H16.625" stroke="#898989" stroke-width="1.5" stroke-linecap="round"/>
<path d="M8.75 4.625H22.25M18.5417 4.625L18.0296 3.5688C17.6895 2.86719 17.5195 2.51639 17.2261 2.2976C17.1611 2.24907 17.0922 2.20591 17.0201 2.16853C16.6953 2 16.3054 2 15.5258 2C14.7265 2 14.3268 2 13.9966 2.17559C13.9234 2.21451 13.8536 2.25942 13.7878 2.30988C13.4911 2.53753 13.3253 2.90116 12.9938 3.62844L12.5396 4.625" stroke="#898989" stroke-width="1.5" stroke-linecap="round"/>
</svg>
